<svg id="Capa_1" data-name="Capa 1" xmlns="http://www.w3.org/2000/svg" viewBox="0 0 2736 1824"><defs><style>.cls-1{fill:#1b1b1b;}.cls-2{fill:#625467;}.cls-3{fill:#7b6981;}.cls-4{fill:#564a5a;}.cls-5{fill:#994d4d;}.cls-6{fill:#6f5f74;}.cls-7{fill:#88788e;}.cls-8{fill:#4a3f4d;}.cls-9{fill:#312a34;}</style></defs><rect class="cls-1" x="1074.68" y="512.99" width="56.63" height="57.07"/><rect class="cls-1" x="1074.68" y="455.92" width="56.63" height="57.07"/><rect class="cls-1" x="1074.68" y="398.85" width="56.63" height="57.07"/><rect class="cls-1" x="1074.68" y="342.1" width="56.63" height="56.75"/><rect class="cls-1" x="1018.05" y="570.06" width="56.63" height="57.07"/><rect class="cls-2" x="1018.05" y="512.99" width="56.63" height="57.07"/><rect class="cls-3" x="1018.05" y="455.92" width="56.63" height="57.07"/><rect class="cls-3" x="1018.05" y="398.85" width="56.63" height="57.07"/><rect class="cls-1" x="1018.05" y="342.1" width="56.63" height="56.75"/><rect class="cls-1" x="961.42" y="570.06" width="56.63" height="57.07"/><rect class="cls-3" x="961.42" y="512.99" width="56.63" height="57.07"/><rect class="cls-4" x="961.42" y="455.92" width="56.63" height="57.07"/><rect class="cls-3" x="961.42" y="398.85" width="56.63" height="57.07"/><rect class="cls-4" x="961.42" y="342.1" width="56.63" height="56.75"/><rect class="cls-1" x="961.42" y="285.03" width="56.63" height="57.07"/><rect class="cls-1" x="961.42" y="227.96" width="56.63" height="57.07"/><rect class="cls-1" x="904.79" y="570.06" width="56.63" height="57.07"/><rect class="cls-3" x="904.79" y="512.99" width="56.63" height="57.07"/><rect class="cls-3" x="904.79" y="455.92" width="56.63" height="57.07"/><rect class="cls-3" x="904.79" y="398.85" width="56.63" height="57.07"/><rect class="cls-3" x="904.79" y="342.1" width="56.63" height="56.75"/><rect class="cls-3" x="904.79" y="285.03" width="56.63" height="57.07"/><rect class="cls-3" x="904.79" y="227.96" width="56.63" height="57.07"/><rect class="cls-1" x="904.79" y="170.89" width="56.63" height="57.07"/><rect class="cls-1" x="848.48" y="570.06" width="56.31" height="57.07"/><rect class="cls-3" x="848.48" y="512.99" width="56.31" height="57.07"/><rect class="cls-3" x="848.48" y="455.92" width="56.31" height="57.07"/><rect class="cls-3" x="848.48" y="398.85" width="56.31" height="57.07"/><rect class="cls-1" x="848.48" y="342.1" width="56.31" height="56.75"/><rect class="cls-1" x="848.48" y="285.03" width="56.31" height="57.07"/><rect class="cls-3" x="848.48" y="227.96" width="56.31" height="57.07"/><rect class="cls-3" x="848.48" y="170.89" width="56.31" height="57.07"/><rect class="cls-1" x="848.48" y="114.14" width="56.31" height="56.75"/><rect class="cls-1" x="848.48" y="57.07" width="56.31" height="57.07"/><rect class="cls-1" x="848.48" width="56.31" height="57.07"/><rect class="cls-1" x="791.85" y="798.02" width="56.63" height="57.07"/><rect class="cls-1" x="791.85" y="740.95" width="56.63" height="57.07"/><rect class="cls-1" x="791.85" y="683.88" width="56.63" height="57.07"/><rect class="cls-1" x="791.85" y="627.13" width="56.63" height="56.75"/><rect class="cls-2" x="791.85" y="570.06" width="56.63" height="57.07"/><rect class="cls-3" x="791.85" y="512.99" width="56.63" height="57.07"/><rect class="cls-3" x="791.85" y="455.92" width="56.63" height="57.07"/><rect class="cls-3" x="791.85" y="398.85" width="56.63" height="57.07"/><rect class="cls-3" x="791.85" y="342.1" width="56.63" height="56.75"/><rect class="cls-3" x="791.85" y="285.03" width="56.63" height="57.07"/><rect class="cls-3" x="791.85" y="227.96" width="56.63" height="57.07"/><rect class="cls-3" x="791.85" y="170.89" width="56.63" height="57.07"/><rect class="cls-5" x="791.85" y="114.14" width="56.63" height="56.75"/><rect class="cls-5" x="791.85" y="57.07" width="56.63" height="57.07"/><rect class="cls-1" x="791.85" width="56.63" height="57.07"/><rect class="cls-1" x="735.22" y="1311.01" width="56.63" height="57.07"/><rect class="cls-1" x="735.22" y="1253.94" width="56.63" height="57.07"/><rect class="cls-1" x="735.22" y="1196.87" width="56.63" height="57.07"/><rect class="cls-1" x="735.22" y="1140.12" width="56.63" height="56.75"/><rect class="cls-1" x="735.22" y="855.09" width="56.63" height="56.75"/><rect class="cls-6" x="735.22" y="798.02" width="56.63" height="57.07"/><rect class="cls-3" x="735.22" y="740.95" width="56.63" height="57.07"/><rect class="cls-3" x="735.22" y="683.88" width="56.63" height="57.07"/><rect class="cls-3" x="735.22" y="627.13" width="56.63" height="56.75"/><rect class="cls-2" x="735.22" y="570.06" width="56.63" height="57.07"/><rect class="cls-3" x="735.22" y="512.99" width="56.63" height="57.07"/><rect class="cls-3" x="735.22" y="455.92" width="56.63" height="57.07"/><rect class="cls-3" x="735.22" y="398.85" width="56.63" height="57.07"/><rect class="cls-3" x="735.22" y="342.1" width="56.63" height="56.75"/><rect class="cls-3" x="735.22" y="285.03" width="56.63" height="57.07"/><rect class="cls-3" x="735.22" y="227.96" width="56.63" height="57.07"/><rect class="cls-3" x="735.22" y="170.89" width="56.63" height="57.07"/><rect class="cls-3" x="735.22" y="114.14" width="56.63" height="56.75"/><rect class="cls-1" x="735.22" y="57.07" width="56.63" height="57.07"/><rect class="cls-1" x="678.59" y="1709.86" width="56.63" height="57.07"/><rect class="cls-1" x="678.59" y="1653.11" width="56.63" height="56.75"/><rect class="cls-1" x="678.59" y="1596.04" width="56.63" height="57.07"/><rect class="cls-1" x="678.59" y="1538.97" width="56.63" height="57.07"/><rect class="cls-1" x="678.59" y="1481.9" width="56.63" height="57.07"/><rect class="cls-1" x="678.59" y="1424.83" width="56.63" height="57.07"/><rect class="cls-1" x="678.59" y="1368.08" width="56.63" height="56.75"/><rect class="cls-3" x="678.59" y="1311.01" width="56.63" height="57.07"/><rect class="cls-3" x="678.59" y="1253.94" width="56.63" height="57.07"/><rect class="cls-3" x="678.59" y="1196.87" width="56.63" height="57.07"/><rect class="cls-7" x="678.59" y="1140.12" width="56.63" height="56.75"/><rect class="cls-1" x="678.59" y="1083.05" width="56.63" height="57.07"/><rect class="cls-1" x="678.59" y="1025.98" width="56.63" height="57.07"/><rect class="cls-1" x="678.59" y="968.91" width="56.63" height="57.07"/><rect class="cls-1" x="678.59" y="855.09" width="56.63" height="56.75"/><rect class="cls-6" x="678.59" y="798.02" width="56.63" height="57.07"/><rect class="cls-3" x="678.59" y="740.95" width="56.63" height="57.07"/><rect class="cls-3" x="678.59" y="683.88" width="56.63" height="57.07"/><rect class="cls-3" x="678.59" y="627.13" width="56.63" height="56.75"/><rect class="cls-3" x="678.59" y="570.06" width="56.63" height="57.07"/><rect class="cls-2" x="678.59" y="512.99" width="56.63" height="57.07"/><rect class="cls-3" x="678.59" y="455.92" width="56.63" height="57.07"/><rect class="cls-3" x="678.59" y="398.85" width="56.63" height="57.07"/><rect class="cls-3" x="678.59" y="342.1" width="56.63" height="56.75"/><rect class="cls-3" x="678.59" y="285.03" width="56.63" height="57.07"/><rect class="cls-3" x="678.59" y="227.96" width="56.63" height="57.07"/><rect class="cls-3" x="678.59" y="170.89" width="56.63" height="57.07"/><rect class="cls-1" x="678.59" y="114.14" width="56.63" height="56.75"/><rect class="cls-1" x="622.28" y="1766.93" width="56.31" height="57.07"/><rect class="cls-6" x="622.28" y="1709.86" width="56.31" height="57.07"/><rect class="cls-3" x="622.28" y="1653.11" width="56.31" height="56.75"/><rect class="cls-3" x="622.28" y="1596.04" width="56.31" height="57.07"/><rect class="cls-3" x="622.28" y="1538.97" width="56.31" height="57.07"/><rect class="cls-3" x="622.28" y="1481.9" width="56.31" height="57.07"/><rect class="cls-2" x="622.28" y="1424.83" width="56.31" height="57.07"/><rect class="cls-3" x="622.28" y="1368.08" width="56.31" height="56.75"/><rect class="cls-3" x="622.28" y="1311.01" width="56.31" height="57.07"/><rect class="cls-3" x="622.28" y="1253.94" width="56.31" height="57.07"/><rect class="cls-3" x="622.28" y="1196.87" width="56.31" height="57.07"/><rect class="cls-3" x="622.28" y="1140.12" width="56.31" height="56.75"/><rect class="cls-5" x="622.28" y="1083.05" width="56.31" height="57.07"/><rect class="cls-5" x="622.28" y="1025.98" width="56.31" height="57.07"/><rect class="cls-1" x="622.28" y="968.91" width="56.31" height="57.07"/><rect class="cls-1" x="622.28" y="855.09" width="56.31" height="56.75"/><rect class="cls-6" x="622.28" y="798.02" width="56.31" height="57.07"/><rect class="cls-3" x="622.28" y="740.95" width="56.31" height="57.07"/><rect class="cls-3" x="622.28" y="683.88" width="56.31" height="57.07"/><rect class="cls-3" x="622.28" y="627.13" width="56.31" height="56.75"/><rect class="cls-3" x="622.28" y="570.06" width="56.31" height="57.07"/><rect class="cls-3" x="622.28" y="512.99" width="56.31" height="57.07"/><rect class="cls-3" x="622.28" y="455.92" width="56.31" height="57.07"/><rect class="cls-3" x="622.28" y="398.85" width="56.31" height="57.07"/><rect class="cls-3" x="622.28" y="342.1" width="56.31" height="56.75"/><rect class="cls-3" x="622.28" y="285.03" width="56.31" height="57.07"/><rect class="cls-7" x="622.28" y="227.96" width="56.31" height="57.07"/><rect class="cls-1" x="622.28" y="170.89" width="56.31" height="57.07"/><rect class="cls-1" x="565.65" y="1766.93" width="56.63" height="57.07"/><rect class="cls-6" x="565.65" y="1709.86" width="56.63" height="57.07"/><rect class="cls-3" x="565.65" y="1653.11" width="56.63" height="56.75"/><rect class="cls-3" x="565.65" y="1596.04" width="56.63" height="57.07"/><rect class="cls-3" x="565.65" y="1538.97" width="56.63" height="57.07"/><rect class="cls-3" x="565.65" y="1481.9" width="56.63" height="57.07"/><rect class="cls-3" x="565.65" y="1424.83" width="56.63" height="57.07"/><rect class="cls-8" x="565.65" y="1368.08" width="56.63" height="56.75"/><rect class="cls-3" x="565.65" y="1311.01" width="56.63" height="57.07"/><rect class="cls-1" x="565.65" y="1253.94" width="56.63" height="57.07"/><rect class="cls-1" x="565.65" y="1196.87" width="56.63" height="57.07"/><rect class="cls-3" x="565.65" y="1140.12" width="56.63" height="56.75"/><rect class="cls-3" x="565.65" y="1083.05" width="56.63" height="57.07"/><rect class="cls-1" x="565.65" y="1025.98" width="56.63" height="57.07"/><rect class="cls-1" x="565.65" y="798.02" width="56.63" height="57.07"/><rect class="cls-6" x="565.65" y="740.95" width="56.63" height="57.07"/><rect class="cls-3" x="565.65" y="683.88" width="56.63" height="57.07"/><rect class="cls-3" x="565.65" y="627.13" width="56.63" height="56.75"/><rect class="cls-3" x="565.65" y="570.06" width="56.63" height="57.07"/><rect class="cls-3" x="565.65" y="512.99" width="56.63" height="57.07"/><rect class="cls-3" x="565.65" y="455.92" width="56.63" height="57.07"/><rect class="cls-3" x="565.65" y="398.85" width="56.63" height="57.07"/><rect class="cls-3" x="565.65" y="342.1" width="56.63" height="56.75"/><rect class="cls-7" x="565.65" y="285.03" width="56.63" height="57.07"/><rect class="cls-1" x="565.65" y="227.96" width="56.63" height="57.07"/><rect class="cls-1" x="509.02" y="1766.93" width="56.63" height="57.07"/><rect class="cls-6" x="509.02" y="1709.86" width="56.63" height="57.07"/><rect class="cls-3" x="509.02" y="1653.11" width="56.63" height="56.75"/><rect class="cls-3" x="509.02" y="1596.04" width="56.63" height="57.07"/><rect class="cls-3" x="509.02" y="1538.97" width="56.63" height="57.07"/><rect class="cls-3" x="509.02" y="1481.9" width="56.63" height="57.07"/><rect class="cls-8" x="509.02" y="1424.83" width="56.63" height="57.07"/><rect class="cls-3" x="509.02" y="1368.08" width="56.63" height="56.75"/><rect class="cls-2" x="509.02" y="1311.01" width="56.63" height="57.07"/><rect class="cls-3" x="509.02" y="1253.94" width="56.63" height="57.07"/><rect class="cls-3" x="509.02" y="1196.87" width="56.63" height="57.07"/><rect class="cls-3" x="509.02" y="1140.12" width="56.63" height="56.75"/><rect class="cls-3" x="509.02" y="1083.05" width="56.63" height="57.07"/><rect class="cls-1" x="509.02" y="1025.98" width="56.63" height="57.07"/><rect class="cls-1" x="509.02" y="798.02" width="56.63" height="57.07"/><rect class="cls-6" x="509.02" y="740.95" width="56.63" height="57.07"/><rect class="cls-3" x="509.02" y="683.88" width="56.63" height="57.07"/><rect class="cls-3" x="509.02" y="627.13" width="56.63" height="56.75"/><rect class="cls-3" x="509.02" y="570.06" width="56.63" height="57.07"/><rect class="cls-3" x="509.02" y="512.99" width="56.63" height="57.07"/><rect class="cls-3" x="509.02" y="455.92" width="56.63" height="57.07"/><rect class="cls-3" x="509.02" y="398.85" width="56.63" height="57.07"/><rect class="cls-4" x="509.02" y="342.1" width="56.63" height="56.75"/><rect class="cls-1" x="509.02" y="285.03" width="56.63" height="57.07"/><rect class="cls-1" x="452.39" y="1709.86" width="56.63" height="57.07"/><rect class="cls-3" x="452.39" y="1653.11" width="56.63" height="56.75"/><rect class="cls-3" x="452.39" y="1596.04" width="56.63" height="57.07"/><rect class="cls-3" x="452.39" y="1538.97" width="56.63" height="57.07"/><rect class="cls-3" x="452.39" y="1481.9" width="56.63" height="57.07"/><rect class="cls-5" x="452.39" y="1424.83" width="56.63" height="57.07"/><rect class="cls-2" x="452.39" y="1368.08" width="56.63" height="56.75"/><rect class="cls-1" x="452.39" y="1311.01" width="56.63" height="57.07"/><rect class="cls-3" x="452.39" y="1253.94" width="56.63" height="57.07"/><rect class="cls-3" x="452.39" y="1196.87" width="56.63" height="57.07"/><rect class="cls-3" x="452.39" y="1140.12" width="56.63" height="56.75"/><rect class="cls-3" x="452.39" y="1083.05" width="56.63" height="57.07"/><rect class="cls-1" x="452.39" y="1025.98" width="56.63" height="57.07"/><rect class="cls-1" x="452.39" y="798.02" width="56.63" height="57.07"/><rect class="cls-6" x="452.39" y="740.95" width="56.63" height="57.07"/><rect class="cls-3" x="452.39" y="683.88" width="56.63" height="57.07"/><rect class="cls-3" x="452.39" y="627.13" width="56.63" height="56.75"/><rect class="cls-3" x="452.39" y="570.06" width="56.63" height="57.07"/><rect class="cls-3" x="452.39" y="512.99" width="56.63" height="57.07"/><rect class="cls-3" x="452.39" y="455.92" width="56.63" height="57.07"/><rect class="cls-3" x="452.39" y="398.85" width="56.63" height="57.07"/><rect class="cls-1" x="452.39" y="342.1" width="56.63" height="56.75"/><rect class="cls-1" x="395.77" y="1766.93" width="56.63" height="57.07"/><rect class="cls-6" x="395.77" y="1709.86" width="56.63" height="57.07"/><rect class="cls-3" x="395.77" y="1653.11" width="56.63" height="56.75"/><rect class="cls-3" x="395.77" y="1596.04" width="56.63" height="57.07"/><rect class="cls-3" x="395.77" y="1538.97" width="56.63" height="57.07"/><rect class="cls-3" x="395.77" y="1481.9" width="56.63" height="57.07"/><rect class="cls-8" x="395.77" y="1424.83" width="56.63" height="57.07"/><rect class="cls-3" x="395.77" y="1368.08" width="56.63" height="56.75"/><rect class="cls-2" x="395.77" y="1311.01" width="56.63" height="57.07"/><rect class="cls-3" x="395.77" y="1253.94" width="56.63" height="57.07"/><rect class="cls-3" x="395.77" y="1196.87" width="56.63" height="57.07"/><rect class="cls-3" x="395.77" y="1140.12" width="56.63" height="56.75"/><rect class="cls-3" x="395.77" y="1083.05" width="56.63" height="57.07"/><rect class="cls-1" x="395.77" y="1025.98" width="56.63" height="57.07"/><rect class="cls-1" x="395.77" y="798.02" width="56.63" height="57.07"/><rect class="cls-6" x="395.77" y="740.95" width="56.63" height="57.07"/><rect class="cls-3" x="395.77" y="683.88" width="56.63" height="57.07"/><rect class="cls-3" x="395.77" y="627.13" width="56.63" height="56.75"/><rect class="cls-3" x="395.77" y="570.06" width="56.63" height="57.07"/><rect class="cls-3" x="395.77" y="512.99" width="56.63" height="57.07"/><rect class="cls-3" x="395.77" y="455.92" width="56.63" height="57.07"/><rect class="cls-3" x="395.77" y="398.85" width="56.63" height="57.07"/><rect class="cls-1" x="395.77" y="342.1" width="56.63" height="56.75"/><rect class="cls-1" x="339.45" y="1766.93" width="56.31" height="57.07"/><rect class="cls-6" x="339.45" y="1709.86" width="56.31" height="57.07"/><rect class="cls-3" x="339.45" y="1653.11" width="56.31" height="56.75"/><rect class="cls-3" x="339.45" y="1596.04" width="56.31" height="57.07"/><rect class="cls-3" x="339.45" y="1538.97" width="56.31" height="57.07"/><rect class="cls-3" x="339.45" y="1481.9" width="56.31" height="57.07"/><rect class="cls-3" x="339.45" y="1424.83" width="56.31" height="57.07"/><rect class="cls-8" x="339.45" y="1368.08" width="56.31" height="56.75"/><rect class="cls-3" x="339.45" y="1311.01" width="56.31" height="57.07"/><rect class="cls-1" x="339.45" y="1253.94" width="56.31" height="57.07"/><rect class="cls-1" x="339.45" y="1196.87" width="56.31" height="57.07"/><rect class="cls-3" x="339.45" y="1140.12" width="56.31" height="56.75"/><rect class="cls-7" x="339.45" y="1083.05" width="56.31" height="57.07"/><rect class="cls-1" x="339.45" y="1025.98" width="56.31" height="57.07"/><rect class="cls-1" x="339.45" y="855.09" width="56.31" height="56.75"/><rect class="cls-6" x="339.45" y="798.02" width="56.31" height="57.07"/><rect class="cls-3" x="339.45" y="740.95" width="56.31" height="57.07"/><rect class="cls-3" x="339.45" y="683.88" width="56.31" height="57.07"/><rect class="cls-3" x="339.45" y="627.13" width="56.31" height="56.75"/><rect class="cls-3" x="339.45" y="570.06" width="56.31" height="57.07"/><rect class="cls-3" x="339.45" y="512.99" width="56.31" height="57.07"/><rect class="cls-3" x="339.45" y="455.92" width="56.31" height="57.07"/><rect class="cls-3" x="339.45" y="398.85" width="56.31" height="57.07"/><rect class="cls-1" x="339.45" y="342.1" width="56.31" height="56.75"/><rect class="cls-1" x="282.83" y="1766.93" width="56.63" height="57.07"/><rect class="cls-6" x="282.83" y="1709.86" width="56.63" height="57.07"/><rect class="cls-3" x="282.83" y="1653.11" width="56.63" height="56.75"/><rect class="cls-3" x="282.83" y="1596.04" width="56.63" height="57.07"/><rect class="cls-3" x="282.83" y="1538.97" width="56.63" height="57.07"/><rect class="cls-3" x="282.83" y="1481.9" width="56.63" height="57.07"/><rect class="cls-2" x="282.83" y="1424.83" width="56.63" height="57.07"/><rect class="cls-3" x="282.83" y="1368.08" width="56.63" height="56.75"/><rect class="cls-3" x="282.83" y="1311.01" width="56.63" height="57.07"/><rect class="cls-3" x="282.83" y="1253.94" width="56.63" height="57.07"/><rect class="cls-3" x="282.83" y="1196.87" width="56.63" height="57.07"/><rect class="cls-3" x="282.83" y="1140.12" width="56.63" height="56.75"/><rect class="cls-5" x="282.83" y="1083.05" width="56.63" height="57.07"/><rect class="cls-5" x="282.83" y="1025.98" width="56.63" height="57.07"/><rect class="cls-1" x="282.83" y="968.91" width="56.63" height="57.07"/><rect class="cls-1" x="282.83" y="855.09" width="56.63" height="56.75"/><rect class="cls-6" x="282.83" y="798.02" width="56.63" height="57.07"/><rect class="cls-3" x="282.83" y="740.95" width="56.63" height="57.07"/><rect class="cls-3" x="282.83" y="683.88" width="56.63" height="57.07"/><rect class="cls-3" x="282.83" y="627.13" width="56.63" height="56.75"/><rect class="cls-3" x="282.83" y="570.06" width="56.63" height="57.07"/><rect class="cls-3" x="282.83" y="512.99" width="56.63" height="57.07"/><rect class="cls-3" x="282.83" y="455.92" width="56.63" height="57.07"/><rect class="cls-7" x="282.83" y="398.85" width="56.63" height="57.07"/><rect class="cls-1" x="282.83" y="342.1" width="56.63" height="56.75"/><rect class="cls-1" x="226.2" y="1709.86" width="56.63" height="57.07"/><rect class="cls-1" x="226.2" y="1653.11" width="56.63" height="56.75"/><rect class="cls-1" x="226.2" y="1596.04" width="56.63" height="57.07"/><rect class="cls-1" x="226.2" y="1538.97" width="56.63" height="57.07"/><rect class="cls-1" x="226.2" y="1481.9" width="56.63" height="57.07"/><rect class="cls-1" x="226.2" y="1424.83" width="56.63" height="57.07"/><rect class="cls-1" x="226.2" y="1368.08" width="56.63" height="56.75"/><rect class="cls-3" x="226.2" y="1311.01" width="56.63" height="57.07"/><rect class="cls-3" x="226.2" y="1253.94" width="56.63" height="57.07"/><rect class="cls-7" x="226.2" y="1196.87" width="56.63" height="57.07"/><rect class="cls-7" x="226.2" y="1140.12" width="56.63" height="56.75"/><rect class="cls-1" x="226.2" y="1083.05" width="56.63" height="57.07"/><rect class="cls-1" x="226.2" y="1025.98" width="56.63" height="57.07"/><rect class="cls-1" x="226.2" y="968.91" width="56.63" height="57.07"/><rect class="cls-1" x="226.2" y="855.09" width="56.63" height="56.75"/><rect class="cls-6" x="226.2" y="798.02" width="56.63" height="57.07"/><rect class="cls-3" x="226.2" y="740.95" width="56.63" height="57.07"/><rect class="cls-3" x="226.2" y="683.88" width="56.63" height="57.07"/><rect class="cls-3" x="226.2" y="627.13" width="56.63" height="56.75"/><rect class="cls-3" x="226.2" y="570.06" width="56.63" height="57.07"/><rect class="cls-3" x="226.2" y="512.99" width="56.63" height="57.07"/><rect class="cls-3" x="226.2" y="455.92" width="56.63" height="57.07"/><rect class="cls-7" x="226.2" y="398.85" width="56.63" height="57.07"/><rect class="cls-1" x="226.2" y="342.1" width="56.63" height="56.75"/><rect class="cls-1" x="169.57" y="1311.01" width="56.63" height="57.07"/><rect class="cls-1" x="169.57" y="1253.94" width="56.63" height="57.07"/><rect class="cls-1" x="169.57" y="1196.87" width="56.63" height="57.07"/><rect class="cls-1" x="169.57" y="1140.12" width="56.63" height="56.75"/><rect class="cls-1" x="169.57" y="855.09" width="56.63" height="56.75"/><rect class="cls-2" x="169.57" y="798.02" width="56.63" height="57.07"/><rect class="cls-6" x="169.57" y="740.95" width="56.63" height="57.07"/><rect class="cls-6" x="169.57" y="683.88" width="56.63" height="57.07"/><rect class="cls-3" x="169.57" y="627.13" width="56.63" height="56.75"/><rect class="cls-3" x="169.57" y="570.06" width="56.63" height="57.07"/><rect class="cls-3" x="169.57" y="512.99" width="56.63" height="57.07"/><rect class="cls-7" x="169.57" y="455.92" width="56.63" height="57.07"/><rect class="cls-1" x="169.57" y="398.85" width="56.63" height="57.07"/><rect class="cls-1" x="113.26" y="798.02" width="56.31" height="57.07"/><rect class="cls-1" x="113.26" y="740.95" width="56.31" height="57.07"/><rect class="cls-1" x="113.26" y="683.88" width="56.31" height="57.07"/><rect class="cls-1" x="113.26" y="627.13" width="56.31" height="56.75"/><rect class="cls-1" x="113.26" y="570.06" width="56.31" height="57.07"/><rect class="cls-1" x="113.26" y="512.99" width="56.31" height="57.07"/><rect class="cls-2" x="113.26" y="455.92" width="56.31" height="57.07"/><rect class="cls-1" x="113.26" y="398.85" width="56.31" height="57.07"/><rect class="cls-1" x="56.63" y="455.92" width="56.63" height="57.07"/><rect class="cls-2" x="56.63" y="398.85" width="56.63" height="57.07"/><rect class="cls-1" x="56.63" y="342.1" width="56.63" height="56.75"/><rect class="cls-1" y="398.85" width="56.63" height="57.07"/><rect class="cls-1" y="342.1" width="56.63" height="56.75"/><rect class="cls-1" x="1604.7" y="342.1" width="56.63" height="56.75"/><rect class="cls-1" x="1604.7" y="398.85" width="56.63" height="57.07"/><rect class="cls-1" x="1604.7" y="455.92" width="56.63" height="57.07"/><rect class="cls-1" x="1604.7" y="512.99" width="56.63" height="57.07"/><rect class="cls-1" x="1661.32" y="342.1" width="56.63" height="56.75"/><rect class="cls-3" x="1661.32" y="398.85" width="56.63" height="57.07"/><rect class="cls-3" x="1661.32" y="455.92" width="56.63" height="57.07"/><rect class="cls-2" x="1661.32" y="512.99" width="56.63" height="57.07"/><rect class="cls-1" x="1661.32" y="570.06" width="56.63" height="57.07"/><rect class="cls-1" x="1717.95" y="227.96" width="56.31" height="57.07"/><rect class="cls-1" x="1717.95" y="285.03" width="56.31" height="57.07"/><rect class="cls-4" x="1717.95" y="342.1" width="56.31" height="56.75"/><rect class="cls-3" x="1717.95" y="398.85" width="56.31" height="57.07"/><rect class="cls-4" x="1717.95" y="455.92" width="56.31" height="57.07"/><rect class="cls-3" x="1717.95" y="512.99" width="56.31" height="57.07"/><rect class="cls-1" x="1717.95" y="570.06" width="56.31" height="57.07"/><rect class="cls-1" x="1774.26" y="170.89" width="56.63" height="57.07"/><rect class="cls-3" x="1774.26" y="227.96" width="56.63" height="57.07"/><rect class="cls-3" x="1774.26" y="285.03" width="56.63" height="57.07"/><rect class="cls-3" x="1774.26" y="342.1" width="56.63" height="56.75"/><rect class="cls-3" x="1774.26" y="398.85" width="56.63" height="57.07"/><rect class="cls-3" x="1774.26" y="455.92" width="56.63" height="57.07"/><rect class="cls-3" x="1774.26" y="512.99" width="56.63" height="57.07"/><rect class="cls-1" x="1774.26" y="570.06" width="56.63" height="57.07"/><rect class="cls-1" x="1830.89" width="56.63" height="57.07"/><rect class="cls-1" x="1830.89" y="57.07" width="56.63" height="57.07"/><rect class="cls-1" x="1830.89" y="114.14" width="56.63" height="56.75"/><rect class="cls-3" x="1830.89" y="170.89" width="56.63" height="57.07"/><rect class="cls-3" x="1830.89" y="227.96" width="56.63" height="57.07"/><rect class="cls-1" x="1830.89" y="285.03" width="56.63" height="57.07"/><rect class="cls-1" x="1830.89" y="342.1" width="56.63" height="56.75"/><rect class="cls-3" x="1830.89" y="398.85" width="56.63" height="57.07"/><rect class="cls-3" x="1830.89" y="455.92" width="56.63" height="57.07"/><rect class="cls-3" x="1830.89" y="512.99" width="56.63" height="57.07"/><rect class="cls-1" x="1830.89" y="570.06" width="56.63" height="57.07"/><rect class="cls-1" x="1887.52" width="56.63" height="57.07"/><rect class="cls-5" x="1887.52" y="57.07" width="56.63" height="57.07"/><rect class="cls-5" x="1887.52" y="114.14" width="56.63" height="56.75"/><rect class="cls-3" x="1887.52" y="170.89" width="56.63" height="57.07"/><rect class="cls-3" x="1887.52" y="227.96" width="56.63" height="57.07"/><rect class="cls-3" x="1887.52" y="285.03" width="56.63" height="57.07"/><rect class="cls-3" x="1887.52" y="342.1" width="56.63" height="56.75"/><rect class="cls-3" x="1887.52" y="398.85" width="56.63" height="57.07"/><rect class="cls-3" x="1887.52" y="455.92" width="56.63" height="57.07"/><rect class="cls-3" x="1887.52" y="512.99" width="56.63" height="57.07"/><rect class="cls-2" x="1887.52" y="570.06" width="56.63" height="57.07"/><rect class="cls-1" x="1887.52" y="627.13" width="56.63" height="56.75"/><rect class="cls-1" x="1887.52" y="683.88" width="56.63" height="57.07"/><rect class="cls-1" x="1887.52" y="740.95" width="56.63" height="57.07"/><rect class="cls-1" x="1887.52" y="798.02" width="56.63" height="57.07"/><rect class="cls-1" x="1944.15" y="57.07" width="56.31" height="57.07"/><rect class="cls-3" x="1944.15" y="114.14" width="56.31" height="56.75"/><rect class="cls-3" x="1944.15" y="170.89" width="56.31" height="57.07"/><rect class="cls-3" x="1944.15" y="227.96" width="56.31" height="57.07"/><rect class="cls-3" x="1944.15" y="285.03" width="56.31" height="57.07"/><rect class="cls-3" x="1944.15" y="342.1" width="56.31" height="56.75"/><rect class="cls-3" x="1944.15" y="398.85" width="56.31" height="57.07"/><rect class="cls-3" x="1944.15" y="455.92" width="56.31" height="57.07"/><rect class="cls-3" x="1944.15" y="512.99" width="56.31" height="57.07"/><rect class="cls-2" x="1944.15" y="570.06" width="56.31" height="57.07"/><rect class="cls-3" x="1944.15" y="627.13" width="56.31" height="56.75"/><rect class="cls-3" x="1944.15" y="683.88" width="56.31" height="57.07"/><rect class="cls-3" x="1944.15" y="740.95" width="56.31" height="57.07"/><rect class="cls-6" x="1944.15" y="798.02" width="56.31" height="57.07"/><rect class="cls-1" x="1944.15" y="855.09" width="56.31" height="56.75"/><rect class="cls-1" x="1944.15" y="1140.12" width="56.31" height="56.75"/><rect class="cls-1" x="1944.15" y="1196.87" width="56.31" height="57.07"/><rect class="cls-1" x="1944.15" y="1253.94" width="56.31" height="57.07"/><rect class="cls-1" x="1944.15" y="1311.01" width="56.31" height="57.07"/><rect class="cls-1" x="2000.46" y="114.14" width="56.63" height="56.75"/><rect class="cls-3" x="2000.46" y="170.89" width="56.63" height="57.07"/><rect class="cls-3" x="2000.46" y="227.96" width="56.63" height="57.07"/><rect class="cls-3" x="2000.46" y="285.03" width="56.63" height="57.07"/><rect class="cls-3" x="2000.46" y="342.1" width="56.63" height="56.75"/><rect class="cls-3" x="2000.46" y="398.85" width="56.63" height="57.07"/><rect class="cls-3" x="2000.46" y="455.92" width="56.63" height="57.07"/><rect class="cls-2" x="2000.46" y="512.99" width="56.63" height="57.07"/><rect class="cls-3" x="2000.46" y="570.06" width="56.63" height="57.07"/><rect class="cls-3" x="2000.46" y="627.13" width="56.63" height="56.75"/><rect class="cls-3" x="2000.46" y="683.88" width="56.63" height="57.07"/><rect class="cls-3" x="2000.46" y="740.95" width="56.63" height="57.07"/><rect class="cls-6" x="2000.46" y="798.02" width="56.63" height="57.07"/><rect class="cls-1" x="2000.46" y="855.09" width="56.63" height="56.75"/><rect class="cls-1" x="2000.46" y="968.91" width="56.63" height="57.07"/><rect class="cls-1" x="2000.46" y="1025.98" width="56.63" height="57.07"/><rect class="cls-1" x="2000.46" y="1083.05" width="56.63" height="57.07"/><rect class="cls-7" x="2000.46" y="1140.12" width="56.63" height="56.75"/><rect class="cls-3" x="2000.46" y="1196.87" width="56.63" height="57.07"/><rect class="cls-3" x="2000.46" y="1253.94" width="56.63" height="57.07"/><rect class="cls-3" x="2000.46" y="1311.01" width="56.63" height="57.07"/><rect class="cls-1" x="2000.46" y="1368.08" width="56.63" height="56.75"/><rect class="cls-1" x="2000.46" y="1424.83" width="56.63" height="57.07"/><rect class="cls-1" x="2000.46" y="1481.9" width="56.63" height="57.07"/><rect class="cls-1" x="2000.46" y="1538.97" width="56.63" height="57.07"/><rect class="cls-1" x="2000.46" y="1596.04" width="56.63" height="57.07"/><rect class="cls-1" x="2000.46" y="1653.11" width="56.63" height="56.75"/><rect class="cls-1" x="2000.46" y="1709.86" width="56.63" height="57.07"/><rect class="cls-1" x="2057.09" y="170.89" width="56.63" height="57.07"/><rect class="cls-7" x="2057.09" y="227.96" width="56.63" height="57.07"/><rect class="cls-3" x="2057.09" y="285.03" width="56.63" height="57.07"/><rect class="cls-3" x="2057.09" y="342.1" width="56.63" height="56.75"/><rect class="cls-3" x="2057.09" y="398.85" width="56.63" height="57.07"/><rect class="cls-3" x="2057.09" y="455.92" width="56.63" height="57.07"/><rect class="cls-3" x="2057.09" y="512.99" width="56.63" height="57.07"/><rect class="cls-3" x="2057.09" y="570.06" width="56.63" height="57.07"/><rect class="cls-3" x="2057.09" y="627.13" width="56.63" height="56.75"/><rect class="cls-3" x="2057.09" y="683.88" width="56.63" height="57.07"/><rect class="cls-3" x="2057.09" y="740.95" width="56.63" height="57.07"/><rect class="cls-6" x="2057.09" y="798.02" width="56.63" height="57.07"/><rect class="cls-1" x="2057.09" y="855.09" width="56.63" height="56.75"/><rect class="cls-1" x="2057.09" y="968.91" width="56.63" height="57.07"/><rect class="cls-3" x="2057.09" y="1025.98" width="56.63" height="57.07"/><rect class="cls-3" x="2057.09" y="1083.05" width="56.63" height="57.07"/><rect class="cls-3" x="2057.09" y="1140.12" width="56.63" height="56.75"/><rect class="cls-3" x="2057.09" y="1196.87" width="56.63" height="57.07"/><rect class="cls-3" x="2057.09" y="1253.94" width="56.63" height="57.07"/><rect class="cls-3" x="2057.09" y="1311.01" width="56.63" height="57.07"/><rect class="cls-9" x="2057.09" y="1368.08" width="56.63" height="56.75"/><rect class="cls-3" x="2057.09" y="1424.83" width="56.63" height="57.07"/><rect class="cls-3" x="2057.09" y="1481.9" width="56.63" height="57.07"/><rect class="cls-3" x="2057.09" y="1538.97" width="56.63" height="57.07"/><rect class="cls-3" x="2057.09" y="1596.04" width="56.63" height="57.07"/><rect class="cls-3" x="2057.09" y="1653.11" width="56.63" height="56.75"/><rect class="cls-6" x="2057.09" y="1709.86" width="56.63" height="57.07"/><rect class="cls-1" x="2057.09" y="1766.93" width="56.63" height="57.07"/><rect class="cls-1" x="2113.72" y="227.96" width="56.63" height="57.07"/><rect class="cls-7" x="2113.72" y="285.03" width="56.63" height="57.07"/><rect class="cls-3" x="2113.72" y="342.1" width="56.63" height="56.75"/><rect class="cls-3" x="2113.72" y="398.85" width="56.63" height="57.07"/><rect class="cls-3" x="2113.72" y="455.92" width="56.63" height="57.07"/><rect class="cls-3" x="2113.72" y="512.99" width="56.63" height="57.07"/><rect class="cls-3" x="2113.72" y="570.06" width="56.63" height="57.07"/><rect class="cls-3" x="2113.72" y="627.13" width="56.63" height="56.75"/><rect class="cls-3" x="2113.72" y="683.88" width="56.63" height="57.07"/><rect class="cls-6" x="2113.72" y="740.95" width="56.63" height="57.07"/><rect class="cls-1" x="2113.72" y="798.02" width="56.63" height="57.07"/><rect class="cls-1" x="2113.72" y="1025.98" width="56.63" height="57.07"/><rect class="cls-3" x="2113.72" y="1083.05" width="56.63" height="57.07"/><rect class="cls-3" x="2113.72" y="1140.12" width="56.63" height="56.75"/><rect class="cls-3" x="2113.72" y="1196.87" width="56.63" height="57.07"/><rect class="cls-3" x="2113.72" y="1253.94" width="56.63" height="57.07"/><rect class="cls-9" x="2113.72" y="1311.01" width="56.63" height="57.07"/><rect class="cls-3" x="2113.72" y="1368.08" width="56.63" height="56.75"/><rect class="cls-3" x="2113.72" y="1424.83" width="56.63" height="57.07"/><rect class="cls-3" x="2113.72" y="1481.9" width="56.63" height="57.07"/><rect class="cls-3" x="2113.72" y="1538.97" width="56.63" height="57.07"/><rect class="cls-3" x="2113.72" y="1596.04" width="56.63" height="57.07"/><rect class="cls-3" x="2113.72" y="1653.11" width="56.63" height="56.75"/><rect class="cls-6" x="2113.72" y="1709.86" width="56.63" height="57.07"/><rect class="cls-1" x="2113.72" y="1766.93" width="56.63" height="57.07"/><rect class="cls-1" x="2170.35" y="285.03" width="56.63" height="57.07"/><rect class="cls-4" x="2170.35" y="342.1" width="56.63" height="56.75"/><rect class="cls-3" x="2170.35" y="398.85" width="56.63" height="57.07"/><rect class="cls-3" x="2170.35" y="455.92" width="56.63" height="57.07"/><rect class="cls-3" x="2170.35" y="512.99" width="56.63" height="57.07"/><rect class="cls-3" x="2170.35" y="570.06" width="56.63" height="57.07"/><rect class="cls-3" x="2170.35" y="627.13" width="56.63" height="56.75"/><rect class="cls-3" x="2170.35" y="683.88" width="56.63" height="57.07"/><rect class="cls-6" x="2170.35" y="740.95" width="56.63" height="57.07"/><rect class="cls-1" x="2170.35" y="798.02" width="56.63" height="57.07"/><rect class="cls-1" x="2170.35" y="1025.98" width="56.63" height="57.07"/><rect class="cls-3" x="2170.35" y="1083.05" width="56.63" height="57.07"/><rect class="cls-3" x="2170.35" y="1140.12" width="56.63" height="56.75"/><rect class="cls-3" x="2170.35" y="1196.87" width="56.63" height="57.07"/><rect class="cls-3" x="2170.35" y="1253.94" width="56.63" height="57.07"/><rect class="cls-9" x="2170.35" y="1311.01" width="56.63" height="57.07"/><rect class="cls-3" x="2170.35" y="1368.08" width="56.63" height="56.75"/><rect class="cls-9" x="2170.35" y="1424.83" width="56.63" height="57.07"/><rect class="cls-3" x="2170.35" y="1481.9" width="56.63" height="57.07"/><rect class="cls-3" x="2170.35" y="1538.97" width="56.63" height="57.07"/><rect class="cls-3" x="2170.35" y="1596.04" width="56.63" height="57.07"/><rect class="cls-3" x="2170.35" y="1653.11" width="56.63" height="56.75"/><rect class="cls-6" x="2170.35" y="1709.86" width="56.63" height="57.07"/><rect class="cls-1" x="2170.35" y="1766.93" width="56.63" height="57.07"/><rect class="cls-1" x="2226.98" y="342.1" width="56.31" height="56.75"/><rect class="cls-3" x="2226.98" y="398.85" width="56.31" height="57.07"/><rect class="cls-3" x="2226.98" y="455.92" width="56.31" height="57.07"/><rect class="cls-3" x="2226.98" y="512.99" width="56.31" height="57.07"/><rect class="cls-3" x="2226.98" y="570.06" width="56.31" height="57.07"/><rect class="cls-3" x="2226.98" y="627.13" width="56.31" height="56.75"/><rect class="cls-3" x="2226.98" y="683.88" width="56.31" height="57.07"/><rect class="cls-6" x="2226.98" y="740.95" width="56.31" height="57.07"/><rect class="cls-1" x="2226.98" y="798.02" width="56.31" height="57.07"/><rect class="cls-1" x="2226.98" y="1025.98" width="56.31" height="57.07"/><rect class="cls-3" x="2226.98" y="1083.05" width="56.31" height="57.07"/><rect class="cls-3" x="2226.98" y="1140.12" width="56.31" height="56.75"/><rect class="cls-3" x="2226.98" y="1196.87" width="56.31" height="57.07"/><rect class="cls-3" x="2226.98" y="1253.94" width="56.31" height="57.07"/><rect class="cls-9" x="2226.98" y="1311.01" width="56.31" height="57.07"/><rect class="cls-9" x="2226.98" y="1368.08" width="56.31" height="56.75"/><rect class="cls-3" x="2226.98" y="1424.83" width="56.31" height="57.07"/><rect class="cls-3" x="2226.98" y="1481.9" width="56.31" height="57.07"/><rect class="cls-3" x="2226.98" y="1538.97" width="56.31" height="57.07"/><rect class="cls-3" x="2226.98" y="1596.04" width="56.31" height="57.07"/><rect class="cls-3" x="2226.98" y="1653.11" width="56.31" height="56.75"/><rect class="cls-1" x="2226.98" y="1709.86" width="56.31" height="57.07"/><rect class="cls-1" x="2283.29" y="342.1" width="56.63" height="56.75"/><rect class="cls-3" x="2283.29" y="398.85" width="56.63" height="57.07"/><rect class="cls-3" x="2283.29" y="455.92" width="56.63" height="57.07"/><rect class="cls-3" x="2283.29" y="512.99" width="56.63" height="57.07"/><rect class="cls-3" x="2283.29" y="570.06" width="56.63" height="57.07"/><rect class="cls-3" x="2283.29" y="627.13" width="56.63" height="56.75"/><rect class="cls-3" x="2283.29" y="683.88" width="56.63" height="57.07"/><rect class="cls-6" x="2283.29" y="740.95" width="56.63" height="57.07"/><rect class="cls-1" x="2283.29" y="798.02" width="56.63" height="57.07"/><rect class="cls-1" x="2283.29" y="1025.98" width="56.63" height="57.07"/><rect class="cls-3" x="2283.29" y="1083.05" width="56.63" height="57.07"/><rect class="cls-3" x="2283.29" y="1140.12" width="56.63" height="56.75"/><rect class="cls-3" x="2283.29" y="1196.87" width="56.63" height="57.07"/><rect class="cls-9" x="2283.29" y="1253.94" width="56.63" height="57.07"/><rect class="cls-3" x="2283.29" y="1311.01" width="56.63" height="57.07"/><rect class="cls-3" x="2283.29" y="1368.08" width="56.63" height="56.75"/><rect class="cls-9" x="2283.29" y="1424.83" width="56.63" height="57.07"/><rect class="cls-9" x="2283.29" y="1481.9" width="56.63" height="57.07"/><rect class="cls-3" x="2283.29" y="1538.97" width="56.63" height="57.07"/><rect class="cls-3" x="2283.29" y="1596.04" width="56.63" height="57.07"/><rect class="cls-3" x="2283.29" y="1653.11" width="56.63" height="56.75"/><rect class="cls-6" x="2283.29" y="1709.86" width="56.63" height="57.07"/><rect class="cls-1" x="2283.29" y="1766.93" width="56.63" height="57.07"/><rect class="cls-1" x="2339.92" y="342.1" width="56.63" height="56.75"/><rect class="cls-3" x="2339.92" y="398.85" width="56.63" height="57.07"/><rect class="cls-3" x="2339.92" y="455.92" width="56.63" height="57.07"/><rect class="cls-3" x="2339.92" y="512.99" width="56.63" height="57.07"/><rect class="cls-3" x="2339.92" y="570.06" width="56.63" height="57.07"/><rect class="cls-3" x="2339.92" y="627.13" width="56.63" height="56.75"/><rect class="cls-3" x="2339.92" y="683.88" width="56.63" height="57.07"/><rect class="cls-3" x="2339.92" y="740.95" width="56.63" height="57.07"/><rect class="cls-6" x="2339.92" y="798.02" width="56.63" height="57.07"/><rect class="cls-1" x="2339.92" y="855.09" width="56.63" height="56.75"/><rect class="cls-1" x="2339.92" y="1025.98" width="56.63" height="57.07"/><rect class="cls-7" x="2339.92" y="1083.05" width="56.63" height="57.07"/><rect class="cls-3" x="2339.92" y="1140.12" width="56.63" height="56.75"/><rect class="cls-3" x="2339.92" y="1196.87" width="56.63" height="57.07"/><rect class="cls-3" x="2339.92" y="1253.94" width="56.63" height="57.07"/><rect class="cls-9" x="2339.92" y="1311.01" width="56.63" height="57.07"/><rect class="cls-9" x="2339.92" y="1368.08" width="56.63" height="56.75"/><rect class="cls-3" x="2339.92" y="1424.83" width="56.63" height="57.07"/><rect class="cls-3" x="2339.92" y="1481.9" width="56.63" height="57.07"/><rect class="cls-3" x="2339.92" y="1538.97" width="56.63" height="57.07"/><rect class="cls-3" x="2339.92" y="1596.04" width="56.63" height="57.07"/><rect class="cls-3" x="2339.92" y="1653.11" width="56.63" height="56.75"/><rect class="cls-6" x="2339.92" y="1709.86" width="56.63" height="57.07"/><rect class="cls-1" x="2339.92" y="1766.93" width="56.63" height="57.07"/><rect class="cls-1" x="2396.55" y="342.1" width="56.63" height="56.75"/><rect class="cls-7" x="2396.55" y="398.85" width="56.63" height="57.07"/><rect class="cls-3" x="2396.55" y="455.92" width="56.63" height="57.07"/><rect class="cls-3" x="2396.55" y="512.99" width="56.63" height="57.07"/><rect class="cls-3" x="2396.55" y="570.06" width="56.63" height="57.07"/><rect class="cls-3" x="2396.55" y="627.13" width="56.63" height="56.75"/><rect class="cls-3" x="2396.55" y="683.88" width="56.63" height="57.07"/><rect class="cls-3" x="2396.55" y="740.95" width="56.63" height="57.07"/><rect class="cls-6" x="2396.55" y="798.02" width="56.63" height="57.07"/><rect class="cls-1" x="2396.55" y="855.09" width="56.63" height="56.75"/><rect class="cls-1" x="2396.55" y="968.91" width="56.63" height="57.07"/><rect class="cls-3" x="2396.55" y="1025.98" width="56.63" height="57.07"/><rect class="cls-3" x="2396.55" y="1083.05" width="56.63" height="57.07"/><rect class="cls-3" x="2396.55" y="1140.12" width="56.63" height="56.75"/><rect class="cls-3" x="2396.55" y="1196.87" width="56.63" height="57.07"/><rect class="cls-3" x="2396.55" y="1253.94" width="56.63" height="57.07"/><rect class="cls-3" x="2396.55" y="1311.01" width="56.63" height="57.07"/><rect class="cls-9" x="2396.55" y="1368.08" width="56.63" height="56.75"/><rect class="cls-3" x="2396.55" y="1424.83" width="56.63" height="57.07"/><rect class="cls-3" x="2396.55" y="1481.9" width="56.63" height="57.07"/><rect class="cls-3" x="2396.55" y="1538.97" width="56.63" height="57.07"/><rect class="cls-3" x="2396.55" y="1596.04" width="56.63" height="57.07"/><rect class="cls-3" x="2396.55" y="1653.11" width="56.63" height="56.75"/><rect class="cls-6" x="2396.55" y="1709.86" width="56.63" height="57.07"/><rect class="cls-1" x="2396.55" y="1766.93" width="56.63" height="57.07"/><rect class="cls-1" x="2453.17" y="342.1" width="56.31" height="56.75"/><rect class="cls-7" x="2453.17" y="398.85" width="56.31" height="57.07"/><rect class="cls-3" x="2453.17" y="455.92" width="56.31" height="57.07"/><rect class="cls-3" x="2453.17" y="512.99" width="56.31" height="57.07"/><rect class="cls-3" x="2453.17" y="570.06" width="56.31" height="57.07"/><rect class="cls-3" x="2453.17" y="627.13" width="56.31" height="56.75"/><rect class="cls-3" x="2453.17" y="683.88" width="56.31" height="57.07"/><rect class="cls-3" x="2453.17" y="740.95" width="56.31" height="57.07"/><rect class="cls-6" x="2453.17" y="798.02" width="56.31" height="57.07"/><rect class="cls-1" x="2453.17" y="855.09" width="56.31" height="56.75"/><rect class="cls-1" x="2453.17" y="968.91" width="56.31" height="57.07"/><rect class="cls-1" x="2453.17" y="1025.98" width="56.31" height="57.07"/><rect class="cls-1" x="2453.17" y="1083.05" width="56.31" height="57.07"/><rect class="cls-7" x="2453.17" y="1140.12" width="56.31" height="56.75"/><rect class="cls-7" x="2453.17" y="1196.87" width="56.31" height="57.07"/><rect class="cls-3" x="2453.17" y="1253.94" width="56.31" height="57.07"/><rect class="cls-3" x="2453.17" y="1311.01" width="56.31" height="57.07"/><rect class="cls-1" x="2453.17" y="1368.08" width="56.31" height="56.75"/><rect class="cls-1" x="2453.17" y="1424.83" width="56.31" height="57.07"/><rect class="cls-1" x="2453.17" y="1481.9" width="56.31" height="57.07"/><rect class="cls-1" x="2453.17" y="1538.97" width="56.31" height="57.07"/><rect class="cls-1" x="2453.17" y="1596.04" width="56.31" height="57.07"/><rect class="cls-1" x="2453.17" y="1653.11" width="56.31" height="56.75"/><rect class="cls-1" x="2453.17" y="1709.86" width="56.31" height="57.07"/><rect class="cls-1" x="2509.48" y="398.85" width="56.63" height="57.07"/><rect class="cls-7" x="2509.48" y="455.92" width="56.63" height="57.07"/><rect class="cls-3" x="2509.48" y="512.99" width="56.63" height="57.07"/><rect class="cls-3" x="2509.48" y="570.06" width="56.63" height="57.07"/><rect class="cls-3" x="2509.48" y="627.13" width="56.63" height="56.75"/><rect class="cls-6" x="2509.48" y="683.88" width="56.63" height="57.07"/><rect class="cls-6" x="2509.48" y="740.95" width="56.63" height="57.07"/><rect class="cls-2" x="2509.48" y="798.02" width="56.63" height="57.07"/><rect class="cls-1" x="2509.48" y="855.09" width="56.63" height="56.75"/><rect class="cls-1" x="2509.48" y="1140.12" width="56.63" height="56.75"/><rect class="cls-1" x="2509.48" y="1196.87" width="56.63" height="57.07"/><rect class="cls-1" x="2509.48" y="1253.94" width="56.63" height="57.07"/><rect class="cls-1" x="2509.48" y="1311.01" width="56.63" height="57.07"/><rect class="cls-1" x="2566.11" y="398.85" width="56.63" height="57.07"/><rect class="cls-2" x="2566.11" y="455.92" width="56.63" height="57.07"/><rect class="cls-1" x="2566.11" y="512.99" width="56.63" height="57.07"/><rect class="cls-1" x="2566.11" y="570.06" width="56.63" height="57.07"/><rect class="cls-1" x="2566.11" y="627.13" width="56.63" height="56.75"/><rect class="cls-1" x="2566.11" y="683.88" width="56.63" height="57.07"/><rect class="cls-1" x="2566.11" y="740.95" width="56.63" height="57.07"/><rect class="cls-1" x="2566.11" y="798.02" width="56.63" height="57.07"/><rect class="cls-1" x="2622.74" y="342.1" width="56.63" height="56.75"/><rect class="cls-2" x="2622.74" y="398.85" width="56.63" height="57.07"/><rect class="cls-1" x="2622.74" y="455.92" width="56.63" height="57.07"/><rect class="cls-1" x="2679.37" y="342.1" width="56.63" height="56.75"/><rect class="cls-1" x="2679.37" y="398.85" width="56.63" height="57.07"/></svg>