<svg id="Capa_1" data-name="Capa 1" xmlns="http://www.w3.org/2000/svg" viewBox="0 0 2736 1824"><defs><style>.cls-1{fill:#1b1b1b;}.cls-2{fill:#ddbc78;}.cls-3{fill:#f5d185;}.cls-4{fill:#937d50;}.cls-5{fill:#f5a385;}.cls-6{fill:#ac925d;}.cls-7{fill:#c4a76a;}.cls-8{fill:#625435;}.cls-9{fill:#9f4a59;}</style></defs><rect class="cls-1" x="1215.81" y="482.78" width="76.1" height="53.71"/><rect class="cls-1" x="1215.81" y="429.07" width="76.1" height="53.71"/><rect class="cls-1" x="1140.14" y="536.49" width="75.67" height="53.71"/><rect class="cls-2" x="1140.14" y="482.78" width="75.67" height="53.71"/><rect class="cls-2" x="1140.14" y="429.07" width="75.67" height="53.71"/><rect class="cls-1" x="1140.14" y="375.36" width="75.67" height="53.71"/><rect class="cls-1" x="1140.14" y="321.95" width="75.67" height="53.41"/><rect class="cls-1" x="1140.14" y="268.24" width="75.67" height="53.71"/><rect class="cls-1" x="1064.05" y="590.2" width="76.1" height="53.41"/><rect class="cls-3" x="1064.05" y="536.49" width="76.1" height="53.71"/><rect class="cls-2" x="1064.05" y="482.78" width="76.1" height="53.71"/><rect class="cls-3" x="1064.05" y="429.07" width="76.1" height="53.71"/><rect class="cls-3" x="1064.05" y="375.36" width="76.1" height="53.71"/><rect class="cls-3" x="1064.05" y="321.95" width="76.1" height="53.41"/><rect class="cls-3" x="1064.05" y="268.24" width="76.1" height="53.71"/><rect class="cls-1" x="1064.05" y="214.54" width="76.1" height="53.71"/><rect class="cls-1" x="987.95" y="590.2" width="76.1" height="53.41"/><rect class="cls-3" x="987.95" y="536.49" width="76.1" height="53.71"/><rect class="cls-3" x="987.95" y="482.78" width="76.1" height="53.71"/><rect class="cls-3" x="987.95" y="429.07" width="76.1" height="53.71"/><rect class="cls-1" x="987.95" y="375.36" width="76.1" height="53.71"/><rect class="cls-1" x="987.95" y="321.95" width="76.1" height="53.41"/><rect class="cls-3" x="987.95" y="268.24" width="76.1" height="53.71"/><rect class="cls-3" x="987.95" y="214.54" width="76.1" height="53.71"/><rect class="cls-1" x="987.95" y="160.83" width="76.1" height="53.71"/><rect class="cls-1" x="987.95" y="107.42" width="76.1" height="53.41"/><rect class="cls-1" x="987.95" y="53.71" width="76.1" height="53.71"/><rect class="cls-1" x="911.86" y="643.6" width="76.1" height="53.71"/><rect class="cls-4" x="911.86" y="590.2" width="76.1" height="53.41"/><rect class="cls-3" x="911.86" y="536.49" width="76.1" height="53.71"/><rect class="cls-3" x="911.86" y="482.78" width="76.1" height="53.71"/><rect class="cls-3" x="911.86" y="429.07" width="76.1" height="53.71"/><rect class="cls-3" x="911.86" y="375.36" width="76.1" height="53.71"/><rect class="cls-3" x="911.86" y="321.95" width="76.1" height="53.41"/><rect class="cls-3" x="911.86" y="268.24" width="76.1" height="53.71"/><rect class="cls-3" x="911.86" y="214.54" width="76.1" height="53.71"/><rect class="cls-5" x="911.86" y="160.83" width="76.1" height="53.71"/><rect class="cls-5" x="911.86" y="107.42" width="76.1" height="53.41"/><rect class="cls-5" x="911.86" y="53.71" width="76.1" height="53.71"/><rect class="cls-1" x="911.86" width="76.1" height="53.71"/><rect class="cls-1" x="836.19" y="804.73" width="75.67" height="53.41"/><rect class="cls-1" x="836.19" y="751.02" width="75.67" height="53.71"/><rect class="cls-1" x="836.19" y="697.31" width="75.67" height="53.71"/><rect class="cls-3" x="836.19" y="643.6" width="75.67" height="53.71"/><rect class="cls-6" x="836.19" y="590.2" width="75.67" height="53.41"/><rect class="cls-3" x="836.19" y="536.49" width="75.67" height="53.71"/><rect class="cls-3" x="836.19" y="482.78" width="75.67" height="53.71"/><rect class="cls-3" x="836.19" y="429.07" width="75.67" height="53.71"/><rect class="cls-3" x="836.19" y="375.36" width="75.67" height="53.71"/><rect class="cls-3" x="836.19" y="321.95" width="75.67" height="53.41"/><rect class="cls-3" x="836.19" y="268.24" width="75.67" height="53.71"/><rect class="cls-4" x="836.19" y="214.54" width="75.67" height="53.71"/><rect class="cls-6" x="836.19" y="160.83" width="75.67" height="53.71"/><rect class="cls-3" x="836.19" y="107.42" width="75.67" height="53.41"/><rect class="cls-3" x="836.19" y="53.71" width="75.67" height="53.71"/><rect class="cls-1" x="836.19" width="75.67" height="53.71"/><rect class="cls-1" x="760.1" y="804.73" width="76.1" height="53.41"/><rect class="cls-3" x="760.1" y="751.02" width="76.1" height="53.71"/><rect class="cls-7" x="760.1" y="697.31" width="76.1" height="53.71"/><rect class="cls-3" x="760.1" y="643.6" width="76.1" height="53.71"/><rect class="cls-4" x="760.1" y="590.2" width="76.1" height="53.41"/><rect class="cls-3" x="760.1" y="536.49" width="76.1" height="53.71"/><rect class="cls-3" x="760.1" y="482.78" width="76.1" height="53.71"/><rect class="cls-3" x="760.1" y="429.07" width="76.1" height="53.71"/><rect class="cls-3" x="760.1" y="375.36" width="76.1" height="53.71"/><rect class="cls-3" x="760.1" y="321.95" width="76.1" height="53.41"/><rect class="cls-3" x="760.1" y="268.24" width="76.1" height="53.71"/><rect class="cls-3" x="760.1" y="214.54" width="76.1" height="53.71"/><rect class="cls-3" x="760.1" y="160.83" width="76.1" height="53.71"/><rect class="cls-3" x="760.1" y="107.42" width="76.1" height="53.41"/><rect class="cls-1" x="760.1" y="53.71" width="76.1" height="53.71"/><rect class="cls-1" x="684" y="751.02" width="76.1" height="53.71"/><rect class="cls-7" x="684" y="697.31" width="76.1" height="53.71"/><rect class="cls-3" x="684" y="643.6" width="76.1" height="53.71"/><rect class="cls-3" x="684" y="590.2" width="76.1" height="53.41"/><rect class="cls-4" x="684" y="536.49" width="76.1" height="53.71"/><rect class="cls-3" x="684" y="482.78" width="76.1" height="53.71"/><rect class="cls-3" x="684" y="429.07" width="76.1" height="53.71"/><rect class="cls-2" x="684" y="375.36" width="76.1" height="53.71"/><rect class="cls-3" x="684" y="321.95" width="76.1" height="53.41"/><rect class="cls-3" x="684" y="268.24" width="76.1" height="53.71"/><rect class="cls-3" x="684" y="214.54" width="76.1" height="53.71"/><rect class="cls-2" x="684" y="160.83" width="76.1" height="53.71"/><rect class="cls-1" x="684" y="107.42" width="76.1" height="53.41"/><rect class="cls-1" x="607.91" y="751.02" width="76.09" height="53.71"/><rect class="cls-3" x="607.91" y="697.31" width="76.09" height="53.71"/><rect class="cls-3" x="607.91" y="643.6" width="76.09" height="53.71"/><rect class="cls-3" x="607.91" y="590.2" width="76.09" height="53.41"/><rect class="cls-3" x="607.91" y="536.49" width="76.09" height="53.71"/><rect class="cls-4" x="607.91" y="482.78" width="76.09" height="53.71"/><rect class="cls-3" x="607.91" y="429.07" width="76.09" height="53.71"/><rect class="cls-3" x="607.91" y="375.36" width="76.09" height="53.71"/><rect class="cls-2" x="607.91" y="321.95" width="76.09" height="53.41"/><rect class="cls-2" x="607.91" y="268.24" width="76.09" height="53.71"/><rect class="cls-1" x="607.91" y="214.54" width="76.09" height="53.71"/><rect class="cls-1" x="607.91" y="160.83" width="76.09" height="53.71"/><rect class="cls-1" x="531.81" y="751.02" width="76.09" height="53.71"/><rect class="cls-3" x="531.81" y="697.31" width="76.09" height="53.71"/><rect class="cls-3" x="531.81" y="643.6" width="76.09" height="53.71"/><rect class="cls-3" x="531.81" y="590.2" width="76.09" height="53.41"/><rect class="cls-3" x="531.81" y="536.49" width="76.09" height="53.71"/><rect class="cls-3" x="531.81" y="482.78" width="76.09" height="53.71"/><rect class="cls-7" x="531.81" y="429.07" width="76.09" height="53.71"/><rect class="cls-7" x="531.81" y="375.36" width="76.09" height="53.71"/><rect class="cls-1" x="531.81" y="321.95" width="76.09" height="53.41"/><rect class="cls-1" x="531.81" y="268.24" width="76.09" height="53.71"/><rect class="cls-1" x="456.14" y="751.02" width="75.67" height="53.71"/><rect class="cls-3" x="456.14" y="697.31" width="75.67" height="53.71"/><rect class="cls-3" x="456.14" y="643.6" width="75.67" height="53.71"/><rect class="cls-3" x="456.14" y="590.2" width="75.67" height="53.41"/><rect class="cls-3" x="456.14" y="536.49" width="75.67" height="53.71"/><rect class="cls-3" x="456.14" y="482.78" width="75.67" height="53.71"/><rect class="cls-1" x="456.14" y="429.07" width="75.67" height="53.71"/><rect class="cls-1" x="456.14" y="375.36" width="75.67" height="53.71"/><rect class="cls-1" x="380.05" y="804.73" width="76.09" height="53.41"/><rect class="cls-1" x="380.05" y="751.02" width="76.09" height="53.71"/><rect class="cls-3" x="380.05" y="697.31" width="76.09" height="53.71"/><rect class="cls-3" x="380.05" y="643.6" width="76.09" height="53.71"/><rect class="cls-3" x="380.05" y="590.2" width="76.09" height="53.41"/><rect class="cls-3" x="380.05" y="536.49" width="76.09" height="53.71"/><rect class="cls-2" x="380.05" y="482.78" width="76.09" height="53.71"/><rect class="cls-1" x="380.05" y="429.07" width="76.09" height="53.71"/><rect class="cls-1" x="303.95" y="804.73" width="76.1" height="53.41"/><rect class="cls-2" x="303.95" y="751.02" width="76.1" height="53.71"/><rect class="cls-6" x="303.95" y="697.31" width="76.1" height="53.71"/><rect class="cls-3" x="303.95" y="643.6" width="76.1" height="53.71"/><rect class="cls-3" x="303.95" y="590.2" width="76.1" height="53.41"/><rect class="cls-3" x="303.95" y="536.49" width="76.1" height="53.71"/><rect class="cls-2" x="303.95" y="482.78" width="76.1" height="53.71"/><rect class="cls-1" x="303.95" y="429.07" width="76.1" height="53.71"/><rect class="cls-1" x="227.86" y="751.02" width="76.09" height="53.71"/><rect class="cls-6" x="227.86" y="697.31" width="76.09" height="53.71"/><rect class="cls-6" x="227.86" y="643.6" width="76.09" height="53.71"/><rect class="cls-3" x="227.86" y="590.2" width="76.09" height="53.41"/><rect class="cls-7" x="227.86" y="536.49" width="76.09" height="53.71"/><rect class="cls-1" x="227.86" y="482.78" width="76.09" height="53.71"/><rect class="cls-1" x="152.19" y="697.31" width="75.67" height="53.71"/><rect class="cls-1" x="152.19" y="643.6" width="75.67" height="53.71"/><rect class="cls-6" x="152.19" y="590.2" width="75.67" height="53.41"/><rect class="cls-7" x="152.19" y="536.49" width="75.67" height="53.71"/><rect class="cls-1" x="152.19" y="482.78" width="75.67" height="53.71"/><rect class="cls-1" x="76.09" y="590.2" width="76.09" height="53.41"/><rect class="cls-3" x="76.09" y="536.49" width="76.09" height="53.71"/><rect class="cls-3" x="76.09" y="482.78" width="76.09" height="53.71"/><rect class="cls-1" x="76.09" y="429.07" width="76.09" height="53.71"/><rect class="cls-1" y="536.49" width="76.09" height="53.71"/><rect class="cls-1" y="482.78" width="76.09" height="53.71"/><rect class="cls-1" y="429.07" width="76.09" height="53.71"/><rect class="cls-7" x="2128.09" y="1716.58" width="76.09" height="53.71"/><rect class="cls-7" x="1824.14" y="1716.58" width="76.09" height="53.71"/><rect class="cls-3" x="1748.05" y="1555.76" width="76.09" height="53.41"/><rect class="cls-2" x="1671.95" y="1072.98" width="76.09" height="53.41"/><rect class="cls-3" x="1748.05" y="1502.05" width="76.09" height="53.71"/><rect class="cls-2" x="1748.05" y="1609.16" width="76.09" height="53.71"/><rect class="cls-3" x="1748.05" y="1394.63" width="76.09" height="53.71"/><rect class="cls-6" x="1748.05" y="1662.87" width="76.09" height="53.71"/><rect class="cls-2" x="1671.95" y="1394.63" width="76.09" height="53.71"/><rect class="cls-3" x="1671.95" y="1341.22" width="76.09" height="53.41"/><rect class="cls-3" x="1671.95" y="1233.8" width="76.09" height="53.71"/><rect class="cls-3" x="1748.05" y="1126.38" width="76.09" height="53.71"/><rect class="cls-2" x="1748.05" y="1019.27" width="76.09" height="53.71"/><rect class="cls-3" x="1748.05" y="1287.51" width="76.09" height="53.71"/><rect class="cls-3" x="1671.95" y="1287.51" width="76.09" height="53.71"/><rect class="cls-3" x="1748.05" y="1072.98" width="76.09" height="53.41"/><rect class="cls-3" x="1748.05" y="1180.09" width="76.09" height="53.71"/><rect class="cls-3" x="1671.95" y="1126.38" width="76.09" height="53.71"/><rect class="cls-8" x="1748.05" y="1448.34" width="76.09" height="53.71"/><rect class="cls-2" x="1671.95" y="1448.34" width="76.09" height="53.71"/><rect class="cls-3" x="1748.05" y="1233.8" width="76.09" height="53.71"/><rect class="cls-7" x="1671.95" y="1180.09" width="76.09" height="53.71"/><rect class="cls-3" x="1748.05" y="1341.22" width="76.09" height="53.41"/><rect class="cls-3" x="1900.24" y="1341.22" width="75.67" height="53.41"/><rect class="cls-7" x="1900.24" y="1662.87" width="75.67" height="53.71"/><rect class="cls-3" x="1900.24" y="1609.16" width="75.67" height="53.71"/><rect class="cls-3" x="1900.24" y="1555.76" width="75.67" height="53.41"/><rect class="cls-7" x="1900.24" y="1126.38" width="75.67" height="53.71"/><rect class="cls-3" x="1900.24" y="1287.51" width="75.67" height="53.71"/><rect class="cls-8" x="1900.24" y="1394.63" width="75.67" height="53.71"/><rect class="cls-3" x="1900.24" y="1180.09" width="75.67" height="53.71"/><rect class="cls-3" x="1900.24" y="1448.34" width="75.67" height="53.71"/><rect class="cls-3" x="1824.14" y="1448.34" width="76.09" height="53.71"/><rect class="cls-3" x="1824.14" y="1287.51" width="76.09" height="53.71"/><rect class="cls-8" x="1824.14" y="1394.63" width="76.09" height="53.71"/><rect class="cls-3" x="1824.14" y="1502.05" width="76.09" height="53.71"/><rect class="cls-3" x="1900.24" y="1233.8" width="75.67" height="53.71"/><rect class="cls-3" x="1824.14" y="1126.38" width="76.09" height="53.71"/><rect class="cls-6" x="1824.14" y="1662.87" width="76.09" height="53.71"/><rect class="cls-3" x="1824.14" y="1609.16" width="76.09" height="53.71"/><rect class="cls-3" x="1824.14" y="1555.76" width="76.09" height="53.41"/><rect class="cls-3" x="1824.14" y="1341.22" width="76.09" height="53.41"/><rect class="cls-3" x="1900.24" y="1502.05" width="75.67" height="53.71"/><rect class="cls-3" x="1824.14" y="1233.8" width="76.09" height="53.71"/><rect class="cls-3" x="1824.14" y="1180.09" width="76.09" height="53.71"/><rect class="cls-3" x="1824.14" y="1072.98" width="76.09" height="53.41"/><rect class="cls-3" x="1975.91" y="1287.51" width="76.09" height="53.71"/><rect class="cls-3" x="1975.91" y="1180.09" width="76.09" height="53.71"/><rect class="cls-4" x="1975.91" y="1609.16" width="76.09" height="53.71"/><rect class="cls-8" x="1975.91" y="1394.63" width="76.09" height="53.71"/><rect class="cls-7" x="1975.91" y="1126.38" width="76.09" height="53.71"/><rect class="cls-7" x="1975.91" y="1662.87" width="76.09" height="53.71"/><rect class="cls-3" x="1975.91" y="1555.76" width="76.09" height="53.41"/><rect class="cls-3" x="1975.91" y="1233.8" width="76.09" height="53.71"/><rect class="cls-8" x="1975.91" y="1502.05" width="76.09" height="53.71"/><rect class="cls-3" x="1975.91" y="1448.34" width="76.09" height="53.71"/><rect class="cls-3" x="1975.91" y="1341.22" width="76.09" height="53.41"/><rect class="cls-7" x="2052" y="1662.87" width="76.09" height="53.71"/><rect class="cls-3" x="2128.09" y="1341.22" width="76.09" height="53.41"/><rect class="cls-3" x="2052" y="1341.22" width="76.09" height="53.41"/><rect class="cls-3" x="2052" y="1180.09" width="76.09" height="53.71"/><rect class="cls-7" x="2052" y="1126.38" width="76.09" height="53.71"/><rect class="cls-3" x="2052" y="1287.51" width="76.09" height="53.71"/><rect class="cls-3" x="2128.09" y="1126.38" width="76.09" height="53.71"/><rect class="cls-3" x="2128.09" y="1072.98" width="76.09" height="53.41"/><rect class="cls-3" x="2128.09" y="1233.8" width="76.09" height="53.71"/><rect class="cls-8" x="2128.09" y="1394.63" width="76.09" height="53.71"/><rect class="cls-3" x="2128.09" y="1180.09" width="76.09" height="53.71"/><rect class="cls-8" x="2052" y="1609.16" width="76.09" height="53.71"/><rect class="cls-3" x="2052" y="1555.76" width="76.09" height="53.41"/><rect class="cls-8" x="2128.09" y="1502.05" width="76.09" height="53.71"/><rect class="cls-3" x="2052" y="1448.34" width="76.09" height="53.71"/><rect class="cls-3" x="2052" y="1233.8" width="76.09" height="53.71"/><rect class="cls-8" x="2128.09" y="1555.76" width="76.09" height="53.41"/><rect class="cls-3" x="2128.09" y="1287.51" width="76.09" height="53.71"/><rect class="cls-3" x="2128.09" y="1448.34" width="76.09" height="53.71"/><rect class="cls-3" x="2128.09" y="1609.16" width="76.09" height="53.71"/><rect class="cls-8" x="2052" y="1502.05" width="76.09" height="53.71"/><rect class="cls-8" x="2052" y="1394.63" width="76.09" height="53.71"/><rect class="cls-6" x="2128.09" y="1662.87" width="76.09" height="53.71"/><rect class="cls-3" x="2279.86" y="1072.98" width="76.09" height="53.41"/><rect class="cls-3" x="2204.19" y="1341.22" width="75.67" height="53.41"/><rect class="cls-3" x="2204.19" y="1287.51" width="75.67" height="53.71"/><rect class="cls-3" x="2204.19" y="1233.8" width="75.67" height="53.71"/><rect class="cls-3" x="2204.19" y="1126.38" width="75.67" height="53.71"/><rect class="cls-3" x="2279.86" y="1233.8" width="76.09" height="53.71"/><rect class="cls-3" x="2279.86" y="1287.51" width="76.09" height="53.71"/><rect class="cls-6" x="2204.19" y="1662.87" width="75.67" height="53.71"/><rect class="cls-3" x="2204.19" y="1609.16" width="75.67" height="53.71"/><rect class="cls-3" x="2204.19" y="1180.09" width="75.67" height="53.71"/><rect class="cls-3" x="2204.19" y="1502.05" width="75.67" height="53.71"/><rect class="cls-3" x="2204.19" y="1555.76" width="75.67" height="53.41"/><rect class="cls-8" x="2204.19" y="1448.34" width="75.67" height="53.71"/><rect class="cls-3" x="2204.19" y="1019.27" width="75.67" height="53.71"/><rect class="cls-3" x="2279.86" y="1448.34" width="76.09" height="53.71"/><rect class="cls-3" x="2204.19" y="1394.63" width="75.67" height="53.71"/><rect class="cls-3" x="2279.86" y="1126.38" width="76.09" height="53.71"/><rect class="cls-7" x="2279.86" y="1180.09" width="76.09" height="53.71"/><rect class="cls-3" x="2204.19" y="1072.98" width="75.67" height="53.41"/><rect class="cls-3" x="2279.86" y="1341.22" width="76.09" height="53.41"/><rect class="cls-3" x="2279.86" y="1394.63" width="76.09" height="53.71"/><rect class="cls-1" x="2128.09" y="1770.29" width="76.09" height="53.71"/><rect class="cls-1" x="2204.19" y="1716.58" width="75.67" height="53.71"/><rect class="cls-1" x="1900.24" y="1716.58" width="75.67" height="53.71"/><rect class="cls-1" x="1975.91" y="1716.58" width="76.09" height="53.71"/><rect class="cls-1" x="2052" y="1716.58" width="76.09" height="53.71"/><rect class="cls-1" x="1824.14" y="1770.29" width="76.09" height="53.71"/><rect class="cls-1" x="1748.05" y="1716.58" width="76.09" height="53.71"/><rect class="cls-1" x="2279.86" y="1502.05" width="76.09" height="53.71"/><rect class="cls-1" x="2279.86" y="1662.87" width="76.09" height="53.71"/><rect class="cls-1" x="2279.86" y="1555.76" width="76.09" height="53.41"/><rect class="cls-1" x="2279.86" y="1609.16" width="76.09" height="53.71"/><rect class="cls-1" x="1671.95" y="1502.05" width="76.09" height="53.71"/><rect class="cls-1" x="1671.95" y="1662.87" width="76.09" height="53.71"/><rect class="cls-1" x="1671.95" y="1609.16" width="76.09" height="53.71"/><rect class="cls-1" x="1671.95" y="1555.76" width="76.09" height="53.41"/><rect class="cls-1" x="2355.95" y="1341.22" width="76.09" height="53.41"/><rect class="cls-1" x="2355.95" y="1180.09" width="76.09" height="53.71"/><rect class="cls-1" x="2355.95" y="1072.98" width="76.09" height="53.41"/><rect class="cls-1" x="2355.95" y="1126.38" width="76.09" height="53.71"/><rect class="cls-1" x="2355.95" y="1287.51" width="76.09" height="53.71"/><rect class="cls-1" x="2355.95" y="1448.34" width="76.09" height="53.71"/><rect class="cls-1" x="2355.95" y="1394.63" width="76.09" height="53.71"/><rect class="cls-1" x="2355.95" y="1233.8" width="76.09" height="53.71"/><rect class="cls-1" x="1595.86" y="1287.51" width="76.09" height="53.71"/><rect class="cls-1" x="1595.86" y="1180.09" width="76.09" height="53.71"/><rect class="cls-1" x="1595.86" y="1394.63" width="76.09" height="53.71"/><rect class="cls-1" x="1595.86" y="1126.38" width="76.09" height="53.71"/><rect class="cls-1" x="1595.86" y="1233.8" width="76.09" height="53.71"/><rect class="cls-1" x="1595.86" y="1072.98" width="76.09" height="53.41"/><rect class="cls-1" x="1595.86" y="1448.34" width="76.09" height="53.71"/><rect class="cls-1" x="1595.86" y="1341.22" width="76.09" height="53.41"/><rect class="cls-1" x="2204.19" y="965.56" width="75.67" height="53.71"/><rect class="cls-1" x="2279.86" y="965.56" width="76.09" height="53.71"/><rect class="cls-1" x="2279.86" y="1019.27" width="76.09" height="53.71"/><rect class="cls-1" x="2128.09" y="1019.27" width="76.09" height="53.71"/><rect class="cls-1" x="1900.24" y="1072.98" width="75.67" height="53.41"/><rect class="cls-1" x="1975.91" y="1072.98" width="76.09" height="53.41"/><rect class="cls-1" x="2052" y="1072.98" width="76.09" height="53.41"/><rect class="cls-1" x="1824.14" y="1019.27" width="76.09" height="53.71"/><rect class="cls-1" x="1671.95" y="1019.27" width="76.09" height="53.71"/><rect class="cls-1" x="1671.95" y="965.56" width="76.09" height="53.71"/><rect class="cls-1" x="1748.05" y="965.56" width="76.09" height="53.71"/><rect class="cls-3" x="760.1" y="1287.51" width="76.1" height="53.71"/><rect class="cls-3" x="760.1" y="1341.22" width="76.1" height="53.41"/><rect class="cls-3" x="684" y="1233.8" width="76.1" height="53.71"/><rect class="cls-3" x="303.95" y="1287.51" width="76.1" height="53.71"/><rect class="cls-3" x="303.95" y="1341.22" width="76.1" height="53.41"/><rect class="cls-3" x="456.14" y="1341.22" width="76.09" height="53.41"/><rect class="cls-3" x="456.14" y="1287.51" width="76.09" height="53.71"/><rect class="cls-3" x="380.05" y="1233.8" width="76.09" height="53.71"/><rect class="cls-7" x="456.14" y="1126.38" width="76.09" height="53.71"/><rect class="cls-3" x="456.14" y="1180.09" width="76.09" height="53.71"/><rect class="cls-3" x="456.14" y="1233.8" width="76.09" height="53.71"/><rect class="cls-3" x="607.91" y="1341.22" width="76.09" height="53.41"/><rect class="cls-7" x="607.91" y="1126.38" width="76.09" height="53.71"/><rect class="cls-3" x="607.91" y="1287.51" width="76.09" height="53.71"/><rect class="cls-3" x="532.24" y="1287.51" width="75.67" height="53.71"/><rect class="cls-9" x="532.24" y="1341.22" width="75.67" height="53.41"/><rect class="cls-3" x="532.24" y="1180.09" width="75.67" height="53.71"/><rect class="cls-3" x="607.91" y="1233.8" width="76.09" height="53.71"/><rect class="cls-7" x="532.24" y="1126.38" width="75.67" height="53.71"/><rect class="cls-3" x="532.24" y="1233.8" width="75.67" height="53.71"/><rect class="cls-3" x="607.91" y="1180.09" width="76.09" height="53.71"/><rect class="cls-2" x="760.1" y="1180.09" width="76.1" height="53.71"/><rect class="cls-2" x="684" y="1072.98" width="76.1" height="53.41"/><rect class="cls-3" x="760.1" y="1233.8" width="76.1" height="53.71"/><rect class="cls-3" x="684" y="1180.09" width="76.1" height="53.71"/><rect class="cls-3" x="684" y="1126.38" width="76.1" height="53.71"/><rect class="cls-3" x="836.19" y="1341.22" width="75.67" height="53.41"/><rect class="cls-2" x="836.19" y="1233.8" width="75.67" height="53.71"/><rect class="cls-3" x="836.19" y="1287.51" width="75.67" height="53.71"/><rect class="cls-3" x="836.19" y="1448.34" width="75.67" height="53.71"/><rect class="cls-3" x="836.19" y="1394.63" width="75.67" height="53.71"/><rect class="cls-3" x="456.14" y="1609.16" width="76.09" height="53.71"/><rect class="cls-7" x="380.05" y="1502.05" width="76.09" height="53.71"/><rect class="cls-3" x="380.05" y="1448.34" width="76.09" height="53.71"/><rect class="cls-7" x="456.14" y="1502.05" width="76.09" height="53.71"/><rect class="cls-3" x="456.14" y="1448.34" width="76.09" height="53.71"/><rect class="cls-3" x="456.14" y="1555.76" width="76.09" height="53.41"/><rect class="cls-3" x="607.91" y="1609.16" width="76.09" height="53.71"/><rect class="cls-3" x="532.24" y="1555.76" width="75.67" height="53.41"/><rect class="cls-3" x="532.24" y="1609.16" width="75.67" height="53.71"/><rect class="cls-7" x="532.24" y="1502.05" width="75.67" height="53.71"/><rect class="cls-3" x="532.24" y="1448.34" width="75.67" height="53.71"/><rect class="cls-3" x="607.91" y="1555.76" width="76.09" height="53.41"/><rect class="cls-3" x="607.91" y="1448.34" width="76.09" height="53.71"/><rect class="cls-7" x="607.91" y="1502.05" width="76.09" height="53.71"/><rect class="cls-3" x="684" y="1609.16" width="76.1" height="53.71"/><rect class="cls-3" x="684" y="1555.76" width="76.1" height="53.41"/><rect class="cls-7" x="684" y="1502.05" width="76.1" height="53.71"/><rect class="cls-3" x="684" y="1448.34" width="76.1" height="53.71"/><rect class="cls-3" x="303.95" y="1394.63" width="76.1" height="53.71"/><rect class="cls-3" x="380.05" y="1394.63" width="76.09" height="53.71"/><rect class="cls-6" x="456.14" y="1394.63" width="76.09" height="53.71"/><rect class="cls-6" x="532.24" y="1394.63" width="75.67" height="53.71"/><rect class="cls-7" x="607.91" y="1394.63" width="76.09" height="53.71"/><rect class="cls-3" x="760.1" y="1609.16" width="76.1" height="53.71"/><rect class="cls-3" x="760.1" y="1394.63" width="76.1" height="53.71"/><rect class="cls-3" x="684" y="1394.63" width="76.1" height="53.71"/><rect class="cls-3" x="760.1" y="1555.76" width="76.1" height="53.41"/><rect class="cls-7" x="760.1" y="1502.05" width="76.1" height="53.71"/><rect class="cls-3" x="760.1" y="1448.34" width="76.1" height="53.71"/><rect class="cls-2" x="684" y="1716.58" width="76.1" height="53.71"/><rect class="cls-7" x="456.14" y="1662.87" width="76.09" height="53.71"/><rect class="cls-2" x="607.91" y="1662.87" width="76.09" height="53.71"/><rect class="cls-7" x="532.24" y="1662.87" width="75.67" height="53.71"/><rect class="cls-3" x="684" y="1662.87" width="76.1" height="53.71"/><rect class="cls-7" x="760.1" y="1662.87" width="76.1" height="53.71"/><rect class="cls-3" x="380.05" y="1716.58" width="76.09" height="53.71"/><rect class="cls-3" x="227.86" y="1394.63" width="76.09" height="53.71"/><rect class="cls-2" x="227.86" y="1448.34" width="76.09" height="53.71"/><rect class="cls-3" x="227.86" y="1341.22" width="76.09" height="53.41"/><rect class="cls-2" x="227.86" y="1233.8" width="76.09" height="53.71"/><rect class="cls-2" x="227.86" y="1287.51" width="76.09" height="53.71"/><rect class="cls-7" x="303.95" y="1662.87" width="76.1" height="53.71"/><rect class="cls-7" x="303.95" y="1609.16" width="76.1" height="53.71"/><rect class="cls-3" x="303.95" y="1233.8" width="76.1" height="53.71"/><rect class="cls-6" x="303.95" y="1502.05" width="76.1" height="53.71"/><rect class="cls-3" x="303.95" y="1555.76" width="76.1" height="53.41"/><rect class="cls-2" x="303.95" y="1180.09" width="76.1" height="53.71"/><rect class="cls-3" x="303.95" y="1448.34" width="76.1" height="53.71"/><rect class="cls-3" x="380.05" y="1555.76" width="76.09" height="53.41"/><rect class="cls-7" x="380.05" y="1662.87" width="76.09" height="53.71"/><rect class="cls-3" x="380.05" y="1609.16" width="76.09" height="53.71"/><rect class="cls-3" x="380.05" y="1180.09" width="76.09" height="53.71"/><rect class="cls-3" x="380.05" y="1126.38" width="76.09" height="53.71"/><rect class="cls-2" x="380.05" y="1072.98" width="76.09" height="53.41"/><rect class="cls-5" x="836.19" y="1180.09" width="75.67" height="53.71"/><rect class="cls-5" x="836.19" y="1072.98" width="75.67" height="53.41"/><rect class="cls-5" x="836.19" y="1126.38" width="75.67" height="53.71"/><rect class="cls-5" x="760.1" y="1126.38" width="76.1" height="53.71"/><rect class="cls-5" x="760.1" y="1072.98" width="76.1" height="53.41"/><rect class="cls-5" x="760.1" y="1019.27" width="76.1" height="53.71"/><rect class="cls-5" x="227.86" y="1180.09" width="76.09" height="53.71"/><rect class="cls-5" x="227.86" y="1126.38" width="76.09" height="53.71"/><rect class="cls-5" x="227.86" y="1072.98" width="76.09" height="53.41"/><rect class="cls-5" x="303.95" y="1126.38" width="76.1" height="53.71"/><rect class="cls-5" x="303.95" y="1072.98" width="76.1" height="53.41"/><rect class="cls-5" x="303.95" y="1019.27" width="76.1" height="53.71"/><rect class="cls-1" x="684" y="1341.22" width="76.1" height="53.41"/><rect class="cls-1" x="684" y="1287.51" width="76.1" height="53.71"/><rect class="cls-1" x="380.05" y="1341.22" width="76.09" height="53.41"/><rect class="cls-1" x="380.05" y="1287.51" width="76.09" height="53.71"/><rect class="cls-1" x="456.14" y="1072.98" width="76.09" height="53.41"/><rect class="cls-1" x="532.24" y="1072.98" width="75.67" height="53.41"/><rect class="cls-1" x="607.91" y="1072.98" width="76.09" height="53.41"/><rect class="cls-1" x="684" y="1019.27" width="76.1" height="53.71"/><rect class="cls-1" x="380.05" y="1019.27" width="76.09" height="53.71"/><rect class="cls-1" x="303.95" y="965.56" width="76.1" height="53.71"/><rect class="cls-1" x="227.86" y="1019.27" width="76.09" height="53.71"/><rect class="cls-1" x="227.86" y="965.56" width="76.09" height="53.71"/><rect class="cls-1" x="760.1" y="965.56" width="76.1" height="53.71"/><rect class="cls-1" x="836.19" y="1019.27" width="75.67" height="53.71"/><rect class="cls-1" x="836.19" y="965.56" width="75.67" height="53.71"/><rect class="cls-1" x="911.86" y="1180.09" width="76.1" height="53.71"/><rect class="cls-1" x="911.86" y="1072.98" width="76.1" height="53.41"/><rect class="cls-1" x="911.86" y="1287.51" width="76.1" height="53.71"/><rect class="cls-1" x="911.86" y="1448.34" width="76.1" height="53.71"/><rect class="cls-1" x="911.86" y="1126.38" width="76.1" height="53.71"/><rect class="cls-1" x="911.86" y="1394.63" width="76.1" height="53.71"/><rect class="cls-1" x="911.86" y="1233.8" width="76.1" height="53.71"/><rect class="cls-1" x="911.86" y="1341.22" width="76.1" height="53.41"/><rect class="cls-1" x="152.19" y="1126.38" width="75.67" height="53.71"/><rect class="cls-1" x="152.19" y="1287.51" width="75.67" height="53.71"/><rect class="cls-1" x="152.19" y="1394.63" width="75.67" height="53.71"/><rect class="cls-1" x="152.19" y="1341.22" width="75.67" height="53.41"/><rect class="cls-1" x="152.19" y="1072.98" width="75.67" height="53.41"/><rect class="cls-1" x="152.19" y="1233.8" width="75.67" height="53.71"/><rect class="cls-1" x="152.19" y="1180.09" width="75.67" height="53.71"/><rect class="cls-1" x="152.19" y="1448.34" width="75.67" height="53.71"/><rect class="cls-1" x="227.86" y="1555.76" width="76.09" height="53.41"/><rect class="cls-1" x="227.86" y="1609.16" width="76.09" height="53.71"/><rect class="cls-1" x="227.86" y="1502.05" width="76.09" height="53.71"/><rect class="cls-1" x="227.86" y="1662.87" width="76.09" height="53.71"/><rect class="cls-1" x="836.19" y="1662.87" width="75.67" height="53.71"/><rect class="cls-1" x="836.19" y="1609.16" width="75.67" height="53.71"/><rect class="cls-1" x="836.19" y="1555.76" width="75.67" height="53.41"/><rect class="cls-1" x="836.19" y="1502.05" width="75.67" height="53.71"/><rect class="cls-1" x="760.1" y="1716.58" width="76.1" height="53.71"/><rect class="cls-1" x="684" y="1770.29" width="76.1" height="53.71"/><rect class="cls-1" x="456.14" y="1716.58" width="76.09" height="53.71"/><rect class="cls-1" x="532.24" y="1716.58" width="75.67" height="53.71"/><rect class="cls-1" x="607.91" y="1716.58" width="76.09" height="53.71"/><rect class="cls-1" x="380.05" y="1770.29" width="76.09" height="53.71"/><rect class="cls-1" x="303.95" y="1716.58" width="76.1" height="53.71"/><rect class="cls-1" x="1444.09" y="482.78" width="76.09" height="53.71"/><rect class="cls-1" x="1444.09" y="429.07" width="76.09" height="53.71"/><rect class="cls-1" x="1520.19" y="536.49" width="75.67" height="53.71"/><rect class="cls-2" x="1520.19" y="482.78" width="75.67" height="53.71"/><rect class="cls-2" x="1520.19" y="429.07" width="75.67" height="53.71"/><rect class="cls-1" x="1520.19" y="375.66" width="75.67" height="53.41"/><rect class="cls-1" x="1520.19" y="321.95" width="75.67" height="53.71"/><rect class="cls-1" x="1520.19" y="268.24" width="75.67" height="53.71"/><rect class="cls-1" x="1595.86" y="590.2" width="76.09" height="53.41"/><rect class="cls-3" x="1595.86" y="536.49" width="76.09" height="53.71"/><rect class="cls-2" x="1595.86" y="482.78" width="76.09" height="53.71"/><rect class="cls-3" x="1595.86" y="429.07" width="76.09" height="53.71"/><rect class="cls-3" x="1595.86" y="375.66" width="76.09" height="53.41"/><rect class="cls-3" x="1595.86" y="321.95" width="76.09" height="53.71"/><rect class="cls-3" x="1595.86" y="268.24" width="76.09" height="53.71"/><rect class="cls-1" x="1595.86" y="214.54" width="76.09" height="53.71"/><rect class="cls-1" x="1671.95" y="160.83" width="76.09" height="53.71"/><rect class="cls-1" x="1671.95" y="107.42" width="76.09" height="53.41"/><rect class="cls-1" x="1671.95" y="53.71" width="76.09" height="53.71"/><rect class="cls-1" x="1671.95" y="590.2" width="76.09" height="53.41"/><rect class="cls-3" x="1671.95" y="536.49" width="76.09" height="53.71"/><rect class="cls-3" x="1671.95" y="482.78" width="76.09" height="53.71"/><rect class="cls-3" x="1671.95" y="429.07" width="76.09" height="53.71"/><rect class="cls-1" x="1671.95" y="375.66" width="76.09" height="53.41"/><rect class="cls-1" x="1671.95" y="321.95" width="76.09" height="53.71"/><rect class="cls-3" x="1671.95" y="268.24" width="76.09" height="53.71"/><rect class="cls-3" x="1671.95" y="214.54" width="76.09" height="53.71"/><rect class="cls-5" x="1748.05" y="160.83" width="76.09" height="53.71"/><rect class="cls-5" x="1748.05" y="107.42" width="76.09" height="53.41"/><rect class="cls-5" x="1748.05" y="53.71" width="76.09" height="53.71"/><rect class="cls-1" x="1748.05" width="76.09" height="53.71"/><rect class="cls-1" x="1748.05" y="643.6" width="76.09" height="53.71"/><rect class="cls-4" x="1748.05" y="590.2" width="76.09" height="53.41"/><rect class="cls-3" x="1748.05" y="536.49" width="76.09" height="53.71"/><rect class="cls-3" x="1748.05" y="482.78" width="76.09" height="53.71"/><rect class="cls-3" x="1748.05" y="429.07" width="76.09" height="53.71"/><rect class="cls-3" x="1748.05" y="375.66" width="76.09" height="53.41"/><rect class="cls-3" x="1748.05" y="321.95" width="76.09" height="53.71"/><rect class="cls-3" x="1748.05" y="268.24" width="76.09" height="53.71"/><rect class="cls-3" x="1748.05" y="214.54" width="76.09" height="53.71"/><rect class="cls-6" x="1824.14" y="160.83" width="76.09" height="53.71"/><rect class="cls-3" x="1824.14" y="107.42" width="76.09" height="53.41"/><rect class="cls-3" x="1824.14" y="53.71" width="76.09" height="53.71"/><rect class="cls-1" x="1824.14" width="76.09" height="53.71"/><rect class="cls-1" x="1824.14" y="804.73" width="76.09" height="53.71"/><rect class="cls-1" x="1824.14" y="751.02" width="76.09" height="53.71"/><rect class="cls-1" x="1824.14" y="697.31" width="76.09" height="53.71"/><rect class="cls-3" x="1824.14" y="643.6" width="76.09" height="53.71"/><rect class="cls-6" x="1824.14" y="590.2" width="76.09" height="53.41"/><rect class="cls-3" x="1824.14" y="536.49" width="76.09" height="53.71"/><rect class="cls-3" x="1824.14" y="482.78" width="76.09" height="53.71"/><rect class="cls-3" x="1824.14" y="429.07" width="76.09" height="53.71"/><rect class="cls-3" x="1824.14" y="375.66" width="76.09" height="53.41"/><rect class="cls-3" x="1824.14" y="321.95" width="76.09" height="53.71"/><rect class="cls-3" x="1824.14" y="268.24" width="76.09" height="53.71"/><rect class="cls-4" x="1824.14" y="214.54" width="76.09" height="53.71"/><rect class="cls-3" x="1900.24" y="160.83" width="75.67" height="53.71"/><rect class="cls-3" x="1900.24" y="107.42" width="75.67" height="53.41"/><rect class="cls-1" x="1900.24" y="53.71" width="75.67" height="53.71"/><rect class="cls-1" x="1900.24" y="804.73" width="75.67" height="53.71"/><rect class="cls-3" x="1900.24" y="751.02" width="75.67" height="53.71"/><rect class="cls-7" x="1900.24" y="697.31" width="75.67" height="53.71"/><rect class="cls-3" x="1900.24" y="643.6" width="75.67" height="53.71"/><rect class="cls-4" x="1900.24" y="590.2" width="75.67" height="53.41"/><rect class="cls-3" x="1900.24" y="536.49" width="75.67" height="53.71"/><rect class="cls-3" x="1900.24" y="482.78" width="75.67" height="53.71"/><rect class="cls-3" x="1900.24" y="429.07" width="75.67" height="53.71"/><rect class="cls-3" x="1900.24" y="375.66" width="75.67" height="53.41"/><rect class="cls-3" x="1900.24" y="321.95" width="75.67" height="53.71"/><rect class="cls-3" x="1900.24" y="268.24" width="75.67" height="53.71"/><rect class="cls-3" x="1900.24" y="214.54" width="75.67" height="53.71"/><rect class="cls-2" x="1975.91" y="160.83" width="76.09" height="53.71"/><rect class="cls-1" x="1975.91" y="107.42" width="76.09" height="53.41"/><rect class="cls-1" x="1975.91" y="751.02" width="76.09" height="53.71"/><rect class="cls-7" x="1975.91" y="697.31" width="76.09" height="53.71"/><rect class="cls-3" x="1975.91" y="643.6" width="76.09" height="53.71"/><rect class="cls-3" x="1975.91" y="590.2" width="76.09" height="53.41"/><rect class="cls-4" x="1975.91" y="536.49" width="76.09" height="53.71"/><rect class="cls-3" x="1975.91" y="482.78" width="76.09" height="53.71"/><rect class="cls-3" x="1975.91" y="429.07" width="76.09" height="53.71"/><rect class="cls-2" x="1975.91" y="375.66" width="76.09" height="53.41"/><rect class="cls-3" x="1975.91" y="321.95" width="76.09" height="53.71"/><rect class="cls-3" x="1975.91" y="268.24" width="76.09" height="53.71"/><rect class="cls-3" x="1975.91" y="214.54" width="76.09" height="53.71"/><rect class="cls-1" x="2052" y="160.83" width="76.09" height="53.71"/><rect class="cls-1" x="2052" y="751.02" width="76.09" height="53.71"/><rect class="cls-3" x="2052" y="697.31" width="76.09" height="53.71"/><rect class="cls-3" x="2052" y="643.6" width="76.09" height="53.71"/><rect class="cls-3" x="2052" y="590.2" width="76.09" height="53.41"/><rect class="cls-3" x="2052" y="536.49" width="76.09" height="53.71"/><rect class="cls-4" x="2052" y="482.78" width="76.09" height="53.71"/><rect class="cls-3" x="2052" y="429.07" width="76.09" height="53.71"/><rect class="cls-3" x="2052" y="375.66" width="76.09" height="53.41"/><rect class="cls-2" x="2052" y="321.95" width="76.09" height="53.71"/><rect class="cls-2" x="2052" y="268.24" width="76.09" height="53.71"/><rect class="cls-1" x="2052" y="214.54" width="76.09" height="53.71"/><rect class="cls-1" x="2128.09" y="751.02" width="76.09" height="53.71"/><rect class="cls-3" x="2128.09" y="697.31" width="76.09" height="53.71"/><rect class="cls-3" x="2128.09" y="643.6" width="76.09" height="53.71"/><rect class="cls-3" x="2128.09" y="590.2" width="76.09" height="53.41"/><rect class="cls-3" x="2128.09" y="536.49" width="76.09" height="53.71"/><rect class="cls-3" x="2128.09" y="482.78" width="76.09" height="53.71"/><rect class="cls-7" x="2128.09" y="429.07" width="76.09" height="53.71"/><rect class="cls-7" x="2128.09" y="375.66" width="76.09" height="53.41"/><rect class="cls-1" x="2128.09" y="321.95" width="76.09" height="53.71"/><rect class="cls-1" x="2128.09" y="268.24" width="76.09" height="53.71"/><rect class="cls-1" x="2204.19" y="751.02" width="75.67" height="53.71"/><rect class="cls-3" x="2204.19" y="697.31" width="75.67" height="53.71"/><rect class="cls-3" x="2204.19" y="643.6" width="75.67" height="53.71"/><rect class="cls-3" x="2204.19" y="590.2" width="75.67" height="53.41"/><rect class="cls-3" x="2204.19" y="536.49" width="75.67" height="53.71"/><rect class="cls-3" x="2204.19" y="482.78" width="75.67" height="53.71"/><rect class="cls-1" x="2204.19" y="429.07" width="75.67" height="53.71"/><rect class="cls-1" x="2204.19" y="375.66" width="75.67" height="53.41"/><rect class="cls-1" x="2279.86" y="804.73" width="76.09" height="53.71"/><rect class="cls-1" x="2279.86" y="751.02" width="76.09" height="53.71"/><rect class="cls-3" x="2279.86" y="697.31" width="76.09" height="53.71"/><rect class="cls-3" x="2279.86" y="643.6" width="76.09" height="53.71"/><rect class="cls-3" x="2279.86" y="590.2" width="76.09" height="53.41"/><rect class="cls-3" x="2279.86" y="536.49" width="76.09" height="53.71"/><rect class="cls-2" x="2279.86" y="482.78" width="76.09" height="53.71"/><rect class="cls-1" x="2279.86" y="429.07" width="76.09" height="53.71"/><rect class="cls-1" x="2355.95" y="804.73" width="76.09" height="53.71"/><rect class="cls-2" x="2355.95" y="751.02" width="76.09" height="53.71"/><rect class="cls-6" x="2355.95" y="697.31" width="76.09" height="53.71"/><rect class="cls-3" x="2355.95" y="643.6" width="76.09" height="53.71"/><rect class="cls-3" x="2355.95" y="590.2" width="76.09" height="53.41"/><rect class="cls-3" x="2355.95" y="536.49" width="76.09" height="53.71"/><rect class="cls-2" x="2355.95" y="482.78" width="76.09" height="53.71"/><rect class="cls-1" x="2355.95" y="429.07" width="76.09" height="53.71"/><rect class="cls-1" x="2432.05" y="751.02" width="76.09" height="53.71"/><rect class="cls-6" x="2432.05" y="697.31" width="76.09" height="53.71"/><rect class="cls-6" x="2432.05" y="643.6" width="76.09" height="53.71"/><rect class="cls-3" x="2432.05" y="590.2" width="76.09" height="53.41"/><rect class="cls-7" x="2432.05" y="536.49" width="76.09" height="53.71"/><rect class="cls-1" x="2432.05" y="482.78" width="76.09" height="53.71"/><rect class="cls-1" x="2508.14" y="697.31" width="76.09" height="53.71"/><rect class="cls-1" x="2508.14" y="643.6" width="76.09" height="53.71"/><rect class="cls-6" x="2508.14" y="590.2" width="76.09" height="53.41"/><rect class="cls-7" x="2508.14" y="536.49" width="76.09" height="53.71"/><rect class="cls-1" x="2508.14" y="482.78" width="76.09" height="53.71"/><rect class="cls-1" x="2584.24" y="590.2" width="75.67" height="53.41"/><rect class="cls-3" x="2584.24" y="536.49" width="75.67" height="53.71"/><rect class="cls-3" x="2584.24" y="482.78" width="75.67" height="53.71"/><rect class="cls-1" x="2584.24" y="429.07" width="75.67" height="53.71"/><rect class="cls-1" x="2659.91" y="536.49" width="76.09" height="53.71"/><rect class="cls-1" x="2659.91" y="482.78" width="76.09" height="53.71"/><rect class="cls-1" x="2659.91" y="429.07" width="76.09" height="53.71"/></svg>