<svg id="Capa_1" data-name="Capa 1" xmlns="http://www.w3.org/2000/svg" viewBox="0 0 2736 1824"><defs><style>.cls-1{fill:#ef9d54;}.cls-2{fill:#1b1b1b;}.cls-3{fill:#a6662e;}.cls-4{fill:#d5833b;}.cls-5{fill:#e52828;}.cls-6{fill:#ed9241;}.cls-7{fill:#dd7676;}.cls-8{fill:#562222;}.cls-9{fill:#774921;}.cls-10{fill:#472c13;}.cls-11{fill:#be7534;}.cls-12{fill:#872929;}.cls-13{fill:#8e5827;}.cls-14{fill:#5f3a1a;}</style></defs><rect class="cls-1" x="607.91" y="994.85" width="76.09" height="55.34"/><rect class="cls-2" x="1215.81" y="497.43" width="76.1" height="55.34"/><rect class="cls-2" x="1215.81" y="442.09" width="76.1" height="55.34"/><rect class="cls-2" x="1215.81" y="386.75" width="76.1" height="55.34"/><rect class="cls-2" x="1140.14" y="552.76" width="75.67" height="55.34"/><rect class="cls-1" x="1140.14" y="497.43" width="75.67" height="55.34"/><rect class="cls-1" x="1140.14" y="442.09" width="75.67" height="55.34"/><rect class="cls-3" x="1140.14" y="386.75" width="75.67" height="55.34"/><rect class="cls-2" x="1140.14" y="331.72" width="75.67" height="55.03"/><rect class="cls-2" x="1140.14" y="276.38" width="75.67" height="55.34"/><rect class="cls-2" x="1064.05" y="718.47" width="76.1" height="55.34"/><rect class="cls-2" x="1064.05" y="663.13" width="76.1" height="55.34"/><rect class="cls-2" x="1064.05" y="608.1" width="76.1" height="55.03"/><rect class="cls-1" x="1064.05" y="552.76" width="76.1" height="55.34"/><rect class="cls-3" x="1064.05" y="497.43" width="76.1" height="55.34"/><rect class="cls-1" x="1064.05" y="442.09" width="76.1" height="55.34"/><rect class="cls-1" x="1064.05" y="386.75" width="76.1" height="55.34"/><rect class="cls-1" x="1064.05" y="331.72" width="76.1" height="55.03"/><rect class="cls-1" x="1064.05" y="276.38" width="76.1" height="55.34"/><rect class="cls-2" x="1064.05" y="221.04" width="76.1" height="55.34"/><rect class="cls-2" x="1064.05" y="165.71" width="76.1" height="55.34"/><rect class="cls-2" x="1064.05" y="110.68" width="76.1" height="55.03"/><rect class="cls-2" x="987.95" y="1657.98" width="76.1" height="55.34"/><rect class="cls-2" x="987.95" y="1602.96" width="76.1" height="55.03"/><rect class="cls-2" x="987.95" y="1547.62" width="76.1" height="55.34"/><rect class="cls-2" x="987.95" y="1492.28" width="76.1" height="55.34"/><rect class="cls-2" x="987.95" y="1436.94" width="76.1" height="55.34"/><rect class="cls-2" x="987.95" y="1381.6" width="76.1" height="55.34"/><rect class="cls-2" x="987.95" y="1326.57" width="76.1" height="55.03"/><rect class="cls-2" x="987.95" y="1271.24" width="76.1" height="55.34"/><rect class="cls-2" x="987.95" y="1215.9" width="76.1" height="55.34"/><rect class="cls-2" x="987.95" y="1160.56" width="76.1" height="55.34"/><rect class="cls-2" x="987.95" y="1105.53" width="76.1" height="55.03"/><rect class="cls-2" x="987.95" y="773.81" width="76.1" height="55.34"/><rect class="cls-3" x="987.95" y="718.47" width="76.1" height="55.34"/><rect class="cls-1" x="987.95" y="663.13" width="76.1" height="55.34"/><rect class="cls-4" x="987.95" y="608.1" width="76.1" height="55.03"/><rect class="cls-1" x="987.95" y="552.76" width="76.1" height="55.34"/><rect class="cls-1" x="987.95" y="497.43" width="76.1" height="55.34"/><rect class="cls-1" x="987.95" y="442.09" width="76.1" height="55.34"/><rect class="cls-2" x="987.95" y="386.75" width="76.1" height="55.34"/><rect class="cls-2" x="987.95" y="331.72" width="76.1" height="55.03"/><rect class="cls-1" x="987.95" y="276.38" width="76.1" height="55.34"/><rect class="cls-1" x="987.95" y="221.04" width="76.1" height="55.34"/><rect class="cls-2" x="987.95" y="165.71" width="76.1" height="55.34"/><rect class="cls-5" x="987.95" y="110.68" width="76.1" height="55.03"/><rect class="cls-2" x="987.95" y="55.34" width="76.1" height="55.34"/><rect class="cls-2" x="987.95" width="76.1" height="55.34"/><rect class="cls-2" x="911.86" y="1713.32" width="76.1" height="55.34"/><rect class="cls-1" x="911.86" y="1657.98" width="76.1" height="55.34"/><rect class="cls-1" x="911.86" y="1602.96" width="76.1" height="55.03"/><rect class="cls-1" x="911.86" y="1547.62" width="76.1" height="55.34"/><rect class="cls-1" x="911.86" y="1492.28" width="76.1" height="55.34"/><rect class="cls-1" x="911.86" y="1436.94" width="76.1" height="55.34"/><rect class="cls-1" x="911.86" y="1381.6" width="76.1" height="55.34"/><rect class="cls-1" x="911.86" y="1326.57" width="76.1" height="55.03"/><rect class="cls-1" x="911.86" y="1271.24" width="76.1" height="55.34"/><rect class="cls-1" x="911.86" y="1215.9" width="76.1" height="55.34"/><rect class="cls-1" x="911.86" y="1160.56" width="76.1" height="55.34"/><rect class="cls-1" x="911.86" y="1105.53" width="76.1" height="55.03"/><rect class="cls-2" x="911.86" y="1050.19" width="76.1" height="55.34"/><rect class="cls-2" x="911.86" y="829.15" width="76.1" height="55.03"/><rect class="cls-1" x="911.86" y="773.81" width="76.1" height="55.34"/><rect class="cls-1" x="911.86" y="718.47" width="76.1" height="55.34"/><rect class="cls-1" x="911.86" y="663.13" width="76.1" height="55.34"/><rect class="cls-4" x="911.86" y="608.1" width="76.1" height="55.03"/><rect class="cls-1" x="911.86" y="552.76" width="76.1" height="55.34"/><rect class="cls-1" x="911.86" y="497.43" width="76.1" height="55.34"/><rect class="cls-1" x="911.86" y="442.09" width="76.1" height="55.34"/><rect class="cls-1" x="911.86" y="386.75" width="76.1" height="55.34"/><rect class="cls-1" x="911.86" y="331.72" width="76.1" height="55.03"/><rect class="cls-1" x="911.86" y="276.38" width="76.1" height="55.34"/><rect class="cls-1" x="911.86" y="221.04" width="76.1" height="55.34"/><rect class="cls-2" x="911.86" y="165.71" width="76.1" height="55.34"/><rect class="cls-2" x="911.86" y="110.68" width="76.1" height="55.03"/><rect class="cls-1" x="911.86" y="55.34" width="76.1" height="55.34"/><rect class="cls-2" x="911.86" width="76.1" height="55.34"/><rect class="cls-2" x="836.19" y="1768.66" width="75.67" height="55.34"/><rect class="cls-1" x="836.19" y="1713.32" width="75.67" height="55.34"/><rect class="cls-1" x="836.19" y="1657.98" width="75.67" height="55.34"/><rect class="cls-1" x="836.19" y="1602.96" width="75.67" height="55.03"/><rect class="cls-1" x="836.19" y="1547.62" width="75.67" height="55.34"/><rect class="cls-1" x="836.19" y="1492.28" width="75.67" height="55.34"/><rect class="cls-1" x="836.19" y="1436.94" width="75.67" height="55.34"/><rect class="cls-1" x="836.19" y="1381.6" width="75.67" height="55.34"/><rect class="cls-1" x="836.19" y="1326.57" width="75.67" height="55.03"/><rect class="cls-1" x="836.19" y="1271.24" width="75.67" height="55.34"/><rect class="cls-1" x="836.19" y="1215.9" width="75.67" height="55.34"/><rect class="cls-1" x="836.19" y="1160.56" width="75.67" height="55.34"/><rect class="cls-2" x="836.19" y="1105.53" width="75.67" height="55.03"/><rect class="cls-2" x="836.19" y="829.15" width="75.67" height="55.03"/><rect class="cls-3" x="836.19" y="773.81" width="75.67" height="55.34"/><rect class="cls-3" x="836.19" y="718.47" width="75.67" height="55.34"/><rect class="cls-1" x="836.19" y="663.13" width="75.67" height="55.34"/><rect class="cls-6" x="836.19" y="608.1" width="75.67" height="55.03"/><rect class="cls-4" x="836.19" y="552.76" width="75.67" height="55.34"/><rect class="cls-1" x="836.19" y="497.43" width="75.67" height="55.34"/><rect class="cls-1" x="836.19" y="442.09" width="75.67" height="55.34"/><rect class="cls-1" x="836.19" y="386.75" width="75.67" height="55.34"/><rect class="cls-1" x="836.19" y="331.72" width="75.67" height="55.03"/><rect class="cls-1" x="836.19" y="276.38" width="75.67" height="55.34"/><rect class="cls-7" x="836.19" y="221.04" width="75.67" height="55.34"/><rect class="cls-7" x="836.19" y="165.71" width="75.67" height="55.34"/><rect class="cls-7" x="836.19" y="110.68" width="75.67" height="55.03"/><rect class="cls-2" x="836.19" y="55.34" width="75.67" height="55.34"/><rect class="cls-2" x="836.19" width="75.67" height="55.34"/><rect class="cls-2" x="760.1" y="1768.66" width="76.1" height="55.34"/><rect class="cls-1" x="760.1" y="1713.32" width="76.1" height="55.34"/><rect class="cls-1" x="760.1" y="1657.98" width="76.1" height="55.34"/><rect class="cls-1" x="760.1" y="1602.96" width="76.1" height="55.03"/><rect class="cls-1" x="760.1" y="1547.62" width="76.1" height="55.34"/><rect class="cls-1" x="760.1" y="1492.28" width="76.1" height="55.34"/><rect class="cls-1" x="760.1" y="1436.94" width="76.1" height="55.34"/><rect class="cls-1" x="760.1" y="1381.6" width="76.1" height="55.34"/><rect class="cls-2" x="760.1" y="1326.57" width="76.1" height="55.03"/><rect class="cls-2" x="760.1" y="1271.24" width="76.1" height="55.34"/><rect class="cls-1" x="760.1" y="1215.9" width="76.1" height="55.34"/><rect class="cls-1" x="760.1" y="1160.56" width="76.1" height="55.34"/><rect class="cls-2" x="760.1" y="1105.53" width="76.1" height="55.03"/><rect class="cls-2" x="760.1" y="1050.19" width="76.1" height="55.34"/><rect class="cls-2" x="760.1" y="994.85" width="76.1" height="55.34"/><rect class="cls-2" x="760.1" y="773.81" width="76.1" height="55.34"/><rect class="cls-1" x="760.1" y="718.47" width="76.1" height="55.34"/><rect class="cls-1" x="760.1" y="663.13" width="76.1" height="55.34"/><rect class="cls-1" x="760.1" y="608.1" width="76.1" height="55.03"/><rect class="cls-4" x="760.1" y="552.76" width="76.1" height="55.34"/><rect class="cls-4" x="760.1" y="497.43" width="76.1" height="55.34"/><rect class="cls-1" x="760.1" y="442.09" width="76.1" height="55.34"/><rect class="cls-1" x="760.1" y="386.75" width="76.1" height="55.34"/><rect class="cls-1" x="760.1" y="331.72" width="76.1" height="55.03"/><rect class="cls-1" x="760.1" y="276.38" width="76.1" height="55.34"/><rect class="cls-1" x="760.1" y="221.04" width="76.1" height="55.34"/><rect class="cls-1" x="760.1" y="165.71" width="76.1" height="55.34"/><rect class="cls-2" x="760.1" y="110.68" width="76.1" height="55.03"/><rect class="cls-2" x="684" y="1713.32" width="76.1" height="55.34"/><rect class="cls-1" x="684" y="1657.98" width="76.1" height="55.34"/><rect class="cls-1" x="684" y="1602.96" width="76.1" height="55.03"/><rect class="cls-1" x="684" y="1547.62" width="76.1" height="55.34"/><rect class="cls-1" x="684" y="1492.28" width="76.1" height="55.34"/><rect class="cls-1" x="684" y="1436.94" width="76.1" height="55.34"/><rect class="cls-1" x="684" y="1381.6" width="76.1" height="55.34"/><rect class="cls-1" x="684" y="1326.57" width="76.1" height="55.03"/><rect class="cls-1" x="684" y="1271.24" width="76.1" height="55.34"/><rect class="cls-1" x="684" y="1215.9" width="76.1" height="55.34"/><rect class="cls-1" x="684" y="1160.56" width="76.1" height="55.34"/><rect class="cls-8" x="684" y="1105.53" width="76.1" height="55.03"/><rect class="cls-5" x="684" y="1050.19" width="76.1" height="55.34"/><rect class="cls-8" x="684" y="994.85" width="76.1" height="55.34"/><rect class="cls-2" x="684" y="939.51" width="76.1" height="55.34"/><rect class="cls-2" x="684" y="773.81" width="76.1" height="55.34"/><rect class="cls-3" x="684" y="718.47" width="76.1" height="55.34"/><rect class="cls-1" x="684" y="663.13" width="76.1" height="55.34"/><rect class="cls-1" x="684" y="608.1" width="76.1" height="55.03"/><rect class="cls-1" x="684" y="552.76" width="76.1" height="55.34"/><rect class="cls-1" x="684" y="497.43" width="76.1" height="55.34"/><rect class="cls-1" x="684" y="442.09" width="76.1" height="55.34"/><rect class="cls-1" x="684" y="386.75" width="76.1" height="55.34"/><rect class="cls-1" x="684" y="331.72" width="76.1" height="55.03"/><rect class="cls-1" x="684" y="276.38" width="76.1" height="55.34"/><rect class="cls-4" x="684" y="221.04" width="76.1" height="55.34"/><rect class="cls-2" x="684" y="165.71" width="76.1" height="55.34"/><rect class="cls-2" x="607.91" y="1713.32" width="76.09" height="55.34"/><rect class="cls-1" x="607.91" y="1657.98" width="76.09" height="55.34"/><rect class="cls-1" x="607.91" y="1602.96" width="76.09" height="55.03"/><rect class="cls-1" x="607.91" y="1547.62" width="76.09" height="55.34"/><rect class="cls-1" x="607.91" y="1492.28" width="76.09" height="55.34"/><rect class="cls-1" x="607.91" y="1436.94" width="76.09" height="55.34"/><rect class="cls-1" x="607.91" y="1381.6" width="76.09" height="55.34"/><rect class="cls-1" x="607.91" y="1326.57" width="76.09" height="55.03"/><rect class="cls-1" x="607.91" y="1271.24" width="76.09" height="55.34"/><rect class="cls-1" x="607.91" y="1215.9" width="76.09" height="55.34"/><rect class="cls-1" x="607.91" y="1160.56" width="76.09" height="55.34"/><rect class="cls-1" x="607.91" y="1105.53" width="76.09" height="55.03"/><rect class="cls-2" x="607.91" y="1050.19" width="76.09" height="55.34"/><rect class="cls-2" x="607.91" y="939.51" width="76.09" height="55.34"/><rect class="cls-2" x="607.91" y="773.81" width="76.09" height="55.34"/><rect class="cls-1" x="607.91" y="718.47" width="76.09" height="55.34"/><rect class="cls-1" x="607.91" y="663.13" width="76.09" height="55.34"/><rect class="cls-1" x="607.91" y="608.1" width="76.09" height="55.03"/><rect class="cls-1" x="607.91" y="552.76" width="76.09" height="55.34"/><rect class="cls-9" x="607.91" y="497.43" width="76.09" height="55.34"/><rect class="cls-9" x="607.91" y="442.09" width="76.09" height="55.34"/><rect class="cls-9" x="607.91" y="386.75" width="76.09" height="55.34"/><rect class="cls-9" x="607.91" y="331.72" width="76.09" height="55.03"/><rect class="cls-9" x="607.91" y="276.38" width="76.09" height="55.34"/><rect class="cls-2" x="607.91" y="221.04" width="76.09" height="55.34"/><rect class="cls-2" x="531.81" y="1713.32" width="76.09" height="55.34"/><rect class="cls-1" x="531.81" y="1657.98" width="76.09" height="55.34"/><rect class="cls-1" x="531.81" y="1602.96" width="76.09" height="55.03"/><rect class="cls-1" x="531.81" y="1547.62" width="76.09" height="55.34"/><rect class="cls-1" x="531.81" y="1492.28" width="76.09" height="55.34"/><rect class="cls-1" x="531.81" y="1436.94" width="76.09" height="55.34"/><rect class="cls-1" x="531.81" y="1381.6" width="76.09" height="55.34"/><rect class="cls-1" x="531.81" y="1326.57" width="76.09" height="55.03"/><rect class="cls-1" x="531.81" y="1271.24" width="76.09" height="55.34"/><rect class="cls-1" x="531.81" y="1215.9" width="76.09" height="55.34"/><rect class="cls-1" x="531.81" y="1160.56" width="76.09" height="55.34"/><rect class="cls-8" x="531.81" y="1105.53" width="76.09" height="55.03"/><rect class="cls-5" x="531.81" y="1050.19" width="76.09" height="55.34"/><rect class="cls-8" x="531.81" y="994.85" width="76.09" height="55.34"/><rect class="cls-2" x="531.81" y="939.51" width="76.09" height="55.34"/><rect class="cls-2" x="531.81" y="773.81" width="76.09" height="55.34"/><rect class="cls-3" x="531.81" y="718.47" width="76.09" height="55.34"/><rect class="cls-1" x="531.81" y="663.13" width="76.09" height="55.34"/><rect class="cls-1" x="531.81" y="608.1" width="76.09" height="55.03"/><rect class="cls-1" x="531.81" y="552.76" width="76.09" height="55.34"/><rect class="cls-9" x="531.81" y="497.43" width="76.09" height="55.34"/><rect class="cls-9" x="531.81" y="442.09" width="76.09" height="55.34"/><rect class="cls-10" x="531.81" y="386.75" width="76.09" height="55.34"/><rect class="cls-10" x="531.81" y="331.72" width="76.09" height="55.03"/><rect class="cls-2" x="531.81" y="276.38" width="76.09" height="55.34"/><rect class="cls-2" x="456.14" y="1768.66" width="75.67" height="55.34"/><rect class="cls-1" x="456.14" y="1713.32" width="75.67" height="55.34"/><rect class="cls-1" x="456.14" y="1657.98" width="75.67" height="55.34"/><rect class="cls-1" x="456.14" y="1602.96" width="75.67" height="55.03"/><rect class="cls-1" x="456.14" y="1547.62" width="75.67" height="55.34"/><rect class="cls-1" x="456.14" y="1492.28" width="75.67" height="55.34"/><rect class="cls-1" x="456.14" y="1436.94" width="75.67" height="55.34"/><rect class="cls-1" x="456.14" y="1381.6" width="75.67" height="55.34"/><rect class="cls-2" x="456.14" y="1326.57" width="75.67" height="55.03"/><rect class="cls-2" x="456.14" y="1271.24" width="75.67" height="55.34"/><rect class="cls-1" x="456.14" y="1215.9" width="75.67" height="55.34"/><rect class="cls-1" x="456.14" y="1160.56" width="75.67" height="55.34"/><rect class="cls-2" x="456.14" y="1105.53" width="75.67" height="55.03"/><rect class="cls-2" x="456.14" y="1050.19" width="75.67" height="55.34"/><rect class="cls-2" x="456.14" y="994.85" width="75.67" height="55.34"/><rect class="cls-2" x="456.14" y="773.81" width="75.67" height="55.34"/><rect class="cls-4" x="456.14" y="718.47" width="75.67" height="55.34"/><rect class="cls-1" x="456.14" y="663.13" width="75.67" height="55.34"/><rect class="cls-1" x="456.14" y="608.1" width="75.67" height="55.03"/><rect class="cls-9" x="456.14" y="552.76" width="75.67" height="55.34"/><rect class="cls-10" x="456.14" y="497.43" width="75.67" height="55.34"/><rect class="cls-10" x="456.14" y="442.09" width="75.67" height="55.34"/><rect class="cls-2" x="456.14" y="386.75" width="75.67" height="55.34"/><rect class="cls-2" x="456.14" y="331.72" width="75.67" height="55.03"/><rect class="cls-2" x="380.05" y="1768.66" width="76.09" height="55.34"/><rect class="cls-1" x="380.05" y="1713.32" width="76.09" height="55.34"/><rect class="cls-1" x="380.05" y="1657.98" width="76.09" height="55.34"/><rect class="cls-1" x="380.05" y="1602.96" width="76.09" height="55.03"/><rect class="cls-1" x="380.05" y="1547.62" width="76.09" height="55.34"/><rect class="cls-1" x="380.05" y="1492.28" width="76.09" height="55.34"/><rect class="cls-1" x="380.05" y="1436.94" width="76.09" height="55.34"/><rect class="cls-1" x="380.05" y="1381.6" width="76.09" height="55.34"/><rect class="cls-1" x="380.05" y="1326.57" width="76.09" height="55.03"/><rect class="cls-1" x="380.05" y="1271.24" width="76.09" height="55.34"/><rect class="cls-1" x="380.05" y="1215.9" width="76.09" height="55.34"/><rect class="cls-1" x="380.05" y="1160.56" width="76.09" height="55.34"/><rect class="cls-2" x="380.05" y="1105.53" width="76.09" height="55.03"/><rect class="cls-2" x="380.05" y="829.15" width="76.09" height="55.03"/><rect class="cls-11" x="380.05" y="773.81" width="76.09" height="55.34"/><rect class="cls-3" x="380.05" y="718.47" width="76.09" height="55.34"/><rect class="cls-1" x="380.05" y="663.13" width="76.09" height="55.34"/><rect class="cls-1" x="380.05" y="608.1" width="76.09" height="55.03"/><rect class="cls-1" x="380.05" y="552.76" width="76.09" height="55.34"/><rect class="cls-10" x="380.05" y="497.43" width="76.09" height="55.34"/><rect class="cls-10" x="380.05" y="442.09" width="76.09" height="55.34"/><rect class="cls-2" x="380.05" y="386.75" width="76.09" height="55.34"/><rect class="cls-2" x="303.95" y="1713.32" width="76.1" height="55.34"/><rect class="cls-1" x="303.95" y="1657.98" width="76.1" height="55.34"/><rect class="cls-1" x="303.95" y="1602.96" width="76.1" height="55.03"/><rect class="cls-1" x="303.95" y="1547.62" width="76.1" height="55.34"/><rect class="cls-1" x="303.95" y="1492.28" width="76.1" height="55.34"/><rect class="cls-1" x="303.95" y="1436.94" width="76.1" height="55.34"/><rect class="cls-1" x="303.95" y="1381.6" width="76.1" height="55.34"/><rect class="cls-1" x="303.95" y="1326.57" width="76.1" height="55.03"/><rect class="cls-1" x="303.95" y="1271.24" width="76.1" height="55.34"/><rect class="cls-1" x="303.95" y="1215.9" width="76.1" height="55.34"/><rect class="cls-1" x="303.95" y="1160.56" width="76.1" height="55.34"/><rect class="cls-1" x="303.95" y="1105.53" width="76.1" height="55.03"/><rect class="cls-2" x="303.95" y="1050.19" width="76.1" height="55.34"/><rect class="cls-2" x="303.95" y="829.15" width="76.1" height="55.03"/><rect class="cls-11" x="303.95" y="773.81" width="76.1" height="55.34"/><rect class="cls-4" x="303.95" y="718.47" width="76.1" height="55.34"/><rect class="cls-1" x="303.95" y="663.13" width="76.1" height="55.34"/><rect class="cls-1" x="303.95" y="608.1" width="76.1" height="55.03"/><rect class="cls-10" x="303.95" y="552.76" width="76.1" height="55.34"/><rect class="cls-10" x="303.95" y="497.43" width="76.1" height="55.34"/><rect class="cls-10" x="303.95" y="442.09" width="76.1" height="55.34"/><rect class="cls-2" x="303.95" y="386.75" width="76.1" height="55.34"/><rect class="cls-2" x="227.86" y="1657.98" width="76.09" height="55.34"/><rect class="cls-2" x="227.86" y="1602.96" width="76.09" height="55.03"/><rect class="cls-2" x="227.86" y="1547.62" width="76.09" height="55.34"/><rect class="cls-2" x="227.86" y="1492.28" width="76.09" height="55.34"/><rect class="cls-2" x="227.86" y="1436.94" width="76.09" height="55.34"/><rect class="cls-2" x="227.86" y="1381.6" width="76.09" height="55.34"/><rect class="cls-2" x="227.86" y="1326.57" width="76.09" height="55.03"/><rect class="cls-2" x="227.86" y="1271.24" width="76.09" height="55.34"/><rect class="cls-2" x="227.86" y="1215.9" width="76.09" height="55.34"/><rect class="cls-2" x="227.86" y="1160.56" width="76.09" height="55.34"/><rect class="cls-2" x="227.86" y="1105.53" width="76.09" height="55.03"/><rect class="cls-2" x="227.86" y="773.81" width="76.09" height="55.34"/><rect class="cls-3" x="227.86" y="718.47" width="76.09" height="55.34"/><rect class="cls-4" x="227.86" y="663.13" width="76.09" height="55.34"/><rect class="cls-1" x="227.86" y="608.1" width="76.09" height="55.03"/><rect class="cls-1" x="227.86" y="552.76" width="76.09" height="55.34"/><rect class="cls-10" x="227.86" y="497.43" width="76.09" height="55.34"/><rect class="cls-2" x="227.86" y="442.09" width="76.09" height="55.34"/><rect class="cls-2" x="152.19" y="718.47" width="75.67" height="55.34"/><rect class="cls-2" x="152.19" y="663.13" width="75.67" height="55.34"/><rect class="cls-4" x="152.19" y="608.1" width="75.67" height="55.03"/><rect class="cls-1" x="152.19" y="552.76" width="75.67" height="55.34"/><rect class="cls-2" x="152.19" y="497.43" width="75.67" height="55.34"/><rect class="cls-2" x="152.19" y="442.09" width="75.67" height="55.34"/><rect class="cls-2" x="76.09" y="608.1" width="76.09" height="55.03"/><rect class="cls-2" x="76.09" y="552.76" width="76.09" height="55.34"/><rect class="cls-1" x="76.09" y="497.43" width="76.09" height="55.34"/><rect class="cls-2" x="76.09" y="442.09" width="76.09" height="55.34"/><rect class="cls-2" y="497.43" width="76.09" height="55.34"/><rect class="cls-2" y="442.09" width="76.09" height="55.34"/><rect class="cls-7" x="911.86" y="1105.53" width="76.1" height="55.03"/><rect class="cls-7" x="911.86" y="1160.56" width="76.1" height="55.34"/><rect class="cls-7" x="303.95" y="1160.56" width="76.1" height="55.34"/><rect class="cls-7" x="303.95" y="1105.53" width="76.1" height="55.03"/><rect class="cls-6" x="303.95" y="1547.62" width="76.1" height="55.34"/><rect class="cls-6" x="303.95" y="1492.28" width="76.1" height="55.34"/><rect class="cls-4" x="303.95" y="1436.94" width="76.1" height="55.34"/><rect class="cls-4" x="303.95" y="1215.9" width="76.1" height="55.34"/><rect class="cls-4" x="380.05" y="1492.28" width="76.09" height="55.34"/><rect class="cls-4" x="380.05" y="1160.56" width="76.09" height="55.34"/><rect class="cls-4" x="456.14" y="1492.28" width="76.09" height="55.34"/><rect class="cls-6" x="456.14" y="1160.56" width="76.09" height="55.34"/><rect class="cls-6" x="532.24" y="1492.28" width="75.67" height="55.34"/><rect class="cls-11" x="532.24" y="1381.91" width="75.67" height="55.03"/><rect class="cls-6" x="607.91" y="1492.28" width="76.09" height="55.34"/><rect class="cls-4" x="607.91" y="1381.91" width="76.09" height="55.03"/><rect class="cls-12" x="607.91" y="1326.57" width="76.09" height="55.34"/><rect class="cls-6" x="684" y="1492.28" width="76.1" height="55.34"/><rect class="cls-11" x="684" y="1381.91" width="76.1" height="55.03"/><rect class="cls-6" x="760.1" y="1492.28" width="76.1" height="55.34"/><rect class="cls-6" x="760.1" y="1160.56" width="76.1" height="55.34"/><rect class="cls-6" x="836.19" y="1492.28" width="75.67" height="55.34"/><rect class="cls-4" x="836.19" y="1160.56" width="75.67" height="55.34"/><rect class="cls-6" x="911.86" y="1547.62" width="76.1" height="55.34"/><rect class="cls-6" x="911.86" y="1492.28" width="76.1" height="55.34"/><rect class="cls-4" x="911.86" y="1436.94" width="76.1" height="55.34"/><rect class="cls-4" x="911.86" y="1215.9" width="76.1" height="55.34"/><rect class="cls-2" x="1444.09" y="497.43" width="76.09" height="55.34"/><rect class="cls-2" x="1444.09" y="442.09" width="76.09" height="55.34"/><rect class="cls-2" x="1444.09" y="387.06" width="76.09" height="55.03"/><rect class="cls-2" x="1520.19" y="552.76" width="75.67" height="55.34"/><rect class="cls-1" x="1520.19" y="497.43" width="75.67" height="55.34"/><rect class="cls-1" x="1520.19" y="442.09" width="75.67" height="55.34"/><rect class="cls-3" x="1520.19" y="387.06" width="75.67" height="55.03"/><rect class="cls-2" x="1520.19" y="331.72" width="75.67" height="55.34"/><rect class="cls-2" x="1520.19" y="276.38" width="75.67" height="55.34"/><rect class="cls-2" x="1595.86" y="718.47" width="76.09" height="55.34"/><rect class="cls-2" x="1595.86" y="663.13" width="76.09" height="55.34"/><rect class="cls-2" x="1595.86" y="608.1" width="76.09" height="55.03"/><rect class="cls-1" x="1595.86" y="552.76" width="76.09" height="55.34"/><rect class="cls-3" x="1595.86" y="497.43" width="76.09" height="55.34"/><rect class="cls-1" x="1595.86" y="442.09" width="76.09" height="55.34"/><rect class="cls-1" x="1595.86" y="387.06" width="76.09" height="55.03"/><rect class="cls-1" x="1595.86" y="331.72" width="76.09" height="55.34"/><rect class="cls-1" x="1595.86" y="276.38" width="76.09" height="55.34"/><rect class="cls-2" x="1595.86" y="221.04" width="76.09" height="55.34"/><rect class="cls-2" x="1595.86" y="165.71" width="76.09" height="55.34"/><rect class="cls-2" x="1595.86" y="110.68" width="76.09" height="55.03"/><rect class="cls-2" x="1671.95" y="1657.98" width="76.09" height="55.34"/><rect class="cls-2" x="1671.95" y="1602.96" width="76.09" height="55.03"/><rect class="cls-2" x="1671.95" y="1547.62" width="76.09" height="55.34"/><rect class="cls-2" x="1671.95" y="1492.28" width="76.09" height="55.34"/><rect class="cls-2" x="1671.95" y="1436.94" width="76.09" height="55.34"/><rect class="cls-2" x="1671.95" y="1381.91" width="76.09" height="55.03"/><rect class="cls-2" x="1671.95" y="1326.57" width="76.09" height="55.34"/><rect class="cls-2" x="1671.95" y="1271.24" width="76.09" height="55.34"/><rect class="cls-2" x="1671.95" y="1215.9" width="76.09" height="55.34"/><rect class="cls-2" x="1671.95" y="1160.56" width="76.09" height="55.34"/><rect class="cls-2" x="1671.95" y="1105.53" width="76.09" height="55.03"/><rect class="cls-2" x="1671.95" y="773.81" width="76.09" height="55.34"/><rect class="cls-3" x="1671.95" y="718.47" width="76.09" height="55.34"/><rect class="cls-1" x="1671.95" y="663.13" width="76.09" height="55.34"/><rect class="cls-4" x="1671.95" y="608.1" width="76.09" height="55.03"/><rect class="cls-1" x="1671.95" y="552.76" width="76.09" height="55.34"/><rect class="cls-1" x="1671.95" y="497.43" width="76.09" height="55.34"/><rect class="cls-1" x="1671.95" y="442.09" width="76.09" height="55.34"/><rect class="cls-2" x="1671.95" y="387.06" width="76.09" height="55.03"/><rect class="cls-2" x="1671.95" y="331.72" width="76.09" height="55.34"/><rect class="cls-1" x="1671.95" y="276.38" width="76.09" height="55.34"/><rect class="cls-1" x="1671.95" y="221.04" width="76.09" height="55.34"/><rect class="cls-2" x="1671.95" y="165.71" width="76.09" height="55.34"/><rect class="cls-5" x="1671.95" y="110.68" width="76.09" height="55.03"/><rect class="cls-2" x="1671.95" y="55.34" width="76.09" height="55.34"/><rect class="cls-2" x="1671.95" width="76.09" height="55.34"/><rect class="cls-2" x="1748.05" y="1713.32" width="76.09" height="55.34"/><rect class="cls-13" x="1748.05" y="1657.98" width="76.09" height="55.34"/><rect class="cls-1" x="1748.05" y="1602.96" width="76.09" height="55.03"/><rect class="cls-9" x="1748.05" y="1547.62" width="76.09" height="55.34"/><rect class="cls-9" x="1748.05" y="1492.28" width="76.09" height="55.34"/><rect class="cls-9" x="1748.05" y="1436.94" width="76.09" height="55.34"/><rect class="cls-14" x="1748.05" y="1381.91" width="76.09" height="55.03"/><rect class="cls-1" x="1748.05" y="1326.57" width="76.09" height="55.34"/><rect class="cls-1" x="1748.05" y="1271.24" width="76.09" height="55.34"/><rect class="cls-4" x="1748.05" y="1215.9" width="76.09" height="55.34"/><rect class="cls-4" x="1748.05" y="1160.56" width="76.09" height="55.34"/><rect class="cls-4" x="1748.05" y="1105.53" width="76.09" height="55.03"/><rect class="cls-2" x="1748.05" y="1050.19" width="76.09" height="55.34"/><rect class="cls-2" x="1748.05" y="829.15" width="76.09" height="55.34"/><rect class="cls-1" x="1748.05" y="773.81" width="76.09" height="55.34"/><rect class="cls-1" x="1748.05" y="718.47" width="76.09" height="55.34"/><rect class="cls-1" x="1748.05" y="663.13" width="76.09" height="55.34"/><rect class="cls-4" x="1748.05" y="608.1" width="76.09" height="55.03"/><rect class="cls-1" x="1748.05" y="552.76" width="76.09" height="55.34"/><rect class="cls-1" x="1748.05" y="497.43" width="76.09" height="55.34"/><rect class="cls-1" x="1748.05" y="442.09" width="76.09" height="55.34"/><rect class="cls-1" x="1748.05" y="387.06" width="76.09" height="55.03"/><rect class="cls-1" x="1748.05" y="331.72" width="76.09" height="55.34"/><rect class="cls-1" x="1748.05" y="276.38" width="76.09" height="55.34"/><rect class="cls-1" x="1748.05" y="221.04" width="76.09" height="55.34"/><rect class="cls-2" x="1748.05" y="165.71" width="76.09" height="55.34"/><rect class="cls-2" x="1748.05" y="110.68" width="76.09" height="55.03"/><rect class="cls-1" x="1748.05" y="55.34" width="76.09" height="55.34"/><rect class="cls-2" x="1748.05" width="76.09" height="55.34"/><rect class="cls-2" x="1824.14" y="1768.66" width="76.09" height="55.34"/><rect class="cls-11" x="1824.14" y="1713.32" width="76.09" height="55.34"/><rect class="cls-11" x="1824.14" y="1657.98" width="76.09" height="55.34"/><rect class="cls-1" x="1824.14" y="1602.96" width="76.09" height="55.03"/><rect class="cls-1" x="1824.14" y="1547.62" width="76.09" height="55.34"/><rect class="cls-1" x="1824.14" y="1492.28" width="76.09" height="55.34"/><rect class="cls-9" x="1824.14" y="1436.94" width="76.09" height="55.34"/><rect class="cls-9" x="1824.14" y="1381.91" width="76.09" height="55.03"/><rect class="cls-14" x="1824.14" y="1326.57" width="76.09" height="55.34"/><rect class="cls-1" x="1824.14" y="1271.24" width="76.09" height="55.34"/><rect class="cls-1" x="1824.14" y="1215.9" width="76.09" height="55.34"/><rect class="cls-4" x="1824.14" y="1160.56" width="76.09" height="55.34"/><rect class="cls-2" x="1824.14" y="1105.53" width="76.09" height="55.03"/><rect class="cls-2" x="1824.14" y="829.15" width="76.09" height="55.34"/><rect class="cls-3" x="1824.14" y="773.81" width="76.09" height="55.34"/><rect class="cls-3" x="1824.14" y="718.47" width="76.09" height="55.34"/><rect class="cls-1" x="1824.14" y="663.13" width="76.09" height="55.34"/><rect class="cls-6" x="1824.14" y="608.1" width="76.09" height="55.03"/><rect class="cls-4" x="1824.14" y="552.76" width="76.09" height="55.34"/><rect class="cls-1" x="1824.14" y="497.43" width="76.09" height="55.34"/><rect class="cls-1" x="1824.14" y="442.09" width="76.09" height="55.34"/><rect class="cls-1" x="1824.14" y="387.06" width="76.09" height="55.03"/><rect class="cls-1" x="1824.14" y="331.72" width="76.09" height="55.34"/><rect class="cls-1" x="1824.14" y="276.38" width="76.09" height="55.34"/><rect class="cls-7" x="1824.14" y="221.04" width="76.09" height="55.34"/><rect class="cls-7" x="1824.14" y="165.71" width="76.09" height="55.34"/><rect class="cls-7" x="1824.14" y="110.68" width="76.09" height="55.03"/><rect class="cls-2" x="1824.14" y="55.34" width="76.09" height="55.34"/><rect class="cls-2" x="1824.14" width="76.09" height="55.34"/><rect class="cls-2" x="1900.24" y="1768.66" width="75.67" height="55.34"/><rect class="cls-13" x="1900.24" y="1713.32" width="75.67" height="55.34"/><rect class="cls-13" x="1900.24" y="1657.98" width="75.67" height="55.34"/><rect class="cls-1" x="1900.24" y="1602.96" width="75.67" height="55.03"/><rect class="cls-1" x="1900.24" y="1547.62" width="75.67" height="55.34"/><rect class="cls-1" x="1900.24" y="1492.28" width="75.67" height="55.34"/><rect class="cls-1" x="1900.24" y="1436.94" width="75.67" height="55.34"/><rect class="cls-9" x="1900.24" y="1381.91" width="75.67" height="55.03"/><rect class="cls-14" x="1900.24" y="1326.57" width="75.67" height="55.34"/><rect class="cls-1" x="1900.24" y="1271.24" width="75.67" height="55.34"/><rect class="cls-1" x="1900.24" y="1215.9" width="75.67" height="55.34"/><rect class="cls-1" x="1900.24" y="1160.56" width="75.67" height="55.34"/><rect class="cls-2" x="1900.24" y="1105.53" width="75.67" height="55.03"/><rect class="cls-2" x="1900.24" y="1050.19" width="75.67" height="55.34"/><rect class="cls-2" x="1900.24" y="994.85" width="75.67" height="55.34"/><rect class="cls-2" x="1900.24" y="773.81" width="75.67" height="55.34"/><rect class="cls-1" x="1900.24" y="718.47" width="75.67" height="55.34"/><rect class="cls-1" x="1900.24" y="663.13" width="75.67" height="55.34"/><rect class="cls-1" x="1900.24" y="608.1" width="75.67" height="55.03"/><rect class="cls-4" x="1900.24" y="552.76" width="75.67" height="55.34"/><rect class="cls-4" x="1900.24" y="497.43" width="75.67" height="55.34"/><rect class="cls-1" x="1900.24" y="442.09" width="75.67" height="55.34"/><rect class="cls-1" x="1900.24" y="387.06" width="75.67" height="55.03"/><rect class="cls-1" x="1900.24" y="331.72" width="75.67" height="55.34"/><rect class="cls-1" x="1900.24" y="276.38" width="75.67" height="55.34"/><rect class="cls-1" x="1900.24" y="221.04" width="75.67" height="55.34"/><rect class="cls-1" x="1900.24" y="165.71" width="75.67" height="55.34"/><rect class="cls-2" x="1900.24" y="110.68" width="75.67" height="55.03"/><rect class="cls-2" x="1975.91" y="1713.32" width="76.09" height="55.34"/><rect class="cls-1" x="1975.91" y="1657.98" width="76.09" height="55.34"/><rect class="cls-1" x="1975.91" y="1602.96" width="76.09" height="55.03"/><rect class="cls-1" x="1975.91" y="1547.62" width="76.09" height="55.34"/><rect class="cls-1" x="1975.91" y="1492.28" width="76.09" height="55.34"/><rect class="cls-1" x="1975.91" y="1436.94" width="76.09" height="55.34"/><rect class="cls-9" x="1975.91" y="1381.91" width="76.09" height="55.03"/><rect class="cls-14" x="1975.91" y="1326.57" width="76.09" height="55.34"/><rect class="cls-1" x="1975.91" y="1271.24" width="76.09" height="55.34"/><rect class="cls-1" x="1975.91" y="1215.9" width="76.09" height="55.34"/><rect class="cls-1" x="1975.91" y="1160.56" width="76.09" height="55.34"/><rect class="cls-8" x="1975.91" y="1105.53" width="76.09" height="55.03"/><rect class="cls-5" x="1975.91" y="1050.19" width="76.09" height="55.34"/><rect class="cls-8" x="1975.91" y="994.85" width="76.09" height="55.34"/><rect class="cls-2" x="1975.91" y="939.51" width="76.09" height="55.34"/><rect class="cls-2" x="1975.91" y="773.81" width="76.09" height="55.34"/><rect class="cls-3" x="1975.91" y="718.47" width="76.09" height="55.34"/><rect class="cls-1" x="1975.91" y="663.13" width="76.09" height="55.34"/><rect class="cls-1" x="1975.91" y="608.1" width="76.09" height="55.03"/><rect class="cls-1" x="1975.91" y="552.76" width="76.09" height="55.34"/><rect class="cls-1" x="1975.91" y="497.43" width="76.09" height="55.34"/><rect class="cls-1" x="1975.91" y="442.09" width="76.09" height="55.34"/><rect class="cls-1" x="1975.91" y="387.06" width="76.09" height="55.03"/><rect class="cls-1" x="1975.91" y="331.72" width="76.09" height="55.34"/><rect class="cls-1" x="1975.91" y="276.38" width="76.09" height="55.34"/><rect class="cls-4" x="1975.91" y="221.04" width="76.09" height="55.34"/><rect class="cls-2" x="1975.91" y="165.71" width="76.09" height="55.34"/><rect class="cls-2" x="2052" y="1713.32" width="76.09" height="55.34"/><rect class="cls-13" x="2052" y="1657.98" width="76.09" height="55.34"/><rect class="cls-1" x="2052" y="1602.96" width="76.09" height="55.03"/><rect class="cls-1" x="2052" y="1547.62" width="76.09" height="55.34"/><rect class="cls-1" x="2052" y="1492.28" width="76.09" height="55.34"/><rect class="cls-14" x="2052" y="1436.94" width="76.09" height="55.34"/><rect class="cls-9" x="2052" y="1381.91" width="76.09" height="55.03"/><rect class="cls-14" x="2052" y="1326.57" width="76.09" height="55.34"/><rect class="cls-1" x="2052" y="1271.24" width="76.09" height="55.34"/><rect class="cls-1" x="2052" y="1215.9" width="76.09" height="55.34"/><rect class="cls-1" x="2052" y="1160.56" width="76.09" height="55.34"/><rect class="cls-1" x="2052" y="1105.53" width="76.09" height="55.03"/><rect class="cls-2" x="2052" y="1050.19" width="76.09" height="55.34"/><rect class="cls-1" x="2052" y="994.85" width="76.09" height="55.34"/><rect class="cls-2" x="2052" y="939.51" width="76.09" height="55.34"/><rect class="cls-2" x="2052" y="773.81" width="76.09" height="55.34"/><rect class="cls-1" x="2052" y="718.47" width="76.09" height="55.34"/><rect class="cls-1" x="2052" y="663.13" width="76.09" height="55.34"/><rect class="cls-1" x="2052" y="608.1" width="76.09" height="55.03"/><rect class="cls-1" x="2052" y="552.76" width="76.09" height="55.34"/><rect class="cls-9" x="2052" y="497.43" width="76.09" height="55.34"/><rect class="cls-9" x="2052" y="442.09" width="76.09" height="55.34"/><rect class="cls-9" x="2052" y="387.06" width="76.09" height="55.03"/><rect class="cls-9" x="2052" y="331.72" width="76.09" height="55.34"/><rect class="cls-9" x="2052" y="276.38" width="76.09" height="55.34"/><rect class="cls-2" x="2052" y="221.04" width="76.09" height="55.34"/><rect class="cls-2" x="2128.09" y="1713.32" width="76.09" height="55.34"/><rect class="cls-1" x="2128.09" y="1657.98" width="76.09" height="55.34"/><rect class="cls-1" x="2128.09" y="1602.96" width="76.09" height="55.03"/><rect class="cls-11" x="2128.09" y="1547.62" width="76.09" height="55.34"/><rect class="cls-1" x="2128.09" y="1492.28" width="76.09" height="55.34"/><rect class="cls-1" x="2128.09" y="1436.94" width="76.09" height="55.34"/><rect class="cls-14" x="2128.09" y="1381.91" width="76.09" height="55.03"/><rect class="cls-14" x="2128.09" y="1326.57" width="76.09" height="55.34"/><rect class="cls-1" x="2128.09" y="1271.24" width="76.09" height="55.34"/><rect class="cls-1" x="2128.09" y="1215.9" width="76.09" height="55.34"/><rect class="cls-1" x="2128.09" y="1160.56" width="76.09" height="55.34"/><rect class="cls-8" x="2128.09" y="1105.53" width="76.09" height="55.03"/><rect class="cls-5" x="2128.09" y="1050.19" width="76.09" height="55.34"/><rect class="cls-8" x="2128.09" y="994.85" width="76.09" height="55.34"/><rect class="cls-2" x="2128.09" y="939.51" width="76.09" height="55.34"/><rect class="cls-2" x="2128.09" y="773.81" width="76.09" height="55.34"/><rect class="cls-3" x="2128.09" y="718.47" width="76.09" height="55.34"/><rect class="cls-1" x="2128.09" y="663.13" width="76.09" height="55.34"/><rect class="cls-1" x="2128.09" y="608.1" width="76.09" height="55.03"/><rect class="cls-1" x="2128.09" y="552.76" width="76.09" height="55.34"/><rect class="cls-9" x="2128.09" y="497.43" width="76.09" height="55.34"/><rect class="cls-9" x="2128.09" y="442.09" width="76.09" height="55.34"/><rect class="cls-10" x="2128.09" y="387.06" width="76.09" height="55.03"/><rect class="cls-10" x="2128.09" y="331.72" width="76.09" height="55.34"/><rect class="cls-2" x="2128.09" y="276.38" width="76.09" height="55.34"/><rect class="cls-2" x="2204.19" y="1768.66" width="75.67" height="55.34"/><rect class="cls-13" x="2204.19" y="1713.32" width="75.67" height="55.34"/><rect class="cls-13" x="2204.19" y="1657.98" width="75.67" height="55.34"/><rect class="cls-1" x="2204.19" y="1602.96" width="75.67" height="55.03"/><rect class="cls-1" x="2204.19" y="1547.62" width="75.67" height="55.34"/><rect class="cls-14" x="2204.19" y="1492.28" width="75.67" height="55.34"/><rect class="cls-14" x="2204.19" y="1436.94" width="75.67" height="55.34"/><rect class="cls-14" x="2204.19" y="1381.91" width="75.67" height="55.03"/><rect class="cls-14" x="2204.19" y="1326.57" width="75.67" height="55.34"/><rect class="cls-1" x="2204.19" y="1271.24" width="75.67" height="55.34"/><rect class="cls-1" x="2204.19" y="1215.9" width="75.67" height="55.34"/><rect class="cls-1" x="2204.19" y="1160.56" width="75.67" height="55.34"/><rect class="cls-2" x="2204.19" y="1105.53" width="75.67" height="55.03"/><rect class="cls-2" x="2204.19" y="1050.19" width="75.67" height="55.34"/><rect class="cls-2" x="2204.19" y="994.85" width="75.67" height="55.34"/><rect class="cls-2" x="2204.19" y="773.81" width="75.67" height="55.34"/><rect class="cls-4" x="2204.19" y="718.47" width="75.67" height="55.34"/><rect class="cls-1" x="2204.19" y="663.13" width="75.67" height="55.34"/><rect class="cls-1" x="2204.19" y="608.1" width="75.67" height="55.03"/><rect class="cls-9" x="2204.19" y="552.76" width="75.67" height="55.34"/><rect class="cls-10" x="2204.19" y="497.43" width="75.67" height="55.34"/><rect class="cls-10" x="2204.19" y="442.09" width="75.67" height="55.34"/><rect class="cls-2" x="2204.19" y="387.06" width="75.67" height="55.03"/><rect class="cls-2" x="2204.19" y="331.72" width="75.67" height="55.34"/><rect class="cls-2" x="2279.86" y="1768.66" width="76.09" height="55.34"/><rect class="cls-11" x="2279.86" y="1713.32" width="76.09" height="55.34"/><rect class="cls-1" x="2279.86" y="1657.98" width="76.09" height="55.34"/><rect class="cls-1" x="2279.86" y="1602.96" width="76.09" height="55.03"/><rect class="cls-1" x="2279.86" y="1547.62" width="76.09" height="55.34"/><rect class="cls-1" x="2279.86" y="1492.28" width="76.09" height="55.34"/><rect class="cls-9" x="2279.86" y="1436.94" width="76.09" height="55.34"/><rect class="cls-9" x="2279.86" y="1381.91" width="76.09" height="55.03"/><rect class="cls-14" x="2279.86" y="1326.57" width="76.09" height="55.34"/><rect class="cls-1" x="2279.86" y="1271.24" width="76.09" height="55.34"/><rect class="cls-1" x="2279.86" y="1215.9" width="76.09" height="55.34"/><rect class="cls-1" x="2279.86" y="1160.56" width="76.09" height="55.34"/><rect class="cls-2" x="2279.86" y="1105.53" width="76.09" height="55.03"/><rect class="cls-2" x="2279.86" y="829.15" width="76.09" height="55.34"/><rect class="cls-11" x="2279.86" y="773.81" width="76.09" height="55.34"/><rect class="cls-3" x="2279.86" y="718.47" width="76.09" height="55.34"/><rect class="cls-1" x="2279.86" y="663.13" width="76.09" height="55.34"/><rect class="cls-1" x="2279.86" y="608.1" width="76.09" height="55.03"/><rect class="cls-1" x="2279.86" y="552.76" width="76.09" height="55.34"/><rect class="cls-10" x="2279.86" y="497.43" width="76.09" height="55.34"/><rect class="cls-10" x="2279.86" y="442.09" width="76.09" height="55.34"/><rect class="cls-2" x="2279.86" y="387.06" width="76.09" height="55.03"/><rect class="cls-2" x="2355.95" y="1713.32" width="76.09" height="55.34"/><rect class="cls-13" x="2355.95" y="1657.98" width="76.09" height="55.34"/><rect class="cls-1" x="2355.95" y="1602.96" width="76.09" height="55.03"/><rect class="cls-9" x="2355.95" y="1547.62" width="76.09" height="55.34"/><rect class="cls-9" x="2355.95" y="1492.28" width="76.09" height="55.34"/><rect class="cls-9" x="2355.95" y="1436.94" width="76.09" height="55.34"/><rect class="cls-14" x="2355.95" y="1381.91" width="76.09" height="55.03"/><rect class="cls-1" x="2355.95" y="1326.57" width="76.09" height="55.34"/><rect class="cls-1" x="2355.95" y="1271.24" width="76.09" height="55.34"/><rect class="cls-1" x="2355.95" y="1215.9" width="76.09" height="55.34"/><rect class="cls-1" x="2355.95" y="1160.56" width="76.09" height="55.34"/><rect class="cls-1" x="2355.95" y="1105.53" width="76.09" height="55.03"/><rect class="cls-2" x="2355.95" y="1050.19" width="76.09" height="55.34"/><rect class="cls-2" x="2355.95" y="829.15" width="76.09" height="55.34"/><rect class="cls-11" x="2355.95" y="773.81" width="76.09" height="55.34"/><rect class="cls-4" x="2355.95" y="718.47" width="76.09" height="55.34"/><rect class="cls-1" x="2355.95" y="663.13" width="76.09" height="55.34"/><rect class="cls-1" x="2355.95" y="608.1" width="76.09" height="55.03"/><rect class="cls-10" x="2355.95" y="552.76" width="76.09" height="55.34"/><rect class="cls-10" x="2355.95" y="497.43" width="76.09" height="55.34"/><rect class="cls-10" x="2355.95" y="442.09" width="76.09" height="55.34"/><rect class="cls-2" x="2355.95" y="387.06" width="76.09" height="55.03"/><rect class="cls-2" x="2432.05" y="1657.98" width="76.09" height="55.34"/><rect class="cls-2" x="2432.05" y="1602.96" width="76.09" height="55.03"/><rect class="cls-2" x="2432.05" y="1547.62" width="76.09" height="55.34"/><rect class="cls-2" x="2432.05" y="1492.28" width="76.09" height="55.34"/><rect class="cls-2" x="2432.05" y="1436.94" width="76.09" height="55.34"/><rect class="cls-2" x="2432.05" y="1381.91" width="76.09" height="55.03"/><rect class="cls-2" x="2432.05" y="1326.57" width="76.09" height="55.34"/><rect class="cls-2" x="2432.05" y="1271.24" width="76.09" height="55.34"/><rect class="cls-2" x="2432.05" y="1215.9" width="76.09" height="55.34"/><rect class="cls-2" x="2432.05" y="1160.56" width="76.09" height="55.34"/><rect class="cls-2" x="2432.05" y="1105.53" width="76.09" height="55.03"/><rect class="cls-2" x="2432.05" y="773.81" width="76.09" height="55.34"/><rect class="cls-3" x="2432.05" y="718.47" width="76.09" height="55.34"/><rect class="cls-4" x="2432.05" y="663.13" width="76.09" height="55.34"/><rect class="cls-1" x="2432.05" y="608.1" width="76.09" height="55.03"/><rect class="cls-1" x="2432.05" y="552.76" width="76.09" height="55.34"/><rect class="cls-10" x="2432.05" y="497.43" width="76.09" height="55.34"/><rect class="cls-2" x="2432.05" y="442.09" width="76.09" height="55.34"/><rect class="cls-2" x="2508.14" y="718.47" width="76.09" height="55.34"/><rect class="cls-2" x="2508.14" y="663.13" width="76.09" height="55.34"/><rect class="cls-4" x="2508.14" y="608.1" width="76.09" height="55.03"/><rect class="cls-1" x="2508.14" y="552.76" width="76.09" height="55.34"/><rect class="cls-2" x="2508.14" y="497.43" width="76.09" height="55.34"/><rect class="cls-2" x="2508.14" y="442.09" width="76.09" height="55.34"/><rect class="cls-2" x="2584.24" y="608.1" width="75.67" height="55.03"/><rect class="cls-2" x="2584.24" y="552.76" width="75.67" height="55.34"/><rect class="cls-1" x="2584.24" y="497.43" width="75.67" height="55.34"/><rect class="cls-2" x="2584.24" y="442.09" width="75.67" height="55.34"/><rect class="cls-2" x="2659.91" y="497.43" width="76.09" height="55.34"/><rect class="cls-2" x="2659.91" y="442.09" width="76.09" height="55.34"/></svg>