<?xml version="1.0" encoding="utf-8"?>
<!-- Generator: Adobe Illustrator 25.2.3, SVG Export Plug-In . SVG Version: 6.00 Build 0)  -->
<svg version="1.1" id="Capa_1" xmlns="http://www.w3.org/2000/svg" xmlns:xlink="http://www.w3.org/1999/xlink" x="0px" y="0px"
	 viewBox="0 0 188.9 183.3" style="enable-background:new 0 0 188.9 183.3;" xml:space="preserve">
<style type="text/css">
	.st0{fill:#5E9952;}
	.st1{fill:#CA592F;}
	.st2{fill:#E46435;}
	.st3{fill:#FD6F3B;}
</style>
<g>
	<g id="XMLID_1_">
		<g>
			<rect x="158.9" y="57.4" class="st0" width="5.9" height="5.7"/>
			<rect x="153" y="57.4" class="st0" width="5.9" height="5.7"/>
			<rect x="153" y="51.7" class="st0" width="5.9" height="5.7"/>
			<rect x="147.1" y="57.4" class="st0" width="5.9" height="5.7"/>
			<rect x="147.1" y="51.7" class="st0" width="5.9" height="5.7"/>
			<rect x="147.1" y="46" class="st0" width="5.9" height="5.7"/>
			<rect x="141.2" y="91.7" class="st1" width="5.9" height="5.7"/>
			<rect x="141.2" y="86" class="st1" width="5.9" height="5.7"/>
			<rect x="141.2" y="80.3" class="st1" width="5.9" height="5.7"/>
			<rect x="141.2" y="74.6" class="st1" width="5.9" height="5.7"/>
			<rect x="141.2" y="68.8" class="st1" width="5.9" height="5.7"/>
			<rect x="141.2" y="63.1" class="st1" width="5.9" height="5.7"/>
			<rect x="141.2" y="57.4" class="st1" width="5.9" height="5.7"/>
			<rect x="141.2" y="51.7" class="st0" width="5.9" height="5.7"/>
			<rect x="141.2" y="46" class="st0" width="5.9" height="5.7"/>
			<rect x="141.2" y="17.4" class="st0" width="5.9" height="5.7"/>
			<rect x="135.4" y="103.2" class="st1" width="5.9" height="5.7"/>
			<rect x="135.4" y="97.4" class="st1" width="5.9" height="5.7"/>
			<rect x="135.4" y="91.7" class="st1" width="5.9" height="5.7"/>
			<rect x="135.4" y="86" class="st1" width="5.9" height="5.7"/>
			<rect x="135.4" y="80.3" class="st1" width="5.9" height="5.7"/>
			<rect x="135.4" y="74.6" class="st1" width="5.9" height="5.7"/>
			<rect x="135.4" y="68.8" class="st1" width="5.9" height="5.7"/>
			<rect x="135.4" y="63.1" class="st1" width="5.9" height="5.7"/>
			<rect x="135.4" y="57.4" class="st1" width="5.9" height="5.7"/>
			<rect x="135.4" y="51.7" class="st1" width="5.9" height="5.7"/>
			<rect x="135.4" y="46" class="st0" width="5.9" height="5.7"/>
			<rect x="135.4" y="40.2" class="st0" width="5.9" height="5.7"/>
			<rect x="135.4" y="28.8" class="st0" width="5.9" height="5.7"/>
			<rect x="135.4" y="23.1" class="st0" width="5.9" height="5.7"/>
			<rect x="135.4" y="17.4" class="st0" width="5.9" height="5.7"/>
			<rect x="129.5" y="108.9" class="st1" width="5.9" height="5.7"/>
			<rect x="129.5" y="103.2" class="st1" width="5.9" height="5.7"/>
			<rect x="129.5" y="97.4" class="st1" width="5.9" height="5.7"/>
			<rect x="129.5" y="91.7" class="st1" width="5.9" height="5.7"/>
			<rect x="129.5" y="86" class="st1" width="5.9" height="5.7"/>
			<rect x="129.5" y="80.3" class="st2" width="5.9" height="5.7"/>
			<rect x="129.5" y="74.6" class="st2" width="5.9" height="5.7"/>
			<rect x="129.5" y="68.8" class="st2" width="5.9" height="5.7"/>
			<rect x="129.5" y="63.1" class="st2" width="5.9" height="5.7"/>
			<rect x="129.5" y="57.4" class="st2" width="5.9" height="5.7"/>
			<rect x="129.5" y="51.7" class="st2" width="5.9" height="5.7"/>
			<rect x="129.5" y="46" class="st2" width="5.9" height="5.7"/>
			<rect x="129.5" y="40.2" class="st0" width="5.9" height="5.7"/>
			<rect x="129.5" y="34.5" class="st0" width="5.9" height="5.7"/>
			<rect x="129.5" y="28.8" class="st0" width="5.9" height="5.7"/>
			<rect x="129.5" y="23.1" class="st0" width="5.9" height="5.7"/>
			<rect x="123.6" y="114.6" class="st1" width="5.9" height="5.7"/>
			<rect x="123.6" y="108.9" class="st1" width="5.9" height="5.7"/>
			<rect x="123.6" y="103.2" class="st1" width="5.9" height="5.7"/>
			<rect x="123.6" y="97.4" class="st1" width="5.9" height="5.7"/>
			<rect x="123.6" y="91.7" class="st2" width="5.9" height="5.7"/>
			<rect x="123.6" y="86" class="st2" width="5.9" height="5.7"/>
			<rect x="123.6" y="80.3" class="st2" width="5.9" height="5.7"/>
			<rect x="123.6" y="74.6" class="st2" width="5.9" height="5.7"/>
			<rect x="123.6" y="68.8" class="st2" width="5.9" height="5.7"/>
			<rect x="123.6" y="63.1" class="st3" width="5.9" height="5.7"/>
			<rect x="123.6" y="57.4" class="st3" width="5.9" height="5.7"/>
			<rect x="123.6" y="51.7" class="st3" width="5.9" height="5.7"/>
			<rect x="123.6" y="46" class="st2" width="5.9" height="5.7"/>
			<rect x="123.6" y="40.2" class="st2" width="5.9" height="5.7"/>
			<rect x="123.6" y="34.5" class="st0" width="5.9" height="5.7"/>
			<rect x="123.6" y="28.8" class="st0" width="5.9" height="5.7"/>
			<rect x="117.7" y="114.6" class="st1" width="5.9" height="5.7"/>
			<rect x="117.7" y="108.9" class="st1" width="5.9" height="5.7"/>
			<rect x="117.7" y="103.2" class="st1" width="5.9" height="5.7"/>
			<rect x="117.7" y="97.4" class="st2" width="5.9" height="5.7"/>
			<rect x="117.7" y="91.7" class="st2" width="5.9" height="5.7"/>
			<rect x="117.7" y="86" class="st2" width="5.9" height="5.7"/>
			<rect x="117.7" y="80.3" class="st2" width="5.9" height="5.7"/>
			<rect x="117.7" y="74.6" class="st3" width="5.9" height="5.7"/>
			<rect x="117.7" y="68.8" class="st3" width="5.9" height="5.7"/>
			<rect x="117.7" y="63.1" class="st3" width="5.9" height="5.7"/>
			<rect x="117.7" y="57.4" class="st3" width="5.9" height="5.7"/>
			<rect x="117.7" y="51.7" class="st3" width="5.9" height="5.7"/>
			<rect x="117.7" y="46" class="st3" width="5.9" height="5.7"/>
			<rect x="117.7" y="40.2" class="st3" width="5.9" height="5.7"/>
			<rect x="117.7" y="34.5" class="st0" width="5.9" height="5.7"/>
			<rect x="117.7" y="28.8" class="st0" width="5.9" height="5.7"/>
			<rect x="117.7" y="23.1" class="st0" width="5.9" height="5.7"/>
			<rect x="111.8" y="126" class="st1" width="5.9" height="5.7"/>
			<rect x="111.8" y="120.3" class="st1" width="5.9" height="5.7"/>
			<rect x="111.8" y="114.6" class="st1" width="5.9" height="5.7"/>
			<rect x="111.8" y="108.9" class="st1" width="5.9" height="5.7"/>
			<rect x="111.8" y="103.2" class="st2" width="5.9" height="5.7"/>
			<rect x="111.8" y="97.4" class="st2" width="5.9" height="5.7"/>
			<rect x="111.8" y="91.7" class="st2" width="5.9" height="5.7"/>
			<rect x="111.8" y="86" class="st3" width="5.9" height="5.7"/>
			<rect x="111.8" y="80.3" class="st3" width="5.9" height="5.7"/>
			<rect x="111.8" y="74.6" class="st3" width="5.9" height="5.7"/>
			<rect x="111.8" y="68.8" class="st3" width="5.9" height="5.7"/>
			<rect x="111.8" y="63.1" class="st3" width="5.9" height="5.7"/>
			<rect x="111.8" y="57.4" class="st3" width="5.9" height="5.7"/>
			<rect x="111.8" y="51.7" class="st3" width="5.9" height="5.7"/>
			<rect x="111.8" y="46" class="st3" width="5.9" height="5.7"/>
			<rect x="111.8" y="40.2" class="st3" width="5.9" height="5.7"/>
			<rect x="111.8" y="34.5" class="st3" width="5.9" height="5.7"/>
			<rect x="111.8" y="28.8" class="st0" width="5.9" height="5.7"/>
			<rect x="111.8" y="23.1" class="st0" width="5.9" height="5.7"/>
			<rect x="105.9" y="126" class="st1" width="5.9" height="5.7"/>
			<rect x="105.9" y="120.3" class="st1" width="5.9" height="5.7"/>
			<rect x="105.9" y="114.6" class="st1" width="5.9" height="5.7"/>
			<rect x="105.9" y="108.9" class="st2" width="5.9" height="5.7"/>
			<rect x="105.9" y="103.2" class="st2" width="5.9" height="5.7"/>
			<rect x="105.9" y="97.4" class="st2" width="5.9" height="5.7"/>
			<rect x="105.9" y="91.7" class="st3" width="5.9" height="5.7"/>
			<rect x="105.9" y="86" class="st3" width="5.9" height="5.7"/>
			<rect x="105.9" y="80.3" class="st3" width="5.9" height="5.7"/>
			<rect x="105.9" y="74.6" class="st3" width="5.9" height="5.7"/>
			<rect x="105.9" y="68.8" class="st3" width="5.9" height="5.7"/>
			<rect x="105.9" y="63.1" class="st3" width="5.9" height="5.7"/>
			<rect x="105.9" y="57.4" class="st3" width="5.9" height="5.7"/>
			<rect x="105.9" y="51.7" class="st3" width="5.9" height="5.7"/>
			<rect x="105.9" y="46" class="st3" width="5.9" height="5.7"/>
			<rect x="105.9" y="40.2" class="st3" width="5.9" height="5.7"/>
			<rect x="105.9" y="34.5" class="st3" width="5.9" height="5.7"/>
			<rect x="105.9" y="28.8" class="st0" width="5.9" height="5.7"/>
			<rect x="105.9" y="23.1" class="st0" width="5.9" height="5.7"/>
			<rect x="105.9" y="17.4" class="st0" width="5.9" height="5.7"/>
			<rect x="100" y="131.8" class="st1" width="5.9" height="5.7"/>
			<rect x="100" y="126" class="st1" width="5.9" height="5.7"/>
			<rect x="100" y="120.3" class="st2" width="5.9" height="5.7"/>
			<rect x="100" y="114.6" class="st2" width="5.9" height="5.7"/>
			<rect x="100" y="108.9" class="st2" width="5.9" height="5.7"/>
			<rect x="100" y="103.2" class="st2" width="5.9" height="5.7"/>
			<rect x="100" y="97.4" class="st3" width="5.9" height="5.7"/>
			<rect x="100" y="91.7" class="st3" width="5.9" height="5.7"/>
			<rect x="100" y="86" class="st3" width="5.9" height="5.7"/>
			<rect x="100" y="80.3" class="st3" width="5.9" height="5.7"/>
			<rect x="100" y="74.6" class="st3" width="5.9" height="5.7"/>
			<rect x="100" y="68.8" class="st3" width="5.9" height="5.7"/>
			<rect x="100" y="63.1" class="st3" width="5.9" height="5.7"/>
			<rect x="100" y="57.4" class="st3" width="5.9" height="5.7"/>
			<rect x="100" y="51.7" class="st3" width="5.9" height="5.7"/>
			<rect x="100" y="46" class="st3" width="5.9" height="5.7"/>
			<rect x="100" y="40.2" class="st3" width="5.9" height="5.7"/>
			<rect x="100" y="34.5" class="st3" width="5.9" height="5.7"/>
			<rect x="100" y="28.8" class="st3" width="5.9" height="5.7"/>
			<rect x="100" y="23.1" class="st0" width="5.9" height="5.7"/>
			<rect x="100" y="17.4" class="st0" width="5.9" height="5.7"/>
			<rect x="100" y="11.7" class="st0" width="5.9" height="5.7"/>
			<rect x="94.1" y="131.8" class="st1" width="5.9" height="5.7"/>
			<rect x="94.1" y="126" class="st1" width="5.9" height="5.7"/>
			<rect x="94.1" y="120.3" class="st2" width="5.9" height="5.7"/>
			<rect x="94.1" y="114.6" class="st2" width="5.9" height="5.7"/>
			<rect x="94.1" y="108.9" class="st2" width="5.9" height="5.7"/>
			<rect x="94.1" y="103.2" class="st3" width="5.9" height="5.7"/>
			<rect x="94.1" y="97.4" class="st3" width="5.9" height="5.7"/>
			<rect x="94.1" y="91.7" class="st3" width="5.9" height="5.7"/>
			<rect x="94.1" y="86" class="st3" width="5.9" height="5.7"/>
			<rect x="94.1" y="80.3" class="st3" width="5.9" height="5.7"/>
			<rect x="94.1" y="74.6" class="st3" width="5.9" height="5.7"/>
			<rect x="94.1" y="68.8" class="st3" width="5.9" height="5.7"/>
			<rect x="94.1" y="63.1" class="st3" width="5.9" height="5.7"/>
			<rect x="94.1" y="57.4" class="st3" width="5.9" height="5.7"/>
			<rect x="94.1" y="51.7" class="st3" width="5.9" height="5.7"/>
			<rect x="94.1" y="46" class="st3" width="5.9" height="5.7"/>
			<rect x="94.1" y="40.2" class="st3" width="5.9" height="5.7"/>
			<rect x="94.1" y="34.5" class="st3" width="5.9" height="5.7"/>
			<rect x="94.1" y="28.8" class="st3" width="5.9" height="5.7"/>
			<rect x="94.1" y="11.7" class="st0" width="5.9" height="5.7"/>
			<rect x="88.2" y="137.5" class="st1" width="5.9" height="5.7"/>
			<rect x="88.2" y="131.8" class="st1" width="5.9" height="5.7"/>
			<rect x="88.2" y="126" class="st2" width="5.9" height="5.7"/>
			<rect x="88.2" y="120.3" class="st2" width="5.9" height="5.7"/>
			<rect x="88.2" y="114.6" width="5.9" height="5.7"/>
			<rect x="88.2" y="108.9" width="5.9" height="5.7"/>
			<rect x="88.2" y="103.2" class="st3" width="5.9" height="5.7"/>
			<rect x="88.2" y="97.4" class="st3" width="5.9" height="5.7"/>
			<rect x="88.2" y="91.7" class="st3" width="5.9" height="5.7"/>
			<rect x="88.2" y="86" class="st3" width="5.9" height="5.7"/>
			<rect x="88.2" y="80.3" class="st3" width="5.9" height="5.7"/>
			<rect x="88.2" y="74.6" class="st3" width="5.9" height="5.7"/>
			<rect x="88.2" y="68.8" class="st3" width="5.9" height="5.7"/>
			<rect x="88.2" y="63.1" class="st3" width="5.9" height="5.7"/>
			<rect x="88.2" y="57.4" class="st3" width="5.9" height="5.7"/>
			<rect x="88.2" y="51.7" class="st3" width="5.9" height="5.7"/>
			<rect x="88.2" y="46" class="st3" width="5.9" height="5.7"/>
			<rect x="88.2" y="40.2" class="st3" width="5.9" height="5.7"/>
			<rect x="88.2" y="34.5" class="st3" width="5.9" height="5.7"/>
			<rect x="88.2" y="28.8" class="st3" width="5.9" height="5.7"/>
			<rect x="82.3" y="137.5" class="st1" width="5.9" height="5.7"/>
			<rect x="82.3" y="131.8" class="st1" width="5.9" height="5.7"/>
			<rect x="82.3" y="126" class="st2" width="5.9" height="5.7"/>
			<rect x="82.3" y="120.3" class="st2" width="5.9" height="5.7"/>
			<rect x="82.3" y="114.6" width="5.9" height="5.7"/>
			<rect x="82.3" y="108.9" width="5.9" height="5.7"/>
			<rect x="82.3" y="103.2" class="st3" width="5.9" height="5.7"/>
			<rect x="82.3" y="97.4" class="st3" width="5.9" height="5.7"/>
			<rect x="82.3" y="91.7" class="st3" width="5.9" height="5.7"/>
			<rect x="82.3" y="86" class="st3" width="5.9" height="5.7"/>
			<rect x="82.3" y="80.3" class="st3" width="5.9" height="5.7"/>
			<rect x="82.3" y="74.6" class="st3" width="5.9" height="5.7"/>
			<rect x="82.3" y="68.8" class="st3" width="5.9" height="5.7"/>
			<rect x="82.3" y="63.1" class="st3" width="5.9" height="5.7"/>
			<rect x="82.3" y="57.4" class="st3" width="5.9" height="5.7"/>
			<rect x="82.3" y="51.7" class="st3" width="5.9" height="5.7"/>
			<rect x="82.3" y="46" class="st3" width="5.9" height="5.7"/>
			<rect x="82.3" y="40.2" class="st3" width="5.9" height="5.7"/>
			<rect x="82.3" y="34.5" class="st3" width="5.9" height="5.7"/>
			<rect x="76.4" y="143.2" class="st1" width="5.9" height="5.7"/>
			<rect x="76.4" y="137.5" class="st1" width="5.9" height="5.7"/>
			<rect x="76.4" y="131.8" class="st2" width="5.9" height="5.7"/>
			<rect x="76.4" y="126" class="st2" width="5.9" height="5.7"/>
			<rect x="76.4" y="120.3" class="st2" width="5.9" height="5.7"/>
			<rect x="76.4" y="114.6" class="st3" width="5.9" height="5.7"/>
			<rect x="76.4" y="108.9" class="st3" width="5.9" height="5.7"/>
			<rect x="76.4" y="103.2" class="st3" width="5.9" height="5.7"/>
			<rect x="76.4" y="97.4" class="st3" width="5.9" height="5.7"/>
			<rect x="76.4" y="91.7" class="st3" width="5.9" height="5.7"/>
			<rect x="76.4" y="86" class="st3" width="5.9" height="5.7"/>
			<rect x="76.4" y="80.3" class="st3" width="5.9" height="5.7"/>
			<rect x="76.4" y="74.6" class="st3" width="5.9" height="5.7"/>
			<rect x="76.4" y="68.8" class="st3" width="5.9" height="5.7"/>
			<rect x="76.4" y="63.1" class="st3" width="5.9" height="5.7"/>
			<rect x="76.4" y="57.4" class="st3" width="5.9" height="5.7"/>
			<rect x="76.4" y="51.7" class="st3" width="5.9" height="5.7"/>
			<rect x="76.4" y="46" class="st3" width="5.9" height="5.7"/>
			<rect x="76.4" y="40.2" class="st3" width="5.9" height="5.7"/>
			<rect x="76.4" y="34.5" class="st3" width="5.9" height="5.7"/>
			<rect x="70.5" y="143.2" class="st1" width="5.9" height="5.7"/>
			<rect x="70.5" y="137.5" class="st1" width="5.9" height="5.7"/>
			<rect x="70.5" y="131.8" class="st2" width="5.9" height="5.7"/>
			<rect x="70.5" y="126" class="st2" width="5.9" height="5.7"/>
			<rect x="70.5" y="120.3" class="st3" width="5.9" height="5.7"/>
			<rect x="70.5" y="114.6" class="st3" width="5.9" height="5.7"/>
			<rect x="70.5" y="108.9" width="5.9" height="5.7"/>
			<rect x="70.5" y="103.2" class="st3" width="5.9" height="5.7"/>
			<rect x="70.5" y="97.4" class="st3" width="5.9" height="5.7"/>
			<rect x="70.5" y="91.7" class="st3" width="5.9" height="5.7"/>
			<rect x="70.5" y="86" class="st3" width="5.9" height="5.7"/>
			<rect x="70.5" y="80.3" class="st3" width="5.9" height="5.7"/>
			<rect x="70.5" y="74.6" class="st3" width="5.9" height="5.7"/>
			<rect x="70.5" y="68.8" class="st3" width="5.9" height="5.7"/>
			<rect x="70.5" y="63.1" class="st3" width="5.9" height="5.7"/>
			<rect x="70.5" y="57.4" class="st3" width="5.9" height="5.7"/>
			<rect x="70.5" y="51.7" class="st3" width="5.9" height="5.7"/>
			<rect x="70.5" y="46" class="st3" width="5.9" height="5.7"/>
			<rect x="70.5" y="40.2" class="st3" width="5.9" height="5.7"/>
			<rect x="70.5" y="34.5" class="st3" width="5.9" height="5.7"/>
			<rect x="64.7" y="148.9" class="st1" width="5.9" height="5.7"/>
			<rect x="64.7" y="143.2" class="st1" width="5.9" height="5.7"/>
			<rect x="64.7" y="137.5" class="st2" width="5.9" height="5.7"/>
			<rect x="64.7" y="131.8" class="st2" width="5.9" height="5.7"/>
			<rect x="64.7" y="126" class="st2" width="5.9" height="5.7"/>
			<rect x="64.7" y="120.3" class="st3" width="5.9" height="5.7"/>
			<rect x="64.7" y="114.6" class="st3" width="5.9" height="5.7"/>
			<rect x="64.7" y="108.9" class="st3" width="5.9" height="5.7"/>
			<rect x="64.7" y="103.2" width="5.9" height="5.7"/>
			<rect x="64.7" y="97.4" class="st3" width="5.9" height="5.7"/>
			<rect x="64.7" y="91.7" class="st3" width="5.9" height="5.7"/>
			<rect x="64.7" y="86" class="st3" width="5.9" height="5.7"/>
			<rect x="64.7" y="80.3" class="st3" width="5.9" height="5.7"/>
			<rect x="64.7" y="74.6" class="st3" width="5.9" height="5.7"/>
			<rect x="64.7" y="68.8" class="st3" width="5.9" height="5.7"/>
			<rect x="64.7" y="63.1" class="st3" width="5.9" height="5.7"/>
			<rect x="64.7" y="57.4" class="st3" width="5.9" height="5.7"/>
			<rect x="64.7" y="51.7" class="st3" width="5.9" height="5.7"/>
			<rect x="64.7" y="46" class="st3" width="5.9" height="5.7"/>
			<rect x="64.7" y="40.2" class="st3" width="5.9" height="5.7"/>
			<rect x="58.8" y="148.9" class="st1" width="5.9" height="5.7"/>
			<rect x="58.8" y="143.2" class="st2" width="5.9" height="5.7"/>
			<rect x="58.8" y="137.5" class="st2" width="5.9" height="5.7"/>
			<rect x="58.8" y="131.8" class="st2" width="5.9" height="5.7"/>
			<rect x="58.8" y="126" class="st3" width="5.9" height="5.7"/>
			<rect x="58.8" y="120.3" class="st3" width="5.9" height="5.7"/>
			<rect x="58.8" y="114.6" class="st3" width="5.9" height="5.7"/>
			<rect x="58.8" y="108.9" class="st3" width="5.9" height="5.7"/>
			<rect x="58.8" y="103.2" class="st3" width="5.9" height="5.7"/>
			<rect x="58.8" y="97.4" width="5.9" height="5.7"/>
			<rect x="58.8" y="91.7" class="st3" width="5.9" height="5.7"/>
			<rect x="58.8" y="86" width="5.9" height="5.7"/>
			<rect x="58.8" y="80.3" width="5.9" height="5.7"/>
			<rect x="58.8" y="74.6" class="st3" width="5.9" height="5.7"/>
			<rect x="58.8" y="68.8" class="st3" width="5.9" height="5.7"/>
			<rect x="58.8" y="63.1" class="st3" width="5.9" height="5.7"/>
			<rect x="58.8" y="57.4" class="st3" width="5.9" height="5.7"/>
			<rect x="58.8" y="51.7" class="st3" width="5.9" height="5.7"/>
			<rect x="58.8" y="46" class="st3" width="5.9" height="5.7"/>
			<rect x="52.9" y="154.6" class="st1" width="5.9" height="5.7"/>
			<rect x="52.9" y="148.9" class="st1" width="5.9" height="5.7"/>
			<rect x="52.9" y="143.2" class="st2" width="5.9" height="5.7"/>
			<rect x="52.9" y="137.5" class="st2" width="5.9" height="5.7"/>
			<rect x="52.9" y="131.8" class="st3" width="5.9" height="5.7"/>
			<rect x="52.9" y="126" class="st3" width="5.9" height="5.7"/>
			<rect x="52.9" y="120.3" class="st3" width="5.9" height="5.7"/>
			<rect x="52.9" y="114.6" class="st3" width="5.9" height="5.7"/>
			<rect x="52.9" y="108.9" class="st3" width="5.9" height="5.7"/>
			<rect x="52.9" y="103.2" class="st3" width="5.9" height="5.7"/>
			<rect x="52.9" y="97.4" class="st3" width="5.9" height="5.7"/>
			<rect x="52.9" y="91.7" class="st3" width="5.9" height="5.7"/>
			<rect x="52.9" y="86" width="5.9" height="5.7"/>
			<rect x="52.9" y="80.3" width="5.9" height="5.7"/>
			<rect x="52.9" y="74.6" class="st3" width="5.9" height="5.7"/>
			<rect x="52.9" y="68.8" class="st3" width="5.9" height="5.7"/>
			<rect x="52.9" y="63.1" class="st3" width="5.9" height="5.7"/>
			<rect x="52.9" y="57.4" class="st3" width="5.9" height="5.7"/>
			<rect x="52.9" y="51.7" class="st3" width="5.9" height="5.7"/>
			<rect x="47" y="154.6" class="st1" width="5.9" height="5.7"/>
			<rect x="47" y="148.9" class="st2" width="5.9" height="5.7"/>
			<rect x="47" y="143.2" class="st2" width="5.9" height="5.7"/>
			<rect x="47" y="137.5" class="st3" width="5.9" height="5.7"/>
			<rect x="47" y="131.8" class="st3" width="5.9" height="5.7"/>
			<rect x="47" y="126" class="st3" width="5.9" height="5.7"/>
			<rect x="47" y="120.3" class="st3" width="5.9" height="5.7"/>
			<rect x="47" y="114.6" class="st3" width="5.9" height="5.7"/>
			<rect x="47" y="108.9" class="st3" width="5.9" height="5.7"/>
			<rect x="47" y="103.2" class="st3" width="5.9" height="5.7"/>
			<rect x="47" y="97.4" class="st3" width="5.9" height="5.7"/>
			<rect x="47" y="91.7" class="st3" width="5.9" height="5.7"/>
			<rect x="47" y="86" class="st3" width="5.9" height="5.7"/>
			<rect x="47" y="80.3" class="st3" width="5.9" height="5.7"/>
			<rect x="47" y="74.6" class="st3" width="5.9" height="5.7"/>
			<rect x="47" y="68.8" class="st3" width="5.9" height="5.7"/>
			<rect x="47" y="63.1" class="st3" width="5.9" height="5.7"/>
			<rect x="41.1" y="160.3" class="st1" width="5.9" height="5.7"/>
			<rect x="41.1" y="154.6" class="st1" width="5.9" height="5.7"/>
			<rect x="41.1" y="148.9" class="st2" width="5.9" height="5.7"/>
			<rect x="41.1" y="143.2" class="st2" width="5.9" height="5.7"/>
			<rect x="41.1" y="137.5" class="st3" width="5.9" height="5.7"/>
			<rect x="41.1" y="131.8" class="st3" width="5.9" height="5.7"/>
			<rect x="41.1" y="126" class="st3" width="5.9" height="5.7"/>
			<rect x="41.1" y="120.3" class="st3" width="5.9" height="5.7"/>
			<rect x="41.1" y="114.6" class="st3" width="5.9" height="5.7"/>
			<rect x="41.1" y="108.9" class="st3" width="5.9" height="5.7"/>
			<rect x="41.1" y="103.2" class="st3" width="5.9" height="5.7"/>
			<rect x="41.1" y="97.4" class="st3" width="5.9" height="5.7"/>
			<rect x="41.1" y="91.7" class="st3" width="5.9" height="5.7"/>
			<rect x="41.1" y="86" class="st3" width="5.9" height="5.7"/>
			<rect x="41.1" y="80.3" class="st3" width="5.9" height="5.7"/>
			<rect x="41.1" y="74.6" class="st3" width="5.9" height="5.7"/>
			<rect x="35.2" y="160.3" class="st1" width="5.9" height="5.7"/>
			<rect x="35.2" y="154.6" class="st1" width="5.9" height="5.7"/>
			<rect x="35.2" y="148.9" class="st2" width="5.9" height="5.7"/>
			<rect x="35.2" y="143.2" class="st3" width="5.9" height="5.7"/>
			<rect x="35.2" y="137.5" class="st3" width="5.9" height="5.7"/>
			<rect x="35.2" y="131.8" class="st3" width="5.9" height="5.7"/>
			<rect x="35.2" y="126" class="st3" width="5.9" height="5.7"/>
			<rect x="35.2" y="120.3" class="st3" width="5.9" height="5.7"/>
			<rect x="35.2" y="114.6" class="st3" width="5.9" height="5.7"/>
			<rect x="35.2" y="108.9" class="st3" width="5.9" height="5.7"/>
			<rect x="35.2" y="103.2" class="st3" width="5.9" height="5.7"/>
			<rect x="35.2" y="97.4" class="st3" width="5.9" height="5.7"/>
			<rect x="35.2" y="91.7" class="st3" width="5.9" height="5.7"/>
			<rect x="35.2" y="86" class="st3" width="5.9" height="5.7"/>
			<rect x="29.3" y="166.1" class="st1" width="5.9" height="5.7"/>
			<rect x="29.3" y="160.3" class="st1" width="5.9" height="5.7"/>
			<rect x="29.3" y="154.6" class="st2" width="5.9" height="5.7"/>
			<rect x="29.3" y="148.9" class="st2" width="5.9" height="5.7"/>
			<rect x="29.3" y="143.2" class="st3" width="5.9" height="5.7"/>
			<rect x="29.3" y="137.5" class="st3" width="5.9" height="5.7"/>
			<rect x="29.3" y="131.8" class="st3" width="5.9" height="5.7"/>
			<rect x="29.3" y="126" class="st3" width="5.9" height="5.7"/>
			<rect x="29.3" y="120.3" class="st3" width="5.9" height="5.7"/>
			<rect x="29.3" y="114.6" class="st3" width="5.9" height="5.7"/>
			<rect x="29.3" y="108.9" class="st3" width="5.9" height="5.7"/>
			<rect x="29.3" y="103.2" class="st3" width="5.9" height="5.7"/>
			<rect x="29.3" y="97.4" class="st3" width="5.9" height="5.7"/>
			<rect x="23.4" y="166.1" class="st1" width="5.9" height="5.7"/>
			<rect x="23.4" y="160.3" class="st2" width="5.9" height="5.7"/>
			<rect x="23.4" y="154.6" class="st2" width="5.9" height="5.7"/>
			<rect x="23.4" y="148.9" class="st3" width="5.9" height="5.7"/>
			<rect x="23.4" y="143.2" class="st3" width="5.9" height="5.7"/>
			<rect x="23.4" y="137.5" class="st3" width="5.9" height="5.7"/>
			<rect x="23.4" y="131.8" class="st3" width="5.9" height="5.7"/>
			<rect x="23.4" y="126" class="st3" width="5.9" height="5.7"/>
			<rect x="23.4" y="120.3" class="st3" width="5.9" height="5.7"/>
			<rect x="23.4" y="114.6" class="st3" width="5.9" height="5.7"/>
			<rect x="17.5" y="166.1" class="st1" width="5.9" height="5.7"/>
			<rect x="17.5" y="160.3" class="st2" width="5.9" height="5.7"/>
			<rect x="17.5" y="154.6" class="st2" width="5.9" height="5.7"/>
			<rect x="17.5" y="148.9" class="st3" width="5.9" height="5.7"/>
			<rect x="17.5" y="143.2" class="st3" width="5.9" height="5.7"/>
			<rect x="17.5" y="137.5" class="st3" width="5.9" height="5.7"/>
			<rect x="17.5" y="131.8" class="st3" width="5.9" height="5.7"/>
			<rect x="11.6" y="166.1" class="st1" width="5.9" height="5.7"/>
			<rect x="11.6" y="160.3" class="st2" width="5.9" height="5.7"/>
			<rect x="11.6" y="154.6" class="st2" width="5.9" height="5.7"/>
		</g>
		<g>
		</g>
	</g>
</g>
</svg>
