<svg id="Capa_1" data-name="Capa 1" xmlns="http://www.w3.org/2000/svg" viewBox="0 0 188.88 183.33"><defs><style>.cls-1{fill:#00ad43;}.cls-2{fill:#fabd59;}.cls-3{fill:#f9ac2f;}.cls-4{fill:#009c3c;}.cls-5{fill:#008a36;}.cls-6{fill:#f98e2f;}.cls-7{fill:#fab444;}</style></defs><rect class="cls-1" x="183.33" y="144.45" width="5.55" height="5.55"/><rect class="cls-1" x="183.33" y="138.89" width="5.55" height="5.56"/><rect class="cls-1" x="183.33" y="133.33" width="5.55" height="5.56"/><rect class="cls-2" x="183.33" y="33.33" width="5.55" height="5.56"/><rect class="cls-3" x="183.33" y="27.78" width="5.55" height="5.55"/><rect class="cls-2" x="183.33" y="22.22" width="5.55" height="5.56"/><rect class="cls-2" x="183.33" y="16.67" width="5.55" height="5.55"/><rect class="cls-2" x="183.33" y="11.11" width="5.55" height="5.56"/><rect class="cls-2" x="183.33" y="5.56" width="5.55" height="5.55"/><rect class="cls-1" x="177.77" y="138.89" width="5.56" height="5.56"/><rect class="cls-1" x="177.77" y="133.33" width="5.56" height="5.56"/><rect class="cls-1" x="177.77" y="127.78" width="5.56" height="5.55"/><rect class="cls-2" x="177.77" y="44.45" width="5.56" height="5.55"/><rect class="cls-3" x="177.77" y="38.89" width="5.56" height="5.56"/><rect class="cls-3" x="177.77" y="33.33" width="5.56" height="5.56"/><rect class="cls-2" x="177.77" y="27.78" width="5.56" height="5.55"/><rect class="cls-2" x="177.77" y="22.22" width="5.56" height="5.56"/><rect class="cls-2" x="177.77" y="16.67" width="5.56" height="5.55"/><rect class="cls-2" x="177.77" y="11.11" width="5.56" height="5.56"/><rect class="cls-2" x="177.77" y="5.56" width="5.56" height="5.55"/><rect class="cls-2" x="177.77" width="5.56" height="5.56"/><rect class="cls-1" x="172.22" y="133.33" width="5.55" height="5.56"/><rect class="cls-1" x="172.22" y="127.78" width="5.55" height="5.55"/><rect class="cls-3" x="172.22" y="50" width="5.55" height="5.56"/><rect class="cls-3" x="172.22" y="44.45" width="5.55" height="5.55"/><rect class="cls-3" x="172.22" y="38.89" width="5.55" height="5.56"/><rect class="cls-2" x="172.22" y="33.33" width="5.55" height="5.56"/><rect class="cls-2" x="172.22" y="27.78" width="5.55" height="5.55"/><rect class="cls-2" x="172.22" y="22.22" width="5.55" height="5.56"/><rect class="cls-2" x="172.22" y="16.67" width="5.55" height="5.55"/><rect class="cls-2" x="172.22" y="11.11" width="5.55" height="5.56"/><rect class="cls-2" x="172.22" y="5.56" width="5.55" height="5.55"/><rect class="cls-2" x="172.22" width="5.55" height="5.56"/><rect class="cls-1" x="166.66" y="133.33" width="5.56" height="5.56"/><rect class="cls-4" x="166.66" y="127.78" width="5.56" height="5.55"/><rect class="cls-3" x="166.66" y="61.11" width="5.56" height="5.56"/><rect class="cls-3" x="166.66" y="55.56" width="5.56" height="5.55"/><rect class="cls-3" x="166.66" y="50" width="5.56" height="5.56"/><rect class="cls-2" x="166.66" y="44.45" width="5.56" height="5.55"/><rect class="cls-3" x="166.66" y="38.89" width="5.56" height="5.56"/><rect class="cls-2" x="166.66" y="33.33" width="5.56" height="5.56"/><rect class="cls-2" x="166.66" y="27.78" width="5.56" height="5.55"/><rect class="cls-2" x="166.66" y="22.22" width="5.56" height="5.56"/><rect class="cls-2" x="166.66" y="16.67" width="5.56" height="5.55"/><rect class="cls-2" x="166.66" y="11.11" width="5.56" height="5.56"/><rect class="cls-2" x="166.66" y="5.56" width="5.56" height="5.55"/><rect class="cls-2" x="166.66" width="5.56" height="5.56"/><rect class="cls-1" x="161.11" y="133.33" width="5.55" height="5.56"/><rect class="cls-4" x="161.11" y="127.78" width="5.55" height="5.55"/><rect class="cls-5" x="161.11" y="122.22" width="5.55" height="5.56"/><rect class="cls-6" x="161.11" y="72.22" width="5.55" height="5.56"/><rect class="cls-6" x="161.11" y="66.67" width="5.55" height="5.55"/><rect class="cls-3" x="161.11" y="61.11" width="5.55" height="5.56"/><rect class="cls-3" x="161.11" y="55.56" width="5.55" height="5.55"/><rect class="cls-2" x="161.11" y="50" width="5.55" height="5.56"/><rect class="cls-3" x="161.11" y="44.45" width="5.55" height="5.55"/><rect class="cls-2" x="161.11" y="38.89" width="5.55" height="5.56"/><rect class="cls-2" x="161.11" y="33.33" width="5.55" height="5.56"/><rect class="cls-2" x="161.11" y="27.78" width="5.55" height="5.55"/><rect class="cls-2" x="161.11" y="22.22" width="5.55" height="5.56"/><rect class="cls-2" x="161.11" y="16.67" width="5.55" height="5.55"/><rect class="cls-2" x="161.11" y="11.11" width="5.55" height="5.56"/><rect class="cls-2" x="161.11" y="5.56" width="5.55" height="5.55"/><rect class="cls-2" x="161.11" width="5.55" height="5.56"/><rect class="cls-1" x="155.55" y="138.89" width="5.56" height="5.56"/><rect class="cls-1" x="155.55" y="133.33" width="5.56" height="5.56"/><rect class="cls-4" x="155.55" y="127.78" width="5.56" height="5.55"/><rect class="cls-5" x="155.55" y="122.22" width="5.56" height="5.56"/><rect class="cls-5" x="155.55" y="116.67" width="5.56" height="5.55"/><rect class="cls-6" x="155.55" y="77.78" width="5.56" height="5.55"/><rect class="cls-6" x="155.55" y="72.22" width="5.56" height="5.56"/><rect class="cls-3" x="155.55" y="66.67" width="5.56" height="5.55"/><rect class="cls-3" x="155.55" y="61.11" width="5.56" height="5.56"/><rect class="cls-2" x="155.55" y="55.56" width="5.56" height="5.55"/><rect class="cls-3" x="155.55" y="50" width="5.56" height="5.56"/><rect class="cls-2" x="155.55" y="44.45" width="5.56" height="5.55"/><rect class="cls-2" x="155.55" y="38.89" width="5.56" height="5.56"/><rect class="cls-2" x="155.55" y="33.33" width="5.56" height="5.56"/><rect class="cls-2" x="155.55" y="27.78" width="5.56" height="5.55"/><rect class="cls-2" x="155.55" y="22.22" width="5.56" height="5.56"/><rect class="cls-2" x="155.55" y="16.67" width="5.56" height="5.55"/><rect class="cls-2" x="155.55" y="11.11" width="5.56" height="5.56"/><rect class="cls-2" x="155.55" y="5.56" width="5.56" height="5.55"/><rect class="cls-7" x="155.55" width="5.56" height="5.56"/><rect class="cls-1" x="150" y="138.89" width="5.55" height="5.56"/><rect class="cls-1" x="150" y="133.33" width="5.55" height="5.56"/><rect class="cls-4" x="150" y="127.78" width="5.55" height="5.55"/><rect class="cls-5" x="150" y="122.22" width="5.55" height="5.56"/><rect class="cls-5" x="150" y="116.67" width="5.55" height="5.55"/><rect class="cls-6" x="150" y="83.33" width="5.55" height="5.56"/><rect class="cls-6" x="150" y="77.78" width="5.55" height="5.55"/><rect class="cls-3" x="150" y="72.22" width="5.55" height="5.56"/><rect class="cls-3" x="150" y="66.67" width="5.55" height="5.55"/><rect class="cls-3" x="150" y="61.11" width="5.55" height="5.56"/><rect class="cls-3" x="150" y="55.56" width="5.55" height="5.55"/><rect class="cls-2" x="150" y="50" width="5.55" height="5.56"/><rect class="cls-2" x="150" y="44.45" width="5.55" height="5.55"/><rect class="cls-2" x="150" y="38.89" width="5.55" height="5.56"/><rect class="cls-2" x="150" y="33.33" width="5.55" height="5.56"/><rect class="cls-2" x="150" y="27.78" width="5.55" height="5.55"/><rect class="cls-2" x="150" y="22.22" width="5.55" height="5.56"/><rect class="cls-2" x="150" y="16.67" width="5.55" height="5.55"/><rect class="cls-2" x="150" y="11.11" width="5.55" height="5.56"/><rect class="cls-7" x="150" y="5.56" width="5.55" height="5.55"/><rect class="cls-7" x="150" width="5.55" height="5.56"/><rect class="cls-1" x="144.44" y="144.45" width="5.56" height="5.55"/><rect class="cls-1" x="144.44" y="138.89" width="5.56" height="5.56"/><rect class="cls-4" x="144.44" y="133.33" width="5.56" height="5.56"/><rect class="cls-4" x="144.44" y="127.78" width="5.56" height="5.55"/><rect class="cls-5" x="144.44" y="122.22" width="5.56" height="5.56"/><rect class="cls-5" x="144.44" y="116.67" width="5.56" height="5.55"/><rect class="cls-6" x="144.44" y="94.45" width="5.56" height="5.55"/><rect class="cls-6" x="144.44" y="88.89" width="5.56" height="5.56"/><rect class="cls-6" x="144.44" y="83.33" width="5.56" height="5.56"/><rect class="cls-3" x="144.44" y="77.78" width="5.56" height="5.55"/><rect class="cls-3" x="144.44" y="72.22" width="5.56" height="5.56"/><rect class="cls-2" x="144.44" y="66.67" width="5.56" height="5.55"/><rect class="cls-3" x="144.44" y="61.11" width="5.56" height="5.56"/><rect class="cls-2" x="144.44" y="55.56" width="5.56" height="5.55"/><rect class="cls-2" x="144.44" y="50" width="5.56" height="5.56"/><rect class="cls-2" x="144.44" y="44.45" width="5.56" height="5.55"/><rect class="cls-2" x="144.44" y="38.89" width="5.56" height="5.56"/><rect class="cls-2" x="144.44" y="33.33" width="5.56" height="5.56"/><rect class="cls-2" x="144.44" y="27.78" width="5.56" height="5.55"/><rect class="cls-2" x="144.44" y="22.22" width="5.56" height="5.56"/><rect class="cls-2" x="144.44" y="16.67" width="5.56" height="5.55"/><rect class="cls-2" x="144.44" y="11.11" width="5.56" height="5.56"/><rect class="cls-7" x="144.44" y="5.56" width="5.56" height="5.55"/><rect class="cls-2" x="144.44" width="5.56" height="5.56"/><rect class="cls-1" x="138.88" y="144.45" width="5.56" height="5.55"/><rect class="cls-1" x="138.88" y="138.89" width="5.56" height="5.56"/><rect class="cls-4" x="138.88" y="133.33" width="5.56" height="5.56"/><rect class="cls-5" x="138.88" y="127.78" width="5.56" height="5.55"/><rect class="cls-5" x="138.88" y="122.22" width="5.56" height="5.56"/><rect class="cls-5" x="138.88" y="116.67" width="5.56" height="5.55"/><rect class="cls-6" x="138.88" y="105.56" width="5.56" height="5.55"/><rect class="cls-6" x="138.88" y="100" width="5.56" height="5.56"/><rect class="cls-6" x="138.88" y="94.45" width="5.56" height="5.55"/><rect class="cls-6" x="138.88" y="88.89" width="5.56" height="5.56"/><rect class="cls-3" x="138.88" y="83.33" width="5.56" height="5.56"/><rect class="cls-3" x="138.88" y="77.78" width="5.56" height="5.55"/><rect class="cls-2" x="138.88" y="72.22" width="5.56" height="5.56"/><rect class="cls-3" x="138.88" y="66.67" width="5.56" height="5.55"/><rect class="cls-2" x="138.88" y="61.11" width="5.56" height="5.56"/><rect class="cls-2" x="138.88" y="55.56" width="5.56" height="5.55"/><rect class="cls-2" x="138.88" y="50" width="5.56" height="5.56"/><rect class="cls-2" x="138.88" y="44.45" width="5.56" height="5.55"/><rect class="cls-2" x="138.88" y="38.89" width="5.56" height="5.56"/><rect class="cls-2" x="138.88" y="33.33" width="5.56" height="5.56"/><rect class="cls-2" x="138.88" y="27.78" width="5.56" height="5.55"/><rect class="cls-2" x="138.88" y="22.22" width="5.56" height="5.56"/><rect class="cls-7" x="138.88" y="16.67" width="5.56" height="5.55"/><rect class="cls-7" x="138.88" y="11.11" width="5.56" height="5.56"/><rect class="cls-2" x="138.88" y="5.56" width="5.56" height="5.55"/><rect class="cls-1" x="133.33" y="144.45" width="5.55" height="5.55"/><rect class="cls-4" x="133.33" y="138.89" width="5.55" height="5.56"/><rect class="cls-4" x="133.33" y="133.33" width="5.55" height="5.56"/><rect class="cls-5" x="133.33" y="127.78" width="5.55" height="5.55"/><rect class="cls-5" x="133.33" y="122.22" width="5.55" height="5.56"/><rect class="cls-5" x="133.33" y="116.67" width="5.55" height="5.55"/><rect class="cls-6" x="133.33" y="111.11" width="5.55" height="5.56"/><rect class="cls-6" x="133.33" y="105.56" width="5.55" height="5.55"/><rect class="cls-6" x="133.33" y="100" width="5.55" height="5.56"/><rect class="cls-6" x="133.33" y="94.45" width="5.55" height="5.55"/><rect class="cls-3" x="133.33" y="88.89" width="5.55" height="5.56"/><rect class="cls-3" x="133.33" y="83.33" width="5.55" height="5.56"/><rect class="cls-3" x="133.33" y="77.78" width="5.55" height="5.55"/><rect class="cls-2" x="133.33" y="72.22" width="5.55" height="5.56"/><rect class="cls-3" x="133.33" y="66.67" width="5.55" height="5.55"/><rect class="cls-2" x="133.33" y="61.11" width="5.55" height="5.56"/><rect class="cls-2" x="133.33" y="55.56" width="5.55" height="5.55"/><rect class="cls-2" x="133.33" y="50" width="5.55" height="5.56"/><rect class="cls-2" x="133.33" y="44.45" width="5.55" height="5.55"/><rect class="cls-2" x="133.33" y="38.89" width="5.55" height="5.56"/><rect class="cls-2" x="133.33" y="33.33" width="5.55" height="5.56"/><rect class="cls-2" x="133.33" y="27.78" width="5.55" height="5.55"/><rect class="cls-7" x="133.33" y="22.22" width="5.55" height="5.56"/><rect class="cls-7" x="133.33" y="16.67" width="5.55" height="5.55"/><rect class="cls-2" x="133.33" y="11.11" width="5.55" height="5.56"/><rect class="cls-4" x="127.77" y="144.45" width="5.56" height="5.55"/><rect class="cls-4" x="127.77" y="138.89" width="5.56" height="5.56"/><rect class="cls-5" x="127.77" y="133.33" width="5.56" height="5.56"/><rect class="cls-5" x="127.77" y="127.78" width="5.56" height="5.55"/><rect class="cls-5" x="127.77" y="122.22" width="5.56" height="5.56"/><rect class="cls-6" x="127.77" y="116.67" width="5.56" height="5.55"/><rect class="cls-6" x="127.77" y="111.11" width="5.56" height="5.56"/><rect class="cls-6" x="127.77" y="105.56" width="5.56" height="5.55"/><rect class="cls-6" x="127.77" y="100" width="5.56" height="5.56"/><rect class="cls-3" x="127.77" y="94.45" width="5.56" height="5.55"/><rect class="cls-3" x="127.77" y="88.89" width="5.56" height="5.56"/><rect class="cls-3" x="127.77" y="83.33" width="5.56" height="5.56"/><rect class="cls-2" x="127.77" y="77.78" width="5.56" height="5.55"/><rect class="cls-3" x="127.77" y="72.22" width="5.56" height="5.56"/><rect class="cls-2" x="127.77" y="66.67" width="5.56" height="5.55"/><rect class="cls-2" x="127.77" y="61.11" width="5.56" height="5.56"/><rect class="cls-2" x="127.77" y="55.56" width="5.56" height="5.55"/><rect class="cls-2" x="127.77" y="50" width="5.56" height="5.56"/><rect class="cls-2" x="127.77" y="44.45" width="5.56" height="5.55"/><rect class="cls-2" x="127.77" y="38.89" width="5.56" height="5.56"/><rect class="cls-2" x="127.77" y="33.33" width="5.56" height="5.56"/><rect class="cls-7" x="127.77" y="27.78" width="5.56" height="5.55"/><rect class="cls-2" x="127.77" y="22.22" width="5.56" height="5.56"/><rect class="cls-2" x="127.77" y="16.67" width="5.56" height="5.55"/><rect class="cls-4" x="122.22" y="155.56" width="5.55" height="5.55"/><rect class="cls-4" x="122.22" y="150" width="5.55" height="5.56"/><rect class="cls-4" x="122.22" y="144.45" width="5.55" height="5.55"/><rect class="cls-5" x="122.22" y="138.89" width="5.55" height="5.56"/><rect class="cls-5" x="122.22" y="133.33" width="5.55" height="5.56"/><rect class="cls-6" x="122.22" y="127.78" width="5.55" height="5.55"/><rect class="cls-6" x="122.22" y="122.22" width="5.55" height="5.56"/><rect class="cls-6" x="122.22" y="116.67" width="5.55" height="5.55"/><rect class="cls-6" x="122.22" y="111.11" width="5.55" height="5.56"/><rect class="cls-6" x="122.22" y="105.56" width="5.55" height="5.55"/><rect class="cls-6" x="122.22" y="100" width="5.55" height="5.56"/><rect class="cls-3" x="122.22" y="94.45" width="5.55" height="5.55"/><rect class="cls-3" x="122.22" y="88.89" width="5.55" height="5.56"/><rect class="cls-2" x="122.22" y="83.33" width="5.55" height="5.56"/><rect class="cls-3" x="122.22" y="77.78" width="5.55" height="5.55"/><rect class="cls-2" x="122.22" y="72.22" width="5.55" height="5.56"/><rect class="cls-2" x="122.22" y="66.67" width="5.55" height="5.55"/><rect class="cls-2" x="122.22" y="61.11" width="5.55" height="5.56"/><rect class="cls-2" x="122.22" y="55.56" width="5.55" height="5.55"/><rect class="cls-2" x="122.22" y="50" width="5.55" height="5.56"/><rect class="cls-2" x="122.22" y="44.45" width="5.55" height="5.55"/><rect class="cls-2" x="122.22" y="38.89" width="5.55" height="5.56"/><rect class="cls-7" x="122.22" y="33.33" width="5.55" height="5.56"/><rect class="cls-7" x="122.22" y="27.78" width="5.55" height="5.55"/><rect class="cls-2" x="122.22" y="22.22" width="5.55" height="5.56"/><rect class="cls-4" x="116.66" y="155.56" width="5.56" height="5.55"/><rect class="cls-4" x="116.66" y="150" width="5.56" height="5.56"/><rect class="cls-5" x="116.66" y="144.45" width="5.56" height="5.55"/><rect class="cls-5" x="116.66" y="138.89" width="5.56" height="5.56"/><rect class="cls-6" x="116.66" y="133.33" width="5.56" height="5.56"/><rect class="cls-6" x="116.66" y="127.78" width="5.56" height="5.55"/><rect x="116.66" y="122.22" width="5.56" height="5.56"/><rect x="116.66" y="116.67" width="5.56" height="5.55"/><rect class="cls-6" x="116.66" y="111.11" width="5.56" height="5.56"/><rect class="cls-6" x="116.66" y="105.56" width="5.56" height="5.55"/><rect class="cls-3" x="116.66" y="100" width="5.56" height="5.56"/><rect class="cls-3" x="116.66" y="94.45" width="5.56" height="5.55"/><rect class="cls-2" x="116.66" y="88.89" width="5.56" height="5.56"/><rect class="cls-2" x="116.66" y="83.33" width="5.56" height="5.56"/><rect class="cls-3" x="116.66" y="77.78" width="5.56" height="5.55"/><rect class="cls-2" x="116.66" y="72.22" width="5.56" height="5.56"/><rect class="cls-2" x="116.66" y="66.67" width="5.56" height="5.55"/><rect class="cls-2" x="116.66" y="61.11" width="5.56" height="5.56"/><rect class="cls-2" x="116.66" y="55.56" width="5.56" height="5.55"/><rect class="cls-2" x="116.66" y="50" width="5.56" height="5.56"/><rect class="cls-2" x="116.66" y="44.45" width="5.56" height="5.55"/><rect class="cls-2" x="116.66" y="38.89" width="5.56" height="5.56"/><rect class="cls-7" x="116.66" y="33.33" width="5.56" height="5.56"/><rect class="cls-2" x="116.66" y="27.78" width="5.56" height="5.55"/><rect class="cls-5" x="111.11" y="155.56" width="5.55" height="5.55"/><rect class="cls-5" x="111.11" y="150" width="5.55" height="5.56"/><rect class="cls-5" x="111.11" y="144.45" width="5.55" height="5.55"/><rect class="cls-6" x="111.11" y="138.89" width="5.55" height="5.56"/><rect class="cls-6" x="111.11" y="133.33" width="5.55" height="5.56"/><rect class="cls-6" x="111.11" y="127.78" width="5.55" height="5.55"/><rect x="111.11" y="122.22" width="5.55" height="5.56"/><rect x="111.11" y="116.67" width="5.55" height="5.55"/><rect class="cls-6" x="111.11" y="111.11" width="5.55" height="5.56"/><rect class="cls-3" x="111.11" y="105.56" width="5.55" height="5.55"/><rect class="cls-3" x="111.11" y="100" width="5.55" height="5.56"/><rect class="cls-3" x="111.11" y="94.45" width="5.55" height="5.55"/><rect class="cls-2" x="111.11" y="88.89" width="5.55" height="5.56"/><rect class="cls-3" x="111.11" y="83.33" width="5.55" height="5.56"/><rect class="cls-2" x="111.11" y="77.78" width="5.55" height="5.55"/><rect class="cls-2" x="111.11" y="72.22" width="5.55" height="5.56"/><rect class="cls-2" x="111.11" y="66.67" width="5.55" height="5.55"/><rect class="cls-2" x="111.11" y="61.11" width="5.55" height="5.56"/><rect class="cls-2" x="111.11" y="55.56" width="5.55" height="5.55"/><rect class="cls-2" x="111.11" y="50" width="5.55" height="5.56"/><rect class="cls-2" x="111.11" y="44.45" width="5.55" height="5.55"/><rect class="cls-2" x="111.11" y="38.89" width="5.55" height="5.56"/><rect class="cls-2" x="111.11" y="33.33" width="5.55" height="5.56"/><rect class="cls-5" x="105.55" y="161.11" width="5.56" height="5.56"/><rect class="cls-5" x="105.55" y="155.56" width="5.56" height="5.55"/><rect class="cls-5" x="105.55" y="150" width="5.56" height="5.56"/><rect class="cls-6" x="105.55" y="144.45" width="5.56" height="5.55"/><rect class="cls-6" x="105.55" y="138.89" width="5.56" height="5.56"/><rect class="cls-6" x="105.55" y="133.33" width="5.56" height="5.56"/><rect class="cls-6" x="105.55" y="127.78" width="5.56" height="5.55"/><rect class="cls-6" x="105.55" y="122.22" width="5.56" height="5.56"/><rect class="cls-6" x="105.55" y="116.67" width="5.56" height="5.55"/><rect class="cls-6" x="105.55" y="111.11" width="5.56" height="5.56"/><rect class="cls-3" x="105.55" y="105.56" width="5.56" height="5.55"/><rect class="cls-3" x="105.55" y="100" width="5.56" height="5.56"/><rect class="cls-2" x="105.55" y="94.45" width="5.56" height="5.55"/><rect class="cls-3" x="105.55" y="88.89" width="5.56" height="5.56"/><rect class="cls-3" x="105.55" y="83.33" width="5.56" height="5.56"/><rect class="cls-2" x="105.55" y="77.78" width="5.56" height="5.55"/><rect class="cls-2" x="105.55" y="72.22" width="5.56" height="5.56"/><rect class="cls-2" x="105.55" y="66.67" width="5.56" height="5.55"/><rect class="cls-2" x="105.55" y="61.11" width="5.56" height="5.56"/><rect class="cls-2" x="105.55" y="55.56" width="5.56" height="5.55"/><rect class="cls-2" x="105.55" y="50" width="5.56" height="5.56"/><rect class="cls-7" x="105.55" y="44.45" width="5.56" height="5.55"/><rect class="cls-2" x="105.55" y="38.89" width="5.56" height="5.56"/><rect class="cls-5" x="100" y="161.11" width="5.55" height="5.56"/><rect class="cls-5" x="100" y="155.56" width="5.55" height="5.55"/><rect class="cls-6" x="100" y="150" width="5.55" height="5.56"/><rect class="cls-6" x="100" y="144.45" width="5.55" height="5.55"/><rect class="cls-6" x="100" y="138.89" width="5.55" height="5.56"/><rect class="cls-6" x="100" y="133.33" width="5.55" height="5.56"/><rect class="cls-6" x="100" y="127.78" width="5.55" height="5.55"/><rect x="100" y="122.22" width="5.55" height="5.56"/><rect class="cls-6" x="100" y="116.67" width="5.55" height="5.55"/><rect class="cls-3" x="100" y="111.11" width="5.55" height="5.56"/><rect class="cls-3" x="100" y="105.56" width="5.55" height="5.55"/><rect class="cls-2" x="100" y="100" width="5.55" height="5.56"/><rect class="cls-3" x="100" y="94.45" width="5.55" height="5.55"/><rect class="cls-3" x="100" y="88.89" width="5.55" height="5.56"/><rect class="cls-2" x="100" y="83.33" width="5.55" height="5.56"/><rect class="cls-2" x="100" y="77.78" width="5.55" height="5.55"/><rect class="cls-2" x="100" y="72.22" width="5.55" height="5.56"/><rect class="cls-2" x="100" y="66.67" width="5.55" height="5.55"/><rect class="cls-2" x="100" y="61.11" width="5.55" height="5.56"/><rect class="cls-2" x="100" y="55.56" width="5.55" height="5.55"/><rect class="cls-2" x="100" y="50" width="5.55" height="5.56"/><rect class="cls-2" x="100" y="44.45" width="5.55" height="5.55"/><rect class="cls-5" x="94.44" y="161.11" width="5.56" height="5.56"/><rect class="cls-6" x="94.44" y="155.56" width="5.56" height="5.55"/><rect class="cls-6" x="94.44" y="150" width="5.56" height="5.56"/><rect class="cls-6" x="94.44" y="144.45" width="5.56" height="5.55"/><rect class="cls-6" x="94.44" y="138.89" width="5.56" height="5.56"/><rect class="cls-6" x="94.44" y="133.33" width="5.56" height="5.56"/><rect class="cls-6" x="94.44" y="127.78" width="5.56" height="5.55"/><rect x="94.44" y="122.22" width="5.56" height="5.56"/><rect class="cls-6" x="94.44" y="116.67" width="5.56" height="5.55"/><rect class="cls-3" x="94.44" y="111.11" width="5.56" height="5.56"/><rect class="cls-3" x="94.44" y="105.56" width="5.56" height="5.55"/><rect class="cls-2" x="94.44" y="100" width="5.56" height="5.56"/><rect class="cls-2" x="94.44" y="94.45" width="5.56" height="5.55"/><rect class="cls-3" x="94.44" y="88.89" width="5.56" height="5.56"/><rect class="cls-2" x="94.44" y="83.33" width="5.56" height="5.56"/><rect class="cls-2" x="94.44" y="77.78" width="5.56" height="5.55"/><rect class="cls-2" x="94.44" y="72.22" width="5.56" height="5.56"/><rect class="cls-2" x="94.44" y="66.67" width="5.56" height="5.55"/><rect class="cls-7" x="94.44" y="61.11" width="5.56" height="5.56"/><rect class="cls-7" x="94.44" y="55.56" width="5.56" height="5.55"/><rect class="cls-7" x="94.44" y="50" width="5.56" height="5.56"/><rect class="cls-5" x="88.88" y="166.67" width="5.56" height="5.55"/><rect class="cls-5" x="88.88" y="161.11" width="5.56" height="5.56"/><rect class="cls-6" x="88.88" y="155.56" width="5.56" height="5.55"/><rect class="cls-6" x="88.88" y="150" width="5.56" height="5.56"/><rect class="cls-6" x="88.88" y="144.45" width="5.56" height="5.55"/><rect class="cls-6" x="88.88" y="138.89" width="5.56" height="5.56"/><rect class="cls-6" x="88.88" y="133.33" width="5.56" height="5.56"/><rect class="cls-6" x="88.88" y="127.78" width="5.56" height="5.55"/><rect class="cls-6" x="88.88" y="122.22" width="5.56" height="5.56"/><rect x="88.88" y="116.67" width="5.56" height="5.55"/><rect class="cls-3" x="88.88" y="111.11" width="5.56" height="5.56"/><rect class="cls-3" x="88.88" y="105.56" width="5.56" height="5.55"/><rect class="cls-2" x="88.88" y="100" width="5.56" height="5.56"/><rect class="cls-3" x="88.88" y="94.45" width="5.56" height="5.55"/><rect class="cls-2" x="88.88" y="88.89" width="5.56" height="5.56"/><rect class="cls-2" x="88.88" y="83.33" width="5.56" height="5.56"/><rect class="cls-2" x="88.88" y="77.78" width="5.56" height="5.55"/><rect class="cls-2" x="88.88" y="72.22" width="5.56" height="5.56"/><rect class="cls-2" x="88.88" y="66.67" width="5.56" height="5.55"/><rect class="cls-2" x="88.88" y="61.11" width="5.56" height="5.56"/><rect class="cls-2" x="88.88" y="55.56" width="5.56" height="5.55"/><rect class="cls-1" x="88.88" y="50" width="5.56" height="5.56"/><rect class="cls-1" x="88.88" y="44.45" width="5.56" height="5.55"/><rect class="cls-1" x="88.88" y="38.89" width="5.56" height="5.56"/><rect class="cls-1" x="88.88" y="33.33" width="5.56" height="5.56"/><rect class="cls-1" x="88.88" y="27.78" width="5.56" height="5.55"/><rect class="cls-1" x="88.88" y="22.22" width="5.56" height="5.56"/><rect class="cls-1" x="88.88" y="16.67" width="5.56" height="5.55"/><rect class="cls-1" x="88.88" y="11.11" width="5.56" height="5.56"/><rect class="cls-1" x="88.88" y="5.56" width="5.56" height="5.55"/><rect class="cls-1" x="88.88" width="5.56" height="5.56"/><rect class="cls-5" x="83.33" y="172.22" width="5.55" height="5.56"/><rect class="cls-5" x="83.33" y="166.67" width="5.55" height="5.55"/><rect class="cls-6" x="83.33" y="161.11" width="5.55" height="5.56"/><rect class="cls-6" x="83.33" y="155.56" width="5.55" height="5.55"/><rect class="cls-6" x="83.33" y="150" width="5.55" height="5.56"/><rect class="cls-6" x="83.33" y="144.45" width="5.55" height="5.55"/><rect class="cls-6" x="83.33" y="138.89" width="5.55" height="5.56"/><rect class="cls-6" x="83.33" y="133.33" width="5.55" height="5.56"/><rect class="cls-6" x="83.33" y="127.78" width="5.55" height="5.55"/><rect class="cls-6" x="83.33" y="122.22" width="5.55" height="5.56"/><rect class="cls-3" x="83.33" y="116.67" width="5.55" height="5.55"/><rect x="83.33" y="111.11" width="5.55" height="5.56"/><rect class="cls-2" x="83.33" y="105.56" width="5.55" height="5.55"/><rect class="cls-3" x="83.33" y="100" width="5.55" height="5.56"/><rect class="cls-2" x="83.33" y="94.45" width="5.55" height="5.55"/><rect class="cls-2" x="83.33" y="88.89" width="5.55" height="5.56"/><rect class="cls-2" x="83.33" y="83.33" width="5.55" height="5.56"/><rect class="cls-2" x="83.33" y="77.78" width="5.55" height="5.55"/><rect class="cls-7" x="83.33" y="72.22" width="5.55" height="5.56"/><rect class="cls-7" x="83.33" y="66.67" width="5.55" height="5.55"/><rect class="cls-2" x="83.33" y="61.11" width="5.55" height="5.56"/><rect class="cls-4" x="83.33" y="55.56" width="5.55" height="5.55"/><rect class="cls-4" x="83.33" y="50" width="5.55" height="5.56"/><rect class="cls-4" x="83.33" y="44.45" width="5.55" height="5.55"/><rect class="cls-4" x="83.33" y="38.89" width="5.55" height="5.56"/><rect class="cls-4" x="83.33" y="33.33" width="5.55" height="5.56"/><rect class="cls-4" x="83.33" y="27.78" width="5.55" height="5.55"/><rect class="cls-1" x="83.33" y="22.22" width="5.55" height="5.56"/><rect class="cls-1" x="83.33" y="16.67" width="5.55" height="5.55"/><rect class="cls-1" x="83.33" y="11.11" width="5.55" height="5.56"/><rect class="cls-5" x="77.77" y="172.22" width="5.56" height="5.56"/><rect class="cls-6" x="77.77" y="166.67" width="5.56" height="5.55"/><rect class="cls-6" x="77.77" y="161.11" width="5.56" height="5.56"/><rect class="cls-6" x="77.77" y="155.56" width="5.56" height="5.55"/><rect class="cls-6" x="77.77" y="150" width="5.56" height="5.56"/><rect class="cls-6" x="77.77" y="144.45" width="5.56" height="5.55"/><rect class="cls-6" x="77.77" y="138.89" width="5.56" height="5.56"/><rect class="cls-6" x="77.77" y="133.33" width="5.56" height="5.56"/><rect class="cls-6" x="77.77" y="127.78" width="5.56" height="5.55"/><rect class="cls-3" x="77.77" y="122.22" width="5.56" height="5.56"/><rect class="cls-3" x="77.77" y="116.67" width="5.56" height="5.55"/><rect class="cls-2" x="77.77" y="111.11" width="5.56" height="5.56"/><rect x="77.77" y="105.56" width="5.56" height="5.55"/><rect x="77.77" y="100" width="5.56" height="5.56"/><rect class="cls-3" x="77.77" y="94.45" width="5.56" height="5.55"/><rect x="77.77" y="88.89" width="5.56" height="5.56"/><rect x="77.77" y="83.33" width="5.56" height="5.56"/><rect class="cls-2" x="77.77" y="77.78" width="5.56" height="5.55"/><rect class="cls-7" x="77.77" y="72.22" width="5.56" height="5.56"/><rect class="cls-2" x="77.77" y="66.67" width="5.56" height="5.55"/><rect class="cls-4" x="77.77" y="61.11" width="5.56" height="5.56"/><rect class="cls-4" x="77.77" y="55.56" width="5.56" height="5.55"/><rect class="cls-4" x="77.77" y="50" width="5.56" height="5.56"/><rect class="cls-4" x="77.77" y="44.45" width="5.56" height="5.55"/><rect class="cls-4" x="77.77" y="38.89" width="5.56" height="5.56"/><rect class="cls-5" x="77.77" y="33.33" width="5.56" height="5.56"/><rect class="cls-5" x="77.77" y="27.78" width="5.56" height="5.55"/><rect class="cls-5" x="77.77" y="22.22" width="5.56" height="5.56"/><rect class="cls-5" x="77.77" y="16.67" width="5.56" height="5.55"/><rect class="cls-5" x="72.22" y="177.78" width="5.55" height="5.55"/><rect class="cls-4" x="72.22" y="172.22" width="5.55" height="5.56"/><rect class="cls-6" x="72.22" y="166.67" width="5.55" height="5.55"/><rect class="cls-6" x="72.22" y="161.11" width="5.55" height="5.56"/><rect class="cls-6" x="72.22" y="155.56" width="5.55" height="5.55"/><rect class="cls-6" x="72.22" y="150" width="5.55" height="5.56"/><rect class="cls-6" x="72.22" y="144.45" width="5.55" height="5.55"/><rect class="cls-6" x="72.22" y="138.89" width="5.55" height="5.56"/><rect class="cls-6" x="72.22" y="133.33" width="5.55" height="5.56"/><rect class="cls-6" x="72.22" y="127.78" width="5.55" height="5.55"/><rect class="cls-3" x="72.22" y="122.22" width="5.55" height="5.56"/><rect class="cls-3" x="72.22" y="116.67" width="5.55" height="5.55"/><rect class="cls-3" x="72.22" y="111.11" width="5.55" height="5.56"/><rect class="cls-2" x="72.22" y="105.56" width="5.55" height="5.55"/><rect class="cls-3" x="72.22" y="100" width="5.55" height="5.56"/><rect class="cls-2" x="72.22" y="94.45" width="5.55" height="5.55"/><rect x="72.22" y="88.89" width="5.55" height="5.56"/><rect x="72.22" y="83.33" width="5.55" height="5.56"/><rect class="cls-7" x="72.22" y="77.78" width="5.55" height="5.55"/><rect class="cls-2" x="72.22" y="72.22" width="5.55" height="5.56"/><rect class="cls-4" x="72.22" y="66.67" width="5.55" height="5.55"/><rect class="cls-4" x="72.22" y="61.11" width="5.55" height="5.56"/><rect class="cls-5" x="72.22" y="55.56" width="5.55" height="5.55"/><rect class="cls-5" x="72.22" y="50" width="5.55" height="5.56"/><rect class="cls-5" x="72.22" y="44.45" width="5.55" height="5.55"/><rect class="cls-5" x="72.22" y="38.89" width="5.55" height="5.56"/><rect class="cls-5" x="66.66" y="177.78" width="5.56" height="5.55"/><rect class="cls-4" x="66.66" y="172.22" width="5.56" height="5.56"/><rect class="cls-4" x="66.66" y="166.67" width="5.56" height="5.55"/><rect class="cls-6" x="66.66" y="161.11" width="5.56" height="5.56"/><rect class="cls-6" x="66.66" y="155.56" width="5.56" height="5.55"/><rect class="cls-6" x="66.66" y="150" width="5.56" height="5.56"/><rect class="cls-6" x="66.66" y="144.45" width="5.56" height="5.55"/><rect class="cls-6" x="66.66" y="138.89" width="5.56" height="5.56"/><rect class="cls-6" x="66.66" y="133.33" width="5.56" height="5.56"/><rect class="cls-3" x="66.66" y="127.78" width="5.56" height="5.55"/><rect class="cls-3" x="66.66" y="122.22" width="5.56" height="5.56"/><rect class="cls-2" x="66.66" y="116.67" width="5.56" height="5.55"/><rect class="cls-2" x="66.66" y="111.11" width="5.56" height="5.56"/><rect class="cls-3" x="66.66" y="105.56" width="5.56" height="5.55"/><rect class="cls-2" x="66.66" y="100" width="5.56" height="5.56"/><rect class="cls-2" x="66.66" y="94.45" width="5.56" height="5.55"/><rect class="cls-2" x="66.66" y="88.89" width="5.56" height="5.56"/><rect class="cls-7" x="66.66" y="83.33" width="5.56" height="5.56"/><rect class="cls-2" x="66.66" y="77.78" width="5.56" height="5.55"/><rect class="cls-5" x="66.66" y="72.22" width="5.56" height="5.56"/><rect class="cls-5" x="66.66" y="66.67" width="5.56" height="5.55"/><rect class="cls-5" x="66.66" y="61.11" width="5.56" height="5.56"/><rect class="cls-5" x="66.66" y="55.56" width="5.56" height="5.55"/><rect class="cls-5" x="66.66" y="50" width="5.56" height="5.56"/><rect class="cls-5" x="66.66" y="44.45" width="5.56" height="5.55"/><rect class="cls-5" x="61.11" y="177.78" width="5.55" height="5.55"/><rect class="cls-4" x="61.11" y="172.22" width="5.55" height="5.56"/><rect class="cls-4" x="61.11" y="166.67" width="5.55" height="5.55"/><rect class="cls-4" x="61.11" y="161.11" width="5.55" height="5.56"/><rect class="cls-4" x="61.11" y="155.56" width="5.55" height="5.55"/><rect class="cls-4" x="61.11" y="150" width="5.55" height="5.56"/><rect class="cls-5" x="61.11" y="144.45" width="5.55" height="5.55"/><rect class="cls-6" x="61.11" y="138.89" width="5.55" height="5.56"/><rect class="cls-6" x="61.11" y="133.33" width="5.55" height="5.56"/><rect class="cls-3" x="61.11" y="127.78" width="5.55" height="5.55"/><rect class="cls-3" x="61.11" y="122.22" width="5.55" height="5.56"/><rect class="cls-2" x="61.11" y="116.67" width="5.55" height="5.55"/><rect class="cls-2" x="61.11" y="111.11" width="5.55" height="5.56"/><rect class="cls-3" x="61.11" y="105.56" width="5.55" height="5.55"/><rect class="cls-2" x="61.11" y="100" width="5.55" height="5.56"/><rect class="cls-2" x="61.11" y="94.45" width="5.55" height="5.55"/><rect class="cls-2" x="61.11" y="88.89" width="5.55" height="5.56"/><rect class="cls-2" x="61.11" y="83.33" width="5.55" height="5.56"/><rect class="cls-5" x="61.11" y="77.78" width="5.55" height="5.55"/><rect class="cls-5" x="61.11" y="72.22" width="5.55" height="5.56"/><rect class="cls-5" x="61.11" y="66.67" width="5.55" height="5.55"/><rect class="cls-5" x="61.11" y="61.11" width="5.55" height="5.56"/><rect class="cls-5" x="55.55" y="177.78" width="5.56" height="5.55"/><rect class="cls-4" x="55.55" y="172.22" width="5.56" height="5.56"/><rect class="cls-4" x="55.55" y="166.67" width="5.56" height="5.55"/><rect class="cls-1" x="55.55" y="161.11" width="5.56" height="5.56"/><rect class="cls-1" x="55.55" y="155.56" width="5.56" height="5.55"/><rect class="cls-4" x="55.55" y="150" width="5.56" height="5.56"/><rect class="cls-5" x="55.55" y="144.45" width="5.56" height="5.55"/><rect class="cls-5" x="55.55" y="138.89" width="5.56" height="5.56"/><rect class="cls-5" x="55.55" y="133.33" width="5.56" height="5.56"/><rect class="cls-4" x="55.55" y="127.78" width="5.56" height="5.55"/><rect class="cls-4" x="55.55" y="122.22" width="5.56" height="5.56"/><rect class="cls-4" x="55.55" y="116.67" width="5.56" height="5.55"/><rect class="cls-1" x="55.55" y="111.11" width="5.56" height="5.56"/><rect class="cls-1" x="55.55" y="105.56" width="5.56" height="5.55"/><rect class="cls-1" x="55.55" y="100" width="5.56" height="5.56"/><rect class="cls-1" x="55.55" y="94.45" width="5.56" height="5.55"/><rect class="cls-1" x="55.55" y="88.89" width="5.56" height="5.56"/><rect class="cls-1" x="55.55" y="83.33" width="5.56" height="5.56"/><rect class="cls-1" x="55.55" y="77.78" width="5.56" height="5.55"/><rect class="cls-5" x="50" y="177.78" width="5.55" height="5.55"/><rect class="cls-5" x="50" y="172.22" width="5.55" height="5.56"/><rect class="cls-4" x="50" y="166.67" width="5.55" height="5.55"/><rect class="cls-1" x="50" y="161.11" width="5.55" height="5.56"/><rect class="cls-1" x="50" y="155.56" width="5.55" height="5.55"/><rect class="cls-4" x="50" y="150" width="5.55" height="5.56"/><rect class="cls-4" x="50" y="144.45" width="5.55" height="5.55"/><rect class="cls-5" x="50" y="138.89" width="5.55" height="5.56"/><rect class="cls-5" x="50" y="133.33" width="5.55" height="5.56"/><rect class="cls-5" x="50" y="127.78" width="5.55" height="5.55"/><rect class="cls-5" x="50" y="122.22" width="5.55" height="5.56"/><rect class="cls-4" x="50" y="116.67" width="5.55" height="5.55"/><rect class="cls-4" x="50" y="111.11" width="5.55" height="5.56"/><rect class="cls-1" x="50" y="105.56" width="5.55" height="5.55"/><rect class="cls-1" x="50" y="100" width="5.55" height="5.56"/><rect class="cls-1" x="50" y="94.45" width="5.55" height="5.55"/><rect class="cls-1" x="50" y="88.89" width="5.55" height="5.56"/><rect class="cls-1" x="50" y="83.33" width="5.55" height="5.56"/><rect class="cls-1" x="50" y="77.78" width="5.55" height="5.55"/><rect class="cls-5" x="44.44" y="177.78" width="5.56" height="5.55"/><rect class="cls-5" x="44.44" y="172.22" width="5.56" height="5.56"/><rect class="cls-4" x="44.44" y="166.67" width="5.56" height="5.55"/><rect class="cls-4" x="44.44" y="161.11" width="5.56" height="5.56"/><rect class="cls-1" x="44.44" y="155.56" width="5.56" height="5.55"/><rect class="cls-1" x="44.44" y="150" width="5.56" height="5.56"/><rect class="cls-4" x="44.44" y="144.45" width="5.56" height="5.55"/><rect class="cls-4" x="44.44" y="138.89" width="5.56" height="5.56"/><rect class="cls-5" x="44.44" y="133.33" width="5.56" height="5.56"/><rect class="cls-5" x="44.44" y="127.78" width="5.56" height="5.55"/><rect class="cls-5" x="44.44" y="122.22" width="5.56" height="5.56"/><rect class="cls-5" x="44.44" y="116.67" width="5.56" height="5.55"/><rect class="cls-4" x="44.44" y="111.11" width="5.56" height="5.56"/><rect class="cls-4" x="44.44" y="105.56" width="5.56" height="5.55"/><rect class="cls-4" x="44.44" y="100" width="5.56" height="5.56"/><rect class="cls-4" x="44.44" y="94.45" width="5.56" height="5.55"/><rect class="cls-1" x="44.44" y="88.89" width="5.56" height="5.56"/><rect class="cls-1" x="44.44" y="83.33" width="5.56" height="5.56"/><rect class="cls-1" x="44.44" y="77.78" width="5.56" height="5.55"/><rect class="cls-1" x="44.44" y="72.22" width="5.56" height="5.56"/><rect class="cls-5" x="38.88" y="177.78" width="5.56" height="5.55"/><rect class="cls-5" x="38.88" y="172.22" width="5.56" height="5.56"/><rect class="cls-5" x="38.88" y="166.67" width="5.56" height="5.55"/><rect class="cls-4" x="38.88" y="161.11" width="5.56" height="5.56"/><rect class="cls-4" x="38.88" y="155.56" width="5.56" height="5.55"/><rect class="cls-1" x="38.88" y="150" width="5.56" height="5.56"/><rect class="cls-1" x="38.88" y="144.45" width="5.56" height="5.55"/><rect class="cls-4" x="38.88" y="138.89" width="5.56" height="5.56"/><rect class="cls-5" x="38.88" y="133.33" width="5.56" height="5.56"/><rect class="cls-5" x="38.88" y="127.78" width="5.56" height="5.55"/><rect class="cls-5" x="38.88" y="122.22" width="5.56" height="5.56"/><rect class="cls-5" x="38.88" y="116.67" width="5.56" height="5.55"/><rect class="cls-5" x="38.88" y="111.11" width="5.56" height="5.56"/><rect class="cls-5" x="38.88" y="105.56" width="5.56" height="5.55"/><rect class="cls-5" x="38.88" y="100" width="5.56" height="5.56"/><rect class="cls-4" x="38.88" y="94.45" width="5.56" height="5.55"/><rect class="cls-4" x="38.88" y="88.89" width="5.56" height="5.56"/><rect class="cls-4" x="38.88" y="83.33" width="5.56" height="5.56"/><rect class="cls-1" x="38.88" y="77.78" width="5.56" height="5.55"/><rect class="cls-1" x="38.88" y="72.22" width="5.56" height="5.56"/><rect class="cls-1" x="38.88" y="66.67" width="5.56" height="5.55"/><rect class="cls-1" x="38.88" y="61.11" width="5.56" height="5.56"/><rect class="cls-5" x="33.33" y="166.67" width="5.55" height="5.55"/><rect class="cls-5" x="33.33" y="161.11" width="5.55" height="5.56"/><rect class="cls-4" x="33.33" y="155.56" width="5.55" height="5.55"/><rect class="cls-1" x="33.33" y="150" width="5.55" height="5.56"/><rect class="cls-1" x="33.33" y="144.45" width="5.55" height="5.55"/><rect class="cls-4" x="33.33" y="138.89" width="5.55" height="5.56"/><rect class="cls-5" x="33.33" y="133.33" width="5.55" height="5.56"/><rect class="cls-5" x="33.33" y="127.78" width="5.55" height="5.55"/><rect class="cls-5" x="33.33" y="122.22" width="5.55" height="5.56"/><rect class="cls-5" x="33.33" y="116.67" width="5.55" height="5.55"/><rect class="cls-5" x="33.33" y="111.11" width="5.55" height="5.56"/><rect class="cls-5" x="33.33" y="105.56" width="5.55" height="5.55"/><rect class="cls-5" x="33.33" y="100" width="5.55" height="5.56"/><rect class="cls-5" x="33.33" y="94.45" width="5.55" height="5.55"/><rect class="cls-5" x="33.33" y="88.89" width="5.55" height="5.56"/><rect class="cls-4" x="33.33" y="83.33" width="5.55" height="5.56"/><rect class="cls-4" x="33.33" y="77.78" width="5.55" height="5.55"/><rect class="cls-4" x="33.33" y="72.22" width="5.55" height="5.56"/><rect class="cls-1" x="33.33" y="66.67" width="5.55" height="5.55"/><rect class="cls-1" x="33.33" y="61.11" width="5.55" height="5.56"/><rect class="cls-1" x="33.33" y="55.56" width="5.55" height="5.55"/><rect class="cls-4" x="27.77" y="155.56" width="5.56" height="5.55"/><rect class="cls-4" x="27.77" y="150" width="5.56" height="5.56"/><rect class="cls-4" x="27.77" y="144.45" width="5.56" height="5.55"/><rect class="cls-4" x="27.77" y="138.89" width="5.56" height="5.56"/><rect class="cls-5" x="27.77" y="133.33" width="5.56" height="5.56"/><rect class="cls-5" x="27.77" y="127.78" width="5.56" height="5.55"/><rect class="cls-5" x="27.77" y="122.22" width="5.56" height="5.56"/><rect class="cls-5" x="27.77" y="116.67" width="5.56" height="5.55"/><rect class="cls-5" x="27.77" y="94.45" width="5.56" height="5.55"/><rect class="cls-5" x="27.77" y="88.89" width="5.56" height="5.56"/><rect class="cls-5" x="27.77" y="83.33" width="5.56" height="5.56"/><rect class="cls-5" x="27.77" y="77.78" width="5.56" height="5.55"/><rect class="cls-4" x="27.77" y="72.22" width="5.56" height="5.56"/><rect class="cls-4" x="27.77" y="66.67" width="5.56" height="5.55"/><rect class="cls-4" x="27.77" y="61.11" width="5.56" height="5.56"/><rect class="cls-1" x="27.77" y="55.56" width="5.56" height="5.55"/><rect class="cls-4" x="22.22" y="150" width="5.55" height="5.56"/><rect class="cls-4" x="22.22" y="144.45" width="5.55" height="5.55"/><rect class="cls-5" x="22.22" y="138.89" width="5.55" height="5.56"/><rect class="cls-5" x="22.22" y="133.33" width="5.55" height="5.56"/><rect class="cls-5" x="22.22" y="127.78" width="5.55" height="5.55"/><rect class="cls-5" x="22.22" y="122.22" width="5.55" height="5.56"/><rect class="cls-5" x="22.22" y="72.22" width="5.55" height="5.56"/><rect class="cls-5" x="22.22" y="66.67" width="5.55" height="5.55"/><rect class="cls-4" x="22.22" y="61.11" width="5.55" height="5.56"/><rect class="cls-4" x="22.22" y="55.56" width="5.55" height="5.55"/><rect class="cls-4" x="22.22" y="50" width="5.55" height="5.56"/><rect class="cls-5" x="16.66" y="61.11" width="5.56" height="5.56"/><rect class="cls-5" x="16.66" y="55.56" width="5.56" height="5.55"/><rect class="cls-5" x="16.66" y="50" width="5.56" height="5.56"/><rect class="cls-4" x="16.66" y="44.45" width="5.56" height="5.55"/><rect class="cls-5" x="11.11" y="50" width="5.55" height="5.56"/><rect class="cls-5" x="11.11" y="44.45" width="5.55" height="5.55"/><rect class="cls-5" x="5.55" y="44.45" width="5.56" height="5.55"/><rect class="cls-5" x="5.55" y="38.89" width="5.56" height="5.56"/><rect class="cls-5" y="38.89" width="5.55" height="5.56"/></svg>