<?xml version="1.0" encoding="utf-8"?>
<!-- Generator: Adobe Illustrator 25.2.3, SVG Export Plug-In . SVG Version: 6.00 Build 0)  -->
<svg version="1.1" id="Capa_1" xmlns="http://www.w3.org/2000/svg" xmlns:xlink="http://www.w3.org/1999/xlink" x="0px" y="0px"
	 viewBox="0 0 2736 1824" style="enable-background:new 0 0 2736 1824;" xml:space="preserve">
<style type="text/css">
	.st0{fill:#CDBFA5;}
	.st1{fill:#FFF8DF;}
	.st2{fill:#F8B777;}
	.st3{fill:#D46C61;}
	.st4{fill:#D8D5B2;}
	.st5{fill:#EEE4CB;}
	.st6{fill:#FFF9ED;}
	.st7{fill:#957963;}
	.st8{fill:#0B0000;}
	.st9{fill:#FFF8DC;}
	.st10{fill:#B97872;}
	.st11{fill:#CE9C67;}
	.st12{fill:#662819;}
	.st13{fill:#FFFAF6;}
</style>
<rect x="497.2" y="1059.1" width="151.9" height="105.3"/>
<rect x="497.2" y="953.8" width="151.9" height="105.3"/>
<rect x="497.2" y="848.4" width="151.9" height="105.3"/>
<rect x="497.2" y="743.1" width="151.9" height="105.3"/>
<rect x="497.2" y="637.7" width="151.9" height="105.3"/>
<rect x="497.2" y="532.4" width="151.9" height="105.3"/>
<rect x="497.2" y="427" width="151.9" height="105.3"/>
<rect x="497.2" y="321.7" width="151.9" height="105.3"/>
<rect x="649" y="1480.5" width="151.9" height="105.3"/>
<rect x="649" y="1375.2" width="151.9" height="105.3"/>
<rect x="649" y="1269.8" width="151.9" height="105.3"/>
<rect x="649" y="1164.5" width="151.9" height="105.3"/>
<rect x="649" y="1059.1" class="st0" width="151.9" height="105.3"/>
<rect x="649" y="953.8" class="st1" width="151.9" height="105.3"/>
<rect x="649" y="848.4" class="st2" width="151.9" height="105.3"/>
<rect x="649" y="743.1" class="st2" width="151.9" height="105.3"/>
<rect x="649" y="637.7" class="st2" width="151.9" height="105.3"/>
<rect x="649" y="532.4" class="st3" width="151.9" height="105.3"/>
<rect x="649" y="427" class="st3" width="151.9" height="105.3"/>
<rect x="649" y="321.7" class="st3" width="151.9" height="105.3"/>
<rect x="649" y="216.3" width="151.9" height="105.3"/>
<rect x="649" y="111" width="151.9" height="105.3"/>
<rect x="800.9" y="1585.8" width="151.9" height="105.3"/>
<rect x="800.9" y="1480.5" class="st4" width="151.9" height="105.3"/>
<rect x="800.9" y="1375.2" class="st5" width="151.9" height="105.3"/>
<rect x="800.9" y="1269.8" class="st6" width="151.9" height="105.3"/>
<rect x="800.9" y="1164.5" class="st7" width="151.9" height="105.3"/>
<rect x="800.9" y="1059.1" class="st1" width="151.9" height="105.3"/>
<rect x="800.9" y="953.8" class="st1" width="151.9" height="105.3"/>
<rect x="800.9" y="848.4" class="st2" width="151.9" height="105.3"/>
<rect x="800.9" y="743.1" class="st2" width="151.9" height="105.3"/>
<rect x="800.9" y="637.7" class="st2" width="151.9" height="105.3"/>
<rect x="800.9" y="532.4" class="st2" width="151.9" height="105.3"/>
<rect x="800.9" y="427" class="st3" width="151.9" height="105.3"/>
<rect x="800.9" y="321.7" class="st3" width="151.9" height="105.3"/>
<rect x="800.9" y="216.3" class="st3" width="151.9" height="105.3"/>
<rect x="800.9" y="111" width="151.9" height="105.3"/>
<rect x="952.8" y="1691.2" width="151.9" height="105.3"/>
<rect x="952.8" y="1585.8" class="st6" width="151.9" height="105.3"/>
<rect x="952.8" y="1480.5" class="st4" width="151.9" height="105.3"/>
<rect x="952.8" y="1375.2" class="st6" width="151.9" height="105.3"/>
<rect x="952.8" y="1269.8" class="st6" width="151.9" height="105.3"/>
<rect x="952.8" y="1164.5" class="st6" width="151.9" height="105.3"/>
<rect x="952.8" y="1059.1" class="st1" width="151.9" height="105.3"/>
<rect x="952.8" y="953.8" class="st1" width="151.9" height="105.3"/>
<rect x="952.8" y="848.4" class="st8" width="151.9" height="105.3"/>
<rect x="952.8" y="743.1" class="st8" width="151.9" height="105.3"/>
<rect x="952.8" y="637.7" class="st9" width="151.9" height="105.3"/>
<rect x="952.8" y="532.4" class="st2" width="151.9" height="105.3"/>
<rect x="952.8" y="427" class="st2" width="151.9" height="105.3"/>
<rect x="952.8" y="321.7" class="st2" width="151.9" height="105.3"/>
<rect x="952.8" y="216.3" width="151.9" height="105.3"/>
<rect x="1104.6" y="1585.8" width="151.9" height="105.3"/>
<rect x="1104.6" y="1480.5" class="st4" width="151.9" height="105.3"/>
<rect x="1104.6" y="1375.2" class="st6" width="151.9" height="105.3"/>
<rect x="1104.6" y="1269.8" class="st6" width="151.9" height="105.3"/>
<rect x="1104.6" y="1164.5" class="st6" width="151.9" height="105.3"/>
<rect x="1104.6" y="1059.1" class="st1" width="151.9" height="105.3"/>
<rect x="1104.6" y="953.8" class="st10" width="151.9" height="105.3"/>
<rect x="1104.6" y="848.4" class="st9" width="151.9" height="105.3"/>
<rect x="1104.6" y="743.1" class="st2" width="151.9" height="105.3"/>
<rect x="1104.6" y="637.7" class="st2" width="151.9" height="105.3"/>
<rect x="1104.6" y="532.4" class="st2" width="151.9" height="105.3"/>
<rect x="1104.6" y="427" class="st11" width="151.9" height="105.3"/>
<rect x="1104.6" y="321.7" width="151.9" height="105.3"/>
<rect x="1256.5" y="1585.8" width="151.9" height="105.3"/>
<rect x="1256.5" y="1480.5" class="st4" width="151.9" height="105.3"/>
<rect x="1256.5" y="1375.2" class="st6" width="151.9" height="105.3"/>
<rect x="1256.5" y="1269.8" class="st6" width="151.9" height="105.3"/>
<rect x="1256.5" y="1164.5" class="st6" width="151.9" height="105.3"/>
<rect x="1256.5" y="1059.1" class="st1" width="151.9" height="105.3"/>
<rect x="1256.5" y="953.8" class="st10" width="151.9" height="105.3"/>
<rect x="1256.5" y="848.4" class="st12" width="151.9" height="105.3"/>
<rect x="1256.5" y="743.1" class="st9" width="151.9" height="105.3"/>
<rect x="1256.5" y="637.7" class="st2" width="151.9" height="105.3"/>
<rect x="1256.5" y="532.4" class="st2" width="151.9" height="105.3"/>
<rect x="1256.5" y="427" class="st11" width="151.9" height="105.3"/>
<rect x="1256.5" y="321.7" width="151.9" height="105.3"/>
<rect x="1408.3" y="1585.8" width="151.9" height="105.3"/>
<rect x="1408.3" y="1480.5" class="st4" width="151.9" height="105.3"/>
<rect x="1408.3" y="1375.2" class="st6" width="151.9" height="105.3"/>
<rect x="1408.3" y="1269.8" class="st13" width="151.9" height="105.3"/>
<rect x="1408.3" y="1164.5" class="st6" width="151.9" height="105.3"/>
<rect x="1408.3" y="1059.1" class="st1" width="151.9" height="105.3"/>
<rect x="1408.3" y="953.8" class="st10" width="151.9" height="105.3"/>
<rect x="1408.3" y="848.4" class="st9" width="151.9" height="105.3"/>
<rect x="1408.3" y="743.1" class="st2" width="151.9" height="105.3"/>
<rect x="1408.3" y="637.7" class="st2" width="151.9" height="105.3"/>
<rect x="1408.3" y="532.4" class="st2" width="151.9" height="105.3"/>
<rect x="1408.3" y="427" class="st11" width="151.9" height="105.3"/>
<rect x="1408.3" y="321.7" width="151.9" height="105.3"/>
<rect x="1560.2" y="1691.2" width="151.9" height="105.3"/>
<rect x="1560.2" y="1585.8" class="st6" width="151.9" height="105.3"/>
<rect x="1560.2" y="1480.5" class="st4" width="151.9" height="105.3"/>
<rect x="1560.2" y="1375.2" class="st6" width="151.9" height="105.3"/>
<rect x="1560.2" y="1269.8" class="st13" width="151.9" height="105.3"/>
<rect x="1560.2" y="1164.5" class="st6" width="151.9" height="105.3"/>
<rect x="1560.2" y="1059.1" class="st1" width="151.9" height="105.3"/>
<rect x="1560.2" y="953.8" class="st1" width="151.9" height="105.3"/>
<rect x="1560.2" y="848.4" class="st8" width="151.9" height="105.3"/>
<rect x="1560.2" y="743.1" class="st8" width="151.9" height="105.3"/>
<rect x="1560.2" y="637.7" class="st9" width="151.9" height="105.3"/>
<rect x="1560.2" y="532.4" class="st2" width="151.9" height="105.3"/>
<rect x="1560.2" y="427" class="st2" width="151.9" height="105.3"/>
<rect x="1560.2" y="321.7" class="st2" width="151.9" height="105.3"/>
<rect x="1560.2" y="216.3" width="151.9" height="105.3"/>
<rect x="1712.1" y="1585.8" width="151.9" height="105.3"/>
<rect x="1712.1" y="1480.5" class="st4" width="151.9" height="105.3"/>
<rect x="1712.1" y="1375.2" class="st6" width="151.9" height="105.3"/>
<rect x="1712.1" y="1269.8" class="st6" width="151.9" height="105.3"/>
<rect x="1712.1" y="1164.5" class="st7" width="151.9" height="105.3"/>
<rect x="1712.1" y="1059.1" class="st1" width="151.9" height="105.3"/>
<rect x="1712.1" y="953.8" class="st1" width="151.9" height="105.3"/>
<rect x="1712.1" y="848.4" class="st2" width="151.9" height="105.3"/>
<rect x="1712.1" y="743.1" class="st2" width="151.9" height="105.3"/>
<rect x="1712.1" y="637.7" class="st2" width="151.9" height="105.3"/>
<rect x="1712.1" y="532.4" class="st2" width="151.9" height="105.3"/>
<rect x="1712.1" y="427" class="st3" width="151.9" height="105.3"/>
<rect x="1712.1" y="321.7" class="st3" width="151.9" height="105.3"/>
<rect x="1712.1" y="216.3" class="st3" width="151.9" height="105.3"/>
<rect x="1712.1" y="111" width="151.9" height="105.3"/>
<rect x="1864" y="1480.5" width="151.9" height="105.3"/>
<rect x="1864" y="1375.2" width="151.9" height="105.3"/>
<rect x="1864" y="1269.8" width="151.9" height="105.3"/>
<rect x="1864" y="1164.5" width="151.9" height="105.3"/>
<rect x="1864" y="1059.1" class="st0" width="151.9" height="105.3"/>
<rect x="1864" y="953.8" class="st1" width="151.9" height="105.3"/>
<rect x="1864" y="848.4" class="st2" width="151.9" height="105.3"/>
<rect x="1864" y="743.1" class="st2" width="151.9" height="105.3"/>
<rect x="1864" y="637.7" class="st2" width="151.9" height="105.3"/>
<rect x="1864" y="532.4" class="st3" width="151.9" height="105.3"/>
<rect x="1864" y="427" class="st3" width="151.9" height="105.3"/>
<rect x="1864" y="321.7" class="st3" width="151.9" height="105.3"/>
<rect x="1864" y="216.3" width="151.9" height="105.3"/>
<rect x="1864" y="111" width="151.9" height="105.3"/>
<rect x="2015.8" y="1059.1" width="151.9" height="105.3"/>
<rect x="2015.8" y="953.8" width="151.9" height="105.3"/>
<rect x="2015.8" y="848.4" width="151.9" height="105.3"/>
<rect x="2015.8" y="743.1" width="151.9" height="105.3"/>
<rect x="2015.8" y="637.7" width="151.9" height="105.3"/>
<rect x="2015.8" y="532.4" width="151.9" height="105.3"/>
<rect x="2015.8" y="427" width="151.9" height="105.3"/>
<rect x="2015.8" y="321.7" width="151.9" height="105.3"/>
</svg>
