<?xml version="1.0" encoding="utf-8"?>
<!-- Generator: Adobe Illustrator 25.2.3, SVG Export Plug-In . SVG Version: 6.00 Build 0)  -->
<svg version="1.1" id="Layer_1" xmlns="http://www.w3.org/2000/svg" xmlns:xlink="http://www.w3.org/1999/xlink" x="0px" y="0px"
	 viewBox="0 0 360 300" style="enable-background:new 0 0 360 300;" xml:space="preserve">
<style type="text/css">
	.st0{fill:#1D1D1B;}
	.st1{fill:#E2B67A;}
	.st2{fill:#FBCA88;}
	.st3{fill:#C9A26D;}
	.st4{fill:#977952;}
	.st5{fill:#FCB5A0;}
	.st6{fill:#9F6A60;}
</style>
<path class="st0" d="M320.4,176.2H342v17.5h-21.6V176.2z"/>
<path class="st0" d="M320.4,158.7H342v17.5h-21.6V158.7z"/>
<path class="st0" d="M320.4,141.3H342v17.5h-21.6V141.3z"/>
<path class="st0" d="M320.4,123.8H342v17.5h-21.6V123.8z"/>
<path class="st0" d="M298.8,211.1h21.6v17.5h-21.6V211.1z"/>
<path class="st0" d="M298.8,193.7h21.6v17.5h-21.6V193.7z"/>
<path class="st1" d="M298.8,176.2h21.6v17.5h-21.6V176.2z"/>
<path class="st2" d="M298.8,158.7h21.6v17.5h-21.6V158.7z"/>
<path class="st1" d="M298.8,141.3h21.6v17.5h-21.6V141.3z"/>
<path class="st1" d="M298.8,123.8h21.6v17.5h-21.6V123.8z"/>
<path class="st0" d="M298.8,106.3h21.6v17.5h-21.6V106.3z"/>
<path class="st0" d="M298.8,88.9h21.6v17.5h-21.6V88.9z"/>
<path class="st0" d="M277.2,228.6h21.6v17.5h-21.6V228.6z"/>
<path class="st1" d="M277.2,211.1h21.6v17.5h-21.6V211.1z"/>
<path class="st2" d="M277.2,193.7h21.6v17.5h-21.6V193.7z"/>
<path class="st2" d="M277.2,176.2h21.6v17.5h-21.6V176.2z"/>
<path class="st3" d="M277.2,158.7h21.6v17.5h-21.6V158.7z"/>
<path class="st3" d="M277.2,141.3h21.6v17.5h-21.6V141.3z"/>
<path class="st2" d="M277.2,123.8h21.6v17.5h-21.6V123.8z"/>
<path class="st2" d="M277.2,106.3h21.6v17.5h-21.6V106.3z"/>
<path class="st1" d="M277.2,88.9h21.6v17.5h-21.6V88.9z"/>
<path class="st0" d="M277.2,71.4h21.6v17.5h-21.6V71.4z"/>
<path class="st0" d="M255.6,246.1h21.6v17.5h-21.6V246.1z"/>
<path class="st1" d="M255.6,228.6h21.6v17.5h-21.6V228.6z"/>
<path class="st2" d="M255.6,211.1h21.6v17.5h-21.6V211.1z"/>
<path class="st2" d="M255.6,193.7h21.6v17.5h-21.6V193.7z"/>
<path class="st3" d="M255.6,176.2h21.6v17.5h-21.6V176.2z"/>
<path class="st2" d="M255.6,158.7h21.6v17.5h-21.6V158.7z"/>
<path class="st2" d="M255.6,141.3h21.6v17.5h-21.6V141.3z"/>
<path class="st2" d="M255.6,123.8h21.6v17.5h-21.6V123.8z"/>
<path class="st2" d="M255.6,106.3h21.6v17.5h-21.6V106.3z"/>
<path class="st2" d="M255.6,88.9h21.6v17.5h-21.6V88.9z"/>
<path class="st1" d="M255.6,71.4h21.6v17.5h-21.6V71.4z"/>
<path class="st0" d="M255.6,53.9h21.6v17.5h-21.6V53.9z"/>
<path class="st0" d="M255.6,36.5h21.6v17.5h-21.6V36.5z"/>
<path class="st0" d="M234,246.1h21.6v17.5H234V246.1z"/>
<path class="st4" d="M234,228.6h21.6v17.5H234V228.6z"/>
<path class="st2" d="M234,211.1h21.6v17.5H234V211.1z"/>
<path class="st2" d="M234,193.7h21.6v17.5H234V193.7z"/>
<path class="st2" d="M234,176.2h21.6v17.5H234V176.2z"/>
<path class="st2" d="M234,158.7h21.6v17.5H234V158.7z"/>
<path class="st2" d="M234,141.3h21.6v17.5H234V141.3z"/>
<path class="st2" d="M234,123.8h21.6v17.5H234V123.8z"/>
<path class="st2" d="M234,106.3h21.6v17.5H234V106.3z"/>
<path class="st2" d="M234,88.9h21.6v17.5H234V88.9z"/>
<path class="st2" d="M234,71.4h21.6v17.5H234V71.4z"/>
<path class="st5" d="M234,53.9h21.6v17.5H234V53.9z"/>
<path class="st5" d="M234,36.5h21.6v17.5H234V36.5z"/>
<path class="st0" d="M234,19h21.6v17.5H234V19z"/>
<path class="st0" d="M212.4,263.5H234V281h-21.6V263.5z"/>
<path class="st1" d="M212.4,246.1H234v17.5h-21.6V246.1z"/>
<path class="st2" d="M212.4,228.6H234v17.5h-21.6V228.6z"/>
<path class="st2" d="M212.4,211.1H234v17.5h-21.6V211.1z"/>
<path class="st2" d="M212.4,193.7H234v17.5h-21.6V193.7z"/>
<path class="st2" d="M212.4,176.2H234v17.5h-21.6V176.2z"/>
<path class="st2" d="M212.4,158.7H234v17.5h-21.6V158.7z"/>
<path class="st2" d="M212.4,141.3H234v17.5h-21.6V141.3z"/>
<path d="M212.4,123.8H234v17.5h-21.6V123.8z"/>
<path d="M212.4,106.3H234v17.5h-21.6V106.3z"/>
<path class="st2" d="M212.4,88.9H234v17.5h-21.6V88.9z"/>
<path class="st2" d="M212.4,71.4H234v17.5h-21.6V71.4z"/>
<path class="st2" d="M212.4,53.9H234v17.5h-21.6V53.9z"/>
<path class="st2" d="M212.4,36.5H234v17.5h-21.6V36.5z"/>
<path class="st0" d="M212.4,19H234v17.5h-21.6V19z"/>
<path class="st0" d="M190.8,246.1h21.6v17.5h-21.6V246.1z"/>
<path class="st4" d="M190.8,228.6h21.6v17.5h-21.6V228.6z"/>
<path class="st2" d="M190.8,211.1h21.6v17.5h-21.6V211.1z"/>
<path class="st2" d="M190.8,193.7h21.6v17.5h-21.6V193.7z"/>
<path class="st2" d="M190.8,176.2h21.6v17.5h-21.6V176.2z"/>
<path class="st2" d="M190.8,158.7h21.6v17.5h-21.6V158.7z"/>
<path class="st3" d="M190.8,141.3h21.6v17.5h-21.6V141.3z"/>
<path class="st2" d="M190.8,123.8h21.6v17.5h-21.6V123.8z"/>
<path class="st2" d="M190.8,106.3h21.6v17.5h-21.6V106.3z"/>
<path class="st2" d="M190.8,88.9h21.6v17.5h-21.6V88.9z"/>
<path class="st2" d="M190.8,71.4h21.6v17.5h-21.6V71.4z"/>
<path class="st1" d="M190.8,53.9h21.6v17.5h-21.6V53.9z"/>
<path class="st0" d="M190.8,36.5h21.6v17.5h-21.6V36.5z"/>
<path class="st0" d="M169.2,246.1h21.6v17.5h-21.6V246.1z"/>
<path class="st2" d="M169.2,228.6h21.6v17.5h-21.6V228.6z"/>
<path class="st2" d="M169.2,211.1h21.6v17.5h-21.6V211.1z"/>
<path class="st2" d="M169.2,193.7h21.6v17.5h-21.6V193.7z"/>
<path class="st2" d="M169.2,176.2h21.6v17.5h-21.6V176.2z"/>
<path class="st2" d="M169.2,158.7h21.6v17.5h-21.6V158.7z"/>
<path class="st3" d="M169.2,141.3h21.6v17.5h-21.6V141.3z"/>
<path class="st6" d="M169.2,123.8h21.6v17.5h-21.6V123.8z"/>
<path class="st2" d="M169.2,106.3h21.6v17.5h-21.6V106.3z"/>
<path class="st2" d="M169.2,88.9h21.6v17.5h-21.6V88.9z"/>
<path class="st2" d="M169.2,71.4h21.6v17.5h-21.6V71.4z"/>
<path class="st1" d="M169.2,53.9h21.6v17.5h-21.6V53.9z"/>
<path class="st0" d="M169.2,36.5h21.6v17.5h-21.6V36.5z"/>
<path class="st0" d="M147.6,246.1h21.6v17.5h-21.6V246.1z"/>
<path class="st4" d="M147.6,228.6h21.6v17.5h-21.6V228.6z"/>
<path class="st2" d="M147.6,211.1h21.6v17.5h-21.6V211.1z"/>
<path class="st2" d="M147.6,193.7h21.6v17.5h-21.6V193.7z"/>
<path class="st2" d="M147.6,176.2h21.6v17.5h-21.6V176.2z"/>
<path class="st2" d="M147.6,158.7h21.6v17.5h-21.6V158.7z"/>
<path class="st3" d="M147.6,141.3h21.6v17.5h-21.6V141.3z"/>
<path class="st2" d="M147.6,123.8h21.6v17.5h-21.6V123.8z"/>
<path class="st2" d="M147.6,106.3h21.6v17.5h-21.6V106.3z"/>
<path class="st2" d="M147.6,88.9h21.6v17.5h-21.6V88.9z"/>
<path class="st2" d="M147.6,71.4h21.6v17.5h-21.6V71.4z"/>
<path class="st1" d="M147.6,53.9h21.6v17.5h-21.6V53.9z"/>
<path class="st0" d="M147.6,36.5h21.6v17.5h-21.6V36.5z"/>
<path class="st0" d="M126,263.5h21.6V281H126V263.5z"/>
<path class="st1" d="M126,246.1h21.6v17.5H126V246.1z"/>
<path class="st2" d="M126,228.6h21.6v17.5H126V228.6z"/>
<path class="st2" d="M126,211.1h21.6v17.5H126V211.1z"/>
<path class="st2" d="M126,193.7h21.6v17.5H126V193.7z"/>
<path class="st2" d="M126,176.2h21.6v17.5H126V176.2z"/>
<path class="st2" d="M126,158.7h21.6v17.5H126V158.7z"/>
<path class="st2" d="M126,141.3h21.6v17.5H126V141.3z"/>
<path d="M126,123.8h21.6v17.5H126V123.8z"/>
<path d="M126,106.3h21.6v17.5H126V106.3z"/>
<path class="st2" d="M126,88.9h21.6v17.5H126V88.9z"/>
<path class="st2" d="M126,71.4h21.6v17.5H126V71.4z"/>
<path class="st2" d="M126,53.9h21.6v17.5H126V53.9z"/>
<path class="st1" d="M126,36.5h21.6v17.5H126V36.5z"/>
<path class="st0" d="M126,19h21.6v17.5H126V19z"/>
<path class="st0" d="M104.4,246.1H126v17.5h-21.6V246.1z"/>
<path class="st4" d="M104.4,228.6H126v17.5h-21.6V228.6z"/>
<path class="st2" d="M104.4,211.1H126v17.5h-21.6V211.1z"/>
<path class="st2" d="M104.4,193.7H126v17.5h-21.6V193.7z"/>
<path class="st2" d="M104.4,176.2H126v17.5h-21.6V176.2z"/>
<path class="st2" d="M104.4,158.7H126v17.5h-21.6V158.7z"/>
<path class="st2" d="M104.4,141.3H126v17.5h-21.6V141.3z"/>
<path class="st2" d="M104.4,123.8H126v17.5h-21.6V123.8z"/>
<path class="st2" d="M104.4,106.3H126v17.5h-21.6V106.3z"/>
<path class="st2" d="M104.4,88.9H126v17.5h-21.6V88.9z"/>
<path class="st2" d="M104.4,71.4H126v17.5h-21.6V71.4z"/>
<path class="st5" d="M104.4,53.9H126v17.5h-21.6V53.9z"/>
<path class="st5" d="M104.4,36.5H126v17.5h-21.6V36.5z"/>
<path class="st0" d="M104.4,19H126v17.5h-21.6V19z"/>
<path class="st0" d="M82.8,246.1h21.6v17.5H82.8V246.1z"/>
<path class="st1" d="M82.8,228.6h21.6v17.5H82.8V228.6z"/>
<path class="st2" d="M82.8,211.1h21.6v17.5H82.8V211.1z"/>
<path class="st2" d="M82.8,193.7h21.6v17.5H82.8V193.7z"/>
<path class="st3" d="M82.8,176.2h21.6v17.5H82.8V176.2z"/>
<path class="st2" d="M82.8,158.7h21.6v17.5H82.8V158.7z"/>
<path class="st2" d="M82.8,141.3h21.6v17.5H82.8V141.3z"/>
<path class="st2" d="M82.8,123.8h21.6v17.5H82.8V123.8z"/>
<path class="st2" d="M82.8,106.3h21.6v17.5H82.8V106.3z"/>
<path class="st2" d="M82.8,88.9h21.6v17.5H82.8V88.9z"/>
<path class="st1" d="M82.8,71.4h21.6v17.5H82.8V71.4z"/>
<path class="st0" d="M82.8,53.9h21.6v17.5H82.8V53.9z"/>
<path class="st0" d="M82.8,36.5h21.6v17.5H82.8V36.5z"/>
<path class="st0" d="M61.2,228.6h21.6v17.5H61.2V228.6z"/>
<path class="st1" d="M61.2,211.1h21.6v17.5H61.2V211.1z"/>
<path class="st1" d="M61.2,193.7h21.6v17.5H61.2V193.7z"/>
<path class="st2" d="M61.2,176.2h21.6v17.5H61.2V176.2z"/>
<path class="st3" d="M61.2,158.7h21.6v17.5H61.2V158.7z"/>
<path class="st3" d="M61.2,141.3h21.6v17.5H61.2V141.3z"/>
<path class="st2" d="M61.2,123.8h21.6v17.5H61.2V123.8z"/>
<path class="st1" d="M61.2,106.3h21.6v17.5H61.2V106.3z"/>
<path class="st1" d="M61.2,88.9h21.6v17.5H61.2V88.9z"/>
<path class="st0" d="M61.2,71.4h21.6v17.5H61.2V71.4z"/>
<path class="st0" d="M39.6,211.1h21.6v17.5H39.6V211.1z"/>
<path class="st0" d="M39.6,193.7h21.6v17.5H39.6V193.7z"/>
<path class="st1" d="M39.6,176.2h21.6v17.5H39.6V176.2z"/>
<path class="st2" d="M39.6,158.7h21.6v17.5H39.6V158.7z"/>
<path class="st1" d="M39.6,141.3h21.6v17.5H39.6V141.3z"/>
<path class="st1" d="M39.6,123.8h21.6v17.5H39.6V123.8z"/>
<path class="st0" d="M39.6,106.3h21.6v17.5H39.6V106.3z"/>
<path class="st0" d="M39.6,88.9h21.6v17.5H39.6V88.9z"/>
<path class="st0" d="M18,176.2h21.6v17.5H18V176.2z"/>
<path class="st0" d="M18,158.7h21.6v17.5H18V158.7z"/>
<path class="st0" d="M18,141.3h21.6v17.5H18V141.3z"/>
<path class="st0" d="M18,123.8h21.6v17.5H18V123.8z"/>
</svg>
