<?xml version="1.0" encoding="utf-8"?>
<!-- Generator: Adobe Illustrator 25.2.3, SVG Export Plug-In . SVG Version: 6.00 Build 0)  -->
<svg version="1.1" id="Capa_1" xmlns="http://www.w3.org/2000/svg" xmlns:xlink="http://www.w3.org/1999/xlink" x="0px" y="0px"
	 viewBox="0 0 2736 1824" style="enable-background:new 0 0 2736 1824;" xml:space="preserve">
<style type="text/css">
	.st0{fill:#EF9D54;}
	.st1{fill:#1B1B1B;}
	.st2{fill:#562222;}
	.st3{fill:#E52828;}
	.st4{fill:#DD7676;}
	.st5{fill:#ED9241;}
	.st6{fill:#D5833B;}
	.st7{fill:#BE7534;}
	.st8{fill:#872929;}
</style>
<rect x="1302" y="359.8" class="st0" width="132" height="88.3"/>
<rect x="1961.3" y="1417.8" class="st1" width="132" height="88.3"/>
<rect x="1961.3" y="1330" class="st1" width="132" height="87.8"/>
<rect x="1961.3" y="1241.7" class="st1" width="132" height="88.3"/>
<rect x="1961.3" y="1153.4" class="st1" width="132" height="88.3"/>
<rect x="1961.3" y="1065.2" class="st1" width="132" height="88.3"/>
<rect x="1961.3" y="976.9" class="st1" width="132" height="88.3"/>
<rect x="1961.3" y="889.1" class="st1" width="132" height="87.8"/>
<rect x="1961.3" y="800.8" class="st1" width="132" height="88.3"/>
<rect x="1961.3" y="712.5" class="st1" width="132" height="88.3"/>
<rect x="1961.3" y="624.2" class="st1" width="132" height="88.3"/>
<rect x="1961.3" y="536.4" class="st1" width="132" height="87.8"/>
<rect x="1829.3" y="1506.1" class="st1" width="132" height="88.3"/>
<rect x="1829.3" y="1417.8" class="st0" width="132" height="88.3"/>
<rect x="1829.3" y="1330" class="st0" width="132" height="87.8"/>
<rect x="1829.3" y="1241.7" class="st0" width="132" height="88.3"/>
<rect x="1829.3" y="1153.4" class="st0" width="132" height="88.3"/>
<rect x="1829.3" y="1065.2" class="st0" width="132" height="88.3"/>
<rect x="1829.3" y="976.9" class="st0" width="132" height="88.3"/>
<rect x="1829.3" y="889.1" class="st0" width="132" height="87.8"/>
<rect x="1829.3" y="800.8" class="st0" width="132" height="88.3"/>
<rect x="1829.3" y="712.5" class="st0" width="132" height="88.3"/>
<rect x="1829.3" y="624.2" class="st0" width="132" height="88.3"/>
<rect x="1829.3" y="536.4" class="st0" width="132" height="87.8"/>
<rect x="1829.3" y="448.1" class="st1" width="132" height="88.3"/>
<rect x="1698" y="1594.4" class="st1" width="131.3" height="88.3"/>
<rect x="1698" y="1506.1" class="st0" width="131.3" height="88.3"/>
<rect x="1698" y="1417.8" class="st0" width="131.3" height="88.3"/>
<rect x="1698" y="1330" class="st0" width="131.3" height="87.8"/>
<rect x="1698" y="1241.7" class="st0" width="131.3" height="88.3"/>
<rect x="1698" y="1153.4" class="st0" width="131.3" height="88.3"/>
<rect x="1698" y="1065.2" class="st0" width="131.3" height="88.3"/>
<rect x="1698" y="976.9" class="st0" width="131.3" height="88.3"/>
<rect x="1698" y="889.1" class="st0" width="131.3" height="87.8"/>
<rect x="1698" y="800.8" class="st0" width="131.3" height="88.3"/>
<rect x="1698" y="712.5" class="st0" width="131.3" height="88.3"/>
<rect x="1698" y="624.2" class="st0" width="131.3" height="88.3"/>
<rect x="1698" y="536.4" class="st1" width="131.3" height="87.8"/>
<rect x="1566" y="1594.4" class="st1" width="132" height="88.3"/>
<rect x="1566" y="1506.1" class="st0" width="132" height="88.3"/>
<rect x="1566" y="1417.8" class="st0" width="132" height="88.3"/>
<rect x="1566" y="1330" class="st0" width="132" height="87.8"/>
<rect x="1566" y="1241.7" class="st0" width="132" height="88.3"/>
<rect x="1566" y="1153.4" class="st0" width="132" height="88.3"/>
<rect x="1566" y="1065.2" class="st0" width="132" height="88.3"/>
<rect x="1566" y="976.9" class="st0" width="132" height="88.3"/>
<rect x="1566" y="889.1" class="st1" width="132" height="87.8"/>
<rect x="1566" y="800.8" class="st1" width="132" height="88.3"/>
<rect x="1566" y="712.5" class="st0" width="132" height="88.3"/>
<rect x="1566" y="624.2" class="st0" width="132" height="88.3"/>
<rect x="1566" y="536.4" class="st1" width="132" height="87.8"/>
<rect x="1566" y="448.1" class="st1" width="132" height="88.3"/>
<rect x="1566" y="359.8" class="st1" width="132" height="88.3"/>
<rect x="1434" y="1506.1" class="st1" width="132" height="88.3"/>
<rect x="1434" y="1417.8" class="st0" width="132" height="88.3"/>
<rect x="1434" y="1330" class="st0" width="132" height="87.8"/>
<rect x="1434" y="1241.7" class="st0" width="132" height="88.3"/>
<rect x="1434" y="1153.4" class="st0" width="132" height="88.3"/>
<rect x="1434" y="1065.2" class="st0" width="132" height="88.3"/>
<rect x="1434" y="976.9" class="st0" width="132" height="88.3"/>
<rect x="1434" y="889.1" class="st0" width="132" height="87.8"/>
<rect x="1434" y="800.8" class="st0" width="132" height="88.3"/>
<rect x="1434" y="712.5" class="st0" width="132" height="88.3"/>
<rect x="1434" y="624.2" class="st0" width="132" height="88.3"/>
<rect x="1434" y="536.4" class="st2" width="132" height="87.8"/>
<rect x="1434" y="448.1" class="st3" width="132" height="88.3"/>
<rect x="1434" y="359.8" class="st2" width="132" height="88.3"/>
<rect x="1434" y="271.6" class="st1" width="132" height="88.3"/>
<rect x="1302" y="1506.1" class="st1" width="132" height="88.3"/>
<rect x="1302" y="1417.8" class="st0" width="132" height="88.3"/>
<rect x="1302" y="1330" class="st0" width="132" height="87.8"/>
<rect x="1302" y="1241.7" class="st0" width="132" height="88.3"/>
<rect x="1302" y="1153.4" class="st0" width="132" height="88.3"/>
<rect x="1302" y="1065.2" class="st0" width="132" height="88.3"/>
<rect x="1302" y="976.9" class="st0" width="132" height="88.3"/>
<rect x="1302" y="889.1" class="st0" width="132" height="87.8"/>
<rect x="1302" y="800.8" class="st0" width="132" height="88.3"/>
<rect x="1302" y="712.5" class="st0" width="132" height="88.3"/>
<rect x="1302" y="624.2" class="st0" width="132" height="88.3"/>
<rect x="1302" y="536.4" class="st0" width="132" height="87.8"/>
<rect x="1302" y="448.1" class="st1" width="132" height="88.3"/>
<rect x="1302" y="271.6" class="st1" width="132" height="88.3"/>
<rect x="1170" y="1506.1" class="st1" width="132" height="88.3"/>
<rect x="1170" y="1417.8" class="st0" width="132" height="88.3"/>
<rect x="1170" y="1330" class="st0" width="132" height="87.8"/>
<rect x="1170" y="1241.7" class="st0" width="132" height="88.3"/>
<rect x="1170" y="1153.4" class="st0" width="132" height="88.3"/>
<rect x="1170" y="1065.2" class="st0" width="132" height="88.3"/>
<rect x="1170" y="976.9" class="st0" width="132" height="88.3"/>
<rect x="1170" y="889.1" class="st0" width="132" height="87.8"/>
<rect x="1170" y="800.8" class="st0" width="132" height="88.3"/>
<rect x="1170" y="712.5" class="st0" width="132" height="88.3"/>
<rect x="1170" y="624.2" class="st0" width="132" height="88.3"/>
<rect x="1170" y="536.4" class="st2" width="132" height="87.8"/>
<rect x="1170" y="448.1" class="st3" width="132" height="88.3"/>
<rect x="1170" y="359.8" class="st2" width="132" height="88.3"/>
<rect x="1170" y="271.6" class="st1" width="132" height="88.3"/>
<rect x="1038.7" y="1594.4" class="st1" width="131.3" height="88.3"/>
<rect x="1038.7" y="1506.1" class="st0" width="131.3" height="88.3"/>
<rect x="1038.7" y="1417.8" class="st0" width="131.3" height="88.3"/>
<rect x="1038.7" y="1330" class="st0" width="131.3" height="87.8"/>
<rect x="1038.7" y="1241.7" class="st0" width="131.3" height="88.3"/>
<rect x="1038.7" y="1153.4" class="st0" width="131.3" height="88.3"/>
<rect x="1038.7" y="1065.2" class="st0" width="131.3" height="88.3"/>
<rect x="1038.7" y="976.9" class="st0" width="131.3" height="88.3"/>
<rect x="1038.7" y="889.1" class="st1" width="131.3" height="87.8"/>
<rect x="1038.7" y="800.8" class="st1" width="131.3" height="88.3"/>
<rect x="1038.7" y="712.5" class="st0" width="131.3" height="88.3"/>
<rect x="1038.7" y="624.2" class="st0" width="131.3" height="88.3"/>
<rect x="1038.7" y="536.4" class="st1" width="131.3" height="87.8"/>
<rect x="1038.7" y="448.1" class="st1" width="131.3" height="88.3"/>
<rect x="1038.7" y="359.8" class="st1" width="131.3" height="88.3"/>
<rect x="906.7" y="1594.4" class="st1" width="132" height="88.3"/>
<rect x="906.7" y="1506.1" class="st0" width="132" height="88.3"/>
<rect x="906.7" y="1417.8" class="st0" width="132" height="88.3"/>
<rect x="906.7" y="1330" class="st0" width="132" height="87.8"/>
<rect x="906.7" y="1241.7" class="st0" width="132" height="88.3"/>
<rect x="906.7" y="1153.4" class="st0" width="132" height="88.3"/>
<rect x="906.7" y="1065.2" class="st0" width="132" height="88.3"/>
<rect x="906.7" y="976.9" class="st0" width="132" height="88.3"/>
<rect x="906.7" y="889.1" class="st0" width="132" height="87.8"/>
<rect x="906.7" y="800.8" class="st0" width="132" height="88.3"/>
<rect x="906.7" y="712.5" class="st0" width="132" height="88.3"/>
<rect x="906.7" y="624.2" class="st0" width="132" height="88.3"/>
<rect x="906.7" y="536.4" class="st1" width="132" height="87.8"/>
<rect x="774.6" y="1506.1" class="st1" width="132" height="88.3"/>
<rect x="774.6" y="1417.8" class="st0" width="132" height="88.3"/>
<rect x="774.6" y="1330" class="st0" width="132" height="87.8"/>
<rect x="774.6" y="1241.7" class="st0" width="132" height="88.3"/>
<rect x="774.6" y="1153.4" class="st0" width="132" height="88.3"/>
<rect x="774.6" y="1065.2" class="st0" width="132" height="88.3"/>
<rect x="774.6" y="976.9" class="st0" width="132" height="88.3"/>
<rect x="774.6" y="889.1" class="st0" width="132" height="87.8"/>
<rect x="774.6" y="800.8" class="st0" width="132" height="88.3"/>
<rect x="774.6" y="712.5" class="st0" width="132" height="88.3"/>
<rect x="774.6" y="624.2" class="st0" width="132" height="88.3"/>
<rect x="774.6" y="536.4" class="st0" width="132" height="87.8"/>
<rect x="774.6" y="448.1" class="st1" width="132" height="88.3"/>
<rect x="642.6" y="1417.8" class="st1" width="132" height="88.3"/>
<rect x="642.6" y="1330" class="st1" width="132" height="87.8"/>
<rect x="642.6" y="1241.7" class="st1" width="132" height="88.3"/>
<rect x="642.6" y="1153.4" class="st1" width="132" height="88.3"/>
<rect x="642.6" y="1065.2" class="st1" width="132" height="88.3"/>
<rect x="642.6" y="976.9" class="st1" width="132" height="88.3"/>
<rect x="642.6" y="889.1" class="st1" width="132" height="87.8"/>
<rect x="642.6" y="800.8" class="st1" width="132" height="88.3"/>
<rect x="642.6" y="712.5" class="st1" width="132" height="88.3"/>
<rect x="642.6" y="624.2" class="st1" width="132" height="88.3"/>
<rect x="642.6" y="536.4" class="st1" width="132" height="87.8"/>
<rect x="1829.3" y="536.4" class="st4" width="132" height="87.8"/>
<rect x="1829.3" y="624.2" class="st4" width="132" height="88.3"/>
<rect x="774.6" y="624.2" class="st4" width="132" height="88.3"/>
<rect x="774.6" y="536.4" class="st4" width="132" height="87.8"/>
<rect x="774.6" y="1241.7" class="st5" width="132" height="88.3"/>
<rect x="774.6" y="1153.4" class="st5" width="132" height="88.3"/>
<rect x="774.6" y="1065.2" class="st6" width="132" height="88.3"/>
<rect x="774.6" y="712.5" class="st6" width="132" height="88.3"/>
<rect x="906.7" y="1153.4" class="st6" width="132" height="88.3"/>
<rect x="906.7" y="624.2" class="st6" width="132" height="88.3"/>
<rect x="1038.7" y="1153.4" class="st6" width="132" height="88.3"/>
<rect x="1038.7" y="624.2" class="st5" width="132" height="88.3"/>
<rect x="1170.7" y="1153.4" class="st5" width="131.3" height="88.3"/>
<rect x="1170.7" y="977.4" class="st7" width="131.3" height="87.8"/>
<rect x="1302" y="1153.4" class="st5" width="132" height="88.3"/>
<rect x="1302" y="977.4" class="st6" width="132" height="87.8"/>
<rect x="1302" y="889.1" class="st8" width="132" height="88.3"/>
<rect x="1434" y="1153.4" class="st5" width="132" height="88.3"/>
<rect x="1434" y="977.4" class="st7" width="132" height="87.8"/>
<rect x="1566" y="1153.4" class="st5" width="132" height="88.3"/>
<rect x="1566" y="624.2" class="st5" width="132" height="88.3"/>
<rect x="1698" y="1153.4" class="st5" width="131.3" height="88.3"/>
<rect x="1698" y="624.2" class="st6" width="131.3" height="88.3"/>
<rect x="1829.3" y="1241.7" class="st5" width="132" height="88.3"/>
<rect x="1829.3" y="1153.4" class="st5" width="132" height="88.3"/>
<rect x="1829.3" y="1065.2" class="st6" width="132" height="88.3"/>
<rect x="1829.3" y="712.5" class="st6" width="132" height="88.3"/>
</svg>
