<svg id="Capa_1" data-name="Capa 1" xmlns="http://www.w3.org/2000/svg" viewBox="0 0 2736 1824"><defs><style>.cls-1{fill:#1b1b1b;}.cls-2{fill:#ffe090;}.cls-3{fill:#332d1d;}.cls-4{fill:#665a3a;}.cls-5{fill:#e6ca82;}.cls-6{fill:#807048;}.cls-7{fill:#ccb373;}.cls-8{fill:#b39d65;}.cls-9{fill:#6d3a3a;}.cls-10{fill:#c76977;}</style></defs><rect class="cls-1" x="1291.9" y="398.85" width="76.1" height="57.07"/><rect class="cls-1" x="1291.9" y="342.1" width="76.1" height="56.75"/><rect class="cls-1" x="1291.9" y="285.03" width="76.1" height="57.07"/><rect class="cls-1" x="1215.81" y="455.92" width="76.1" height="57.07"/><rect class="cls-2" x="1215.81" y="398.85" width="76.1" height="57.07"/><rect class="cls-2" x="1215.81" y="342.1" width="76.1" height="56.75"/><rect class="cls-3" x="1215.81" y="285.03" width="76.1" height="57.07"/><rect class="cls-1" x="1215.81" y="227.96" width="76.1" height="57.07"/><rect class="cls-1" x="1215.81" y="170.89" width="76.1" height="57.07"/><rect class="cls-1" x="1140.14" y="512.99" width="75.67" height="57.07"/><rect class="cls-2" x="1140.14" y="455.92" width="75.67" height="57.07"/><rect class="cls-4" x="1140.14" y="398.85" width="75.67" height="57.07"/><rect class="cls-2" x="1140.14" y="342.1" width="75.67" height="56.75"/><rect class="cls-2" x="1140.14" y="285.03" width="75.67" height="57.07"/><rect class="cls-2" x="1140.14" y="227.96" width="75.67" height="57.07"/><rect class="cls-2" x="1140.14" y="170.89" width="75.67" height="57.07"/><rect class="cls-1" x="1140.14" y="114.14" width="75.67" height="56.75"/><rect class="cls-1" x="1064.05" y="1140.12" width="76.1" height="56.75"/><rect class="cls-1" x="1064.05" y="1083.05" width="76.1" height="57.07"/><rect class="cls-1" x="1064.05" y="512.99" width="76.1" height="57.07"/><rect class="cls-2" x="1064.05" y="455.92" width="76.1" height="57.07"/><rect class="cls-2" x="1064.05" y="398.85" width="76.1" height="57.07"/><rect class="cls-2" x="1064.05" y="342.1" width="76.1" height="56.75"/><rect class="cls-1" x="1064.05" y="285.03" width="76.1" height="57.07"/><rect class="cls-1" x="1064.05" y="227.96" width="76.1" height="57.07"/><rect class="cls-2" x="1064.05" y="170.89" width="76.1" height="57.07"/><rect class="cls-2" x="1064.05" y="114.14" width="76.1" height="56.75"/><rect class="cls-1" x="1064.05" y="57.07" width="76.1" height="57.07"/><rect class="cls-1" x="987.95" y="1311.01" width="76.1" height="57.07"/><rect class="cls-1" x="987.95" y="1253.94" width="76.1" height="57.07"/><rect class="cls-1" x="987.95" y="1196.87" width="76.1" height="57.07"/><rect class="cls-2" x="987.95" y="1140.12" width="76.1" height="56.75"/><rect class="cls-2" x="987.95" y="1083.05" width="76.1" height="57.07"/><rect class="cls-1" x="987.95" y="1025.98" width="76.1" height="57.07"/><rect class="cls-1" x="987.95" y="968.91" width="76.1" height="57.07"/><rect class="cls-1" x="987.95" y="627.13" width="76.1" height="56.75"/><rect class="cls-1" x="987.95" y="570.06" width="76.1" height="57.07"/><rect class="cls-4" x="987.95" y="512.99" width="76.1" height="57.07"/><rect class="cls-2" x="987.95" y="455.92" width="76.1" height="57.07"/><rect class="cls-2" x="987.95" y="398.85" width="76.1" height="57.07"/><rect class="cls-2" x="987.95" y="342.1" width="76.1" height="56.75"/><rect class="cls-2" x="987.95" y="285.03" width="76.1" height="57.07"/><rect class="cls-2" x="987.95" y="227.96" width="76.1" height="57.07"/><rect class="cls-2" x="987.95" y="170.89" width="76.1" height="57.07"/><rect class="cls-2" x="987.95" y="114.14" width="76.1" height="56.75"/><rect class="cls-1" x="987.95" y="57.07" width="76.1" height="57.07"/><rect class="cls-1" x="911.86" y="1596.04" width="76.1" height="57.07"/><rect class="cls-1" x="911.86" y="1538.97" width="76.1" height="57.07"/><rect class="cls-1" x="911.86" y="1481.9" width="76.1" height="57.07"/><rect class="cls-1" x="911.86" y="1424.83" width="76.1" height="57.07"/><rect class="cls-1" x="911.86" y="1368.08" width="76.1" height="56.75"/><rect class="cls-2" x="911.86" y="1311.01" width="76.1" height="57.07"/><rect class="cls-2" x="911.86" y="1253.94" width="76.1" height="57.07"/><rect class="cls-2" x="911.86" y="1196.87" width="76.1" height="57.07"/><rect class="cls-3" x="911.86" y="1140.12" width="76.1" height="56.75"/><rect class="cls-3" x="911.86" y="1083.05" width="76.1" height="57.07"/><rect class="cls-2" x="911.86" y="1025.98" width="76.1" height="57.07"/><rect class="cls-1" x="911.86" y="968.91" width="76.1" height="57.07"/><rect class="cls-1" x="911.86" y="798.02" width="76.1" height="57.07"/><rect class="cls-1" x="911.86" y="740.95" width="76.1" height="57.07"/><rect class="cls-1" x="911.86" y="683.88" width="76.1" height="57.07"/><rect class="cls-2" x="911.86" y="627.13" width="76.1" height="56.75"/><rect class="cls-2" x="911.86" y="570.06" width="76.1" height="57.07"/><rect class="cls-5" x="911.86" y="512.99" width="76.1" height="57.07"/><rect class="cls-2" x="911.86" y="455.92" width="76.1" height="57.07"/><rect class="cls-2" x="911.86" y="398.85" width="76.1" height="57.07"/><rect class="cls-2" x="911.86" y="342.1" width="76.1" height="56.75"/><rect class="cls-2" x="911.86" y="285.03" width="76.1" height="57.07"/><rect class="cls-2" x="911.86" y="227.96" width="76.1" height="57.07"/><rect class="cls-3" x="911.86" y="170.89" width="76.1" height="57.07"/><rect class="cls-3" x="911.86" y="114.14" width="76.1" height="56.75"/><rect class="cls-1" x="911.86" y="57.07" width="76.1" height="57.07"/><rect class="cls-1" x="911.86" width="76.1" height="57.07"/><rect class="cls-1" x="836.19" y="1709.86" width="75.67" height="57.07"/><rect class="cls-1" x="836.19" y="1653.11" width="75.67" height="56.75"/><rect class="cls-5" x="836.19" y="1596.04" width="75.67" height="57.07"/><rect class="cls-2" x="836.19" y="1538.97" width="75.67" height="57.07"/><rect class="cls-2" x="836.19" y="1481.9" width="75.67" height="57.07"/><rect class="cls-6" x="836.19" y="1424.83" width="75.67" height="57.07"/><rect class="cls-6" x="836.19" y="1368.08" width="75.67" height="56.75"/><rect class="cls-2" x="836.19" y="1311.01" width="75.67" height="57.07"/><rect class="cls-2" x="836.19" y="1253.94" width="75.67" height="57.07"/><rect class="cls-2" x="836.19" y="1196.87" width="75.67" height="57.07"/><rect class="cls-2" x="836.19" y="1140.12" width="75.67" height="56.75"/><rect class="cls-2" x="836.19" y="1083.05" width="75.67" height="57.07"/><rect class="cls-3" x="836.19" y="1025.98" width="75.67" height="57.07"/><rect class="cls-1" x="836.19" y="968.91" width="75.67" height="57.07"/><rect class="cls-1" x="836.19" y="798.02" width="75.67" height="57.07"/><rect class="cls-2" x="836.19" y="740.95" width="75.67" height="57.07"/><rect class="cls-2" x="836.19" y="683.88" width="75.67" height="57.07"/><rect class="cls-2" x="836.19" y="627.13" width="75.67" height="56.75"/><rect class="cls-2" x="836.19" y="570.06" width="75.67" height="57.07"/><rect class="cls-2" x="836.19" y="512.99" width="75.67" height="57.07"/><rect class="cls-7" x="836.19" y="455.92" width="75.67" height="57.07"/><rect class="cls-2" x="836.19" y="398.85" width="75.67" height="57.07"/><rect class="cls-2" x="836.19" y="342.1" width="75.67" height="56.75"/><rect class="cls-2" x="836.19" y="285.03" width="75.67" height="57.07"/><rect class="cls-3" x="836.19" y="227.96" width="75.67" height="57.07"/><rect class="cls-2" x="836.19" y="170.89" width="75.67" height="57.07"/><rect class="cls-2" x="836.19" y="114.14" width="75.67" height="56.75"/><rect class="cls-2" x="836.19" y="57.07" width="75.67" height="57.07"/><rect class="cls-1" x="836.19" width="75.67" height="57.07"/><rect class="cls-1" x="760.1" y="1766.93" width="76.1" height="57.07"/><rect class="cls-2" x="760.1" y="1709.86" width="76.1" height="57.07"/><rect class="cls-2" x="760.1" y="1653.11" width="76.1" height="56.75"/><rect class="cls-5" x="760.1" y="1596.04" width="76.1" height="57.07"/><rect class="cls-2" x="760.1" y="1538.97" width="76.1" height="57.07"/><rect class="cls-6" x="760.1" y="1481.9" width="76.1" height="57.07"/><rect class="cls-2" x="760.1" y="1424.83" width="76.1" height="57.07"/><rect class="cls-2" x="760.1" y="1368.08" width="76.1" height="56.75"/><rect class="cls-6" x="760.1" y="1311.01" width="76.1" height="57.07"/><rect class="cls-2" x="760.1" y="1253.94" width="76.1" height="57.07"/><rect class="cls-2" x="760.1" y="1196.87" width="76.1" height="57.07"/><rect class="cls-2" x="760.1" y="1140.12" width="76.1" height="56.75"/><rect class="cls-2" x="760.1" y="1083.05" width="76.1" height="57.07"/><rect class="cls-2" x="760.1" y="1025.98" width="76.1" height="57.07"/><rect class="cls-1" x="760.1" y="968.91" width="76.1" height="57.07"/><rect class="cls-1" x="760.1" y="740.95" width="76.1" height="57.07"/><rect class="cls-5" x="760.1" y="683.88" width="76.1" height="57.07"/><rect class="cls-2" x="760.1" y="627.13" width="76.1" height="56.75"/><rect class="cls-2" x="760.1" y="570.06" width="76.1" height="57.07"/><rect class="cls-2" x="760.1" y="512.99" width="76.1" height="57.07"/><rect class="cls-2" x="760.1" y="455.92" width="76.1" height="57.07"/><rect class="cls-7" x="760.1" y="398.85" width="76.1" height="57.07"/><rect class="cls-5" x="760.1" y="342.1" width="76.1" height="56.75"/><rect class="cls-2" x="760.1" y="285.03" width="76.1" height="57.07"/><rect class="cls-3" x="760.1" y="227.96" width="76.1" height="57.07"/><rect class="cls-2" x="760.1" y="170.89" width="76.1" height="57.07"/><rect class="cls-2" x="760.1" y="114.14" width="76.1" height="56.75"/><rect class="cls-5" x="760.1" y="57.07" width="76.1" height="57.07"/><rect class="cls-1" x="760.1" width="76.1" height="57.07"/><rect class="cls-1" x="684" y="1709.86" width="76.1" height="57.07"/><rect class="cls-1" x="684" y="1653.11" width="76.1" height="56.75"/><rect class="cls-5" x="684" y="1596.04" width="76.1" height="57.07"/><rect class="cls-6" x="684" y="1538.97" width="76.1" height="57.07"/><rect class="cls-2" x="684" y="1481.9" width="76.1" height="57.07"/><rect class="cls-2" x="684" y="1424.83" width="76.1" height="57.07"/><rect class="cls-6" x="684" y="1368.08" width="76.1" height="56.75"/><rect class="cls-6" x="684" y="1311.01" width="76.1" height="57.07"/><rect class="cls-2" x="684" y="1253.94" width="76.1" height="57.07"/><rect class="cls-2" x="684" y="1196.87" width="76.1" height="57.07"/><rect class="cls-2" x="684" y="1140.12" width="76.1" height="56.75"/><rect class="cls-2" x="684" y="1083.05" width="76.1" height="57.07"/><rect class="cls-2" x="684" y="1025.98" width="76.1" height="57.07"/><rect class="cls-1" x="684" y="968.91" width="76.1" height="57.07"/><rect class="cls-1" x="684" y="683.88" width="76.1" height="57.07"/><rect class="cls-5" x="684" y="627.13" width="76.1" height="56.75"/><rect class="cls-2" x="684" y="570.06" width="76.1" height="57.07"/><rect class="cls-2" x="684" y="512.99" width="76.1" height="57.07"/><rect class="cls-2" x="684" y="455.92" width="76.1" height="57.07"/><rect class="cls-2" x="684" y="398.85" width="76.1" height="57.07"/><rect class="cls-2" x="684" y="342.1" width="76.1" height="56.75"/><rect class="cls-2" x="684" y="285.03" width="76.1" height="57.07"/><rect class="cls-7" x="684" y="227.96" width="76.1" height="57.07"/><rect class="cls-3" x="684" y="170.89" width="76.1" height="57.07"/><rect class="cls-1" x="684" y="114.14" width="76.1" height="56.75"/><rect class="cls-1" x="684" y="57.07" width="76.1" height="57.07"/><rect class="cls-1" x="607.91" y="1653.11" width="76.09" height="56.75"/><rect class="cls-5" x="607.91" y="1596.04" width="76.09" height="57.07"/><rect class="cls-2" x="607.91" y="1538.97" width="76.09" height="57.07"/><rect class="cls-2" x="607.91" y="1481.9" width="76.09" height="57.07"/><rect class="cls-6" x="607.91" y="1424.83" width="76.09" height="57.07"/><rect class="cls-2" x="607.91" y="1368.08" width="76.09" height="56.75"/><rect class="cls-6" x="607.91" y="1311.01" width="76.09" height="57.07"/><rect class="cls-2" x="607.91" y="1253.94" width="76.09" height="57.07"/><rect class="cls-2" x="607.91" y="1196.87" width="76.09" height="57.07"/><rect class="cls-2" x="607.91" y="1140.12" width="76.09" height="56.75"/><rect class="cls-2" x="607.91" y="1083.05" width="76.09" height="57.07"/><rect class="cls-2" x="607.91" y="1025.98" width="76.09" height="57.07"/><rect class="cls-1" x="607.91" y="968.91" width="76.09" height="57.07"/><rect class="cls-1" x="607.91" y="683.88" width="76.09" height="57.07"/><rect class="cls-7" x="607.91" y="627.13" width="76.09" height="56.75"/><rect class="cls-2" x="607.91" y="570.06" width="76.09" height="57.07"/><rect class="cls-2" x="607.91" y="512.99" width="76.09" height="57.07"/><rect class="cls-2" x="607.91" y="455.92" width="76.09" height="57.07"/><rect class="cls-2" x="607.91" y="398.85" width="76.09" height="57.07"/><rect class="cls-2" x="607.91" y="342.1" width="76.09" height="56.75"/><rect class="cls-2" x="607.91" y="285.03" width="76.09" height="57.07"/><rect class="cls-1" x="607.91" y="227.96" width="76.09" height="57.07"/><rect class="cls-1" x="607.91" y="170.89" width="76.09" height="57.07"/><rect class="cls-1" x="531.81" y="1709.86" width="76.09" height="57.07"/><rect class="cls-1" x="531.81" y="1653.11" width="76.09" height="56.75"/><rect class="cls-5" x="531.81" y="1596.04" width="76.09" height="57.07"/><rect class="cls-2" x="531.81" y="1538.97" width="76.09" height="57.07"/><rect class="cls-2" x="531.81" y="1481.9" width="76.09" height="57.07"/><rect class="cls-2" x="531.81" y="1424.83" width="76.09" height="57.07"/><rect class="cls-2" x="531.81" y="1368.08" width="76.09" height="56.75"/><rect class="cls-6" x="531.81" y="1311.01" width="76.09" height="57.07"/><rect class="cls-2" x="531.81" y="1253.94" width="76.09" height="57.07"/><rect class="cls-2" x="531.81" y="1196.87" width="76.09" height="57.07"/><rect class="cls-2" x="531.81" y="1140.12" width="76.09" height="56.75"/><rect class="cls-2" x="531.81" y="1083.05" width="76.09" height="57.07"/><rect class="cls-2" x="531.81" y="1025.98" width="76.09" height="57.07"/><rect class="cls-1" x="531.81" y="968.91" width="76.09" height="57.07"/><rect class="cls-1" x="531.81" y="683.88" width="76.09" height="57.07"/><rect class="cls-7" x="531.81" y="627.13" width="76.09" height="56.75"/><rect class="cls-2" x="531.81" y="570.06" width="76.09" height="57.07"/><rect class="cls-2" x="531.81" y="512.99" width="76.09" height="57.07"/><rect class="cls-2" x="531.81" y="455.92" width="76.09" height="57.07"/><rect class="cls-2" x="531.81" y="398.85" width="76.09" height="57.07"/><rect class="cls-2" x="531.81" y="342.1" width="76.09" height="56.75"/><rect class="cls-1" x="531.81" y="285.03" width="76.09" height="57.07"/><rect class="cls-1" x="456.14" y="1766.93" width="75.67" height="57.07"/><rect class="cls-2" x="456.14" y="1709.86" width="75.67" height="57.07"/><rect class="cls-2" x="456.14" y="1653.11" width="75.67" height="56.75"/><rect class="cls-5" x="456.14" y="1596.04" width="75.67" height="57.07"/><rect class="cls-2" x="456.14" y="1538.97" width="75.67" height="57.07"/><rect class="cls-2" x="456.14" y="1481.9" width="75.67" height="57.07"/><rect class="cls-2" x="456.14" y="1424.83" width="75.67" height="57.07"/><rect class="cls-2" x="456.14" y="1368.08" width="75.67" height="56.75"/><rect class="cls-6" x="456.14" y="1311.01" width="75.67" height="57.07"/><rect class="cls-2" x="456.14" y="1253.94" width="75.67" height="57.07"/><rect class="cls-2" x="456.14" y="1196.87" width="75.67" height="57.07"/><rect class="cls-2" x="456.14" y="1140.12" width="75.67" height="56.75"/><rect class="cls-2" x="456.14" y="1083.05" width="75.67" height="57.07"/><rect class="cls-2" x="456.14" y="1025.98" width="75.67" height="57.07"/><rect class="cls-1" x="456.14" y="968.91" width="75.67" height="57.07"/><rect class="cls-1" x="456.14" y="798.02" width="75.67" height="57.07"/><rect class="cls-1" x="456.14" y="740.95" width="75.67" height="57.07"/><rect class="cls-1" x="456.14" y="683.88" width="75.67" height="57.07"/><rect class="cls-7" x="456.14" y="627.13" width="75.67" height="56.75"/><rect class="cls-2" x="456.14" y="570.06" width="75.67" height="57.07"/><rect class="cls-2" x="456.14" y="512.99" width="75.67" height="57.07"/><rect class="cls-2" x="456.14" y="455.92" width="75.67" height="57.07"/><rect class="cls-2" x="456.14" y="398.85" width="75.67" height="57.07"/><rect class="cls-5" x="456.14" y="342.1" width="75.67" height="56.75"/><rect class="cls-1" x="456.14" y="285.03" width="75.67" height="57.07"/><rect class="cls-1" x="380.05" y="1709.86" width="76.09" height="57.07"/><rect class="cls-1" x="380.05" y="1653.11" width="76.09" height="56.75"/><rect class="cls-5" x="380.05" y="1596.04" width="76.09" height="57.07"/><rect class="cls-2" x="380.05" y="1538.97" width="76.09" height="57.07"/><rect class="cls-2" x="380.05" y="1481.9" width="76.09" height="57.07"/><rect class="cls-2" x="380.05" y="1424.83" width="76.09" height="57.07"/><rect class="cls-6" x="380.05" y="1368.08" width="76.09" height="56.75"/><rect class="cls-2" x="380.05" y="1311.01" width="76.09" height="57.07"/><rect class="cls-2" x="380.05" y="1253.94" width="76.09" height="57.07"/><rect class="cls-2" x="380.05" y="1196.87" width="76.09" height="57.07"/><rect class="cls-2" x="380.05" y="1140.12" width="76.09" height="56.75"/><rect class="cls-2" x="380.05" y="1083.05" width="76.09" height="57.07"/><rect class="cls-3" x="380.05" y="1025.98" width="76.09" height="57.07"/><rect class="cls-1" x="380.05" y="968.91" width="76.09" height="57.07"/><rect class="cls-1" x="380.05" y="798.02" width="76.09" height="57.07"/><rect class="cls-5" x="380.05" y="740.95" width="76.09" height="57.07"/><rect class="cls-2" x="380.05" y="683.88" width="76.09" height="57.07"/><rect class="cls-2" x="380.05" y="627.13" width="76.09" height="56.75"/><rect class="cls-2" x="380.05" y="570.06" width="76.09" height="57.07"/><rect class="cls-2" x="380.05" y="512.99" width="76.09" height="57.07"/><rect class="cls-2" x="380.05" y="455.92" width="76.09" height="57.07"/><rect class="cls-2" x="380.05" y="398.85" width="76.09" height="57.07"/><rect class="cls-5" x="380.05" y="342.1" width="76.09" height="56.75"/><rect class="cls-1" x="380.05" y="285.03" width="76.09" height="57.07"/><rect class="cls-1" x="303.95" y="1596.04" width="76.1" height="57.07"/><rect class="cls-1" x="303.95" y="1538.97" width="76.1" height="57.07"/><rect class="cls-1" x="303.95" y="1481.9" width="76.1" height="57.07"/><rect class="cls-1" x="303.95" y="1424.83" width="76.1" height="57.07"/><rect class="cls-1" x="303.95" y="1368.08" width="76.1" height="56.75"/><rect class="cls-2" x="303.95" y="1311.01" width="76.1" height="57.07"/><rect class="cls-2" x="303.95" y="1253.94" width="76.1" height="57.07"/><rect class="cls-2" x="303.95" y="1196.87" width="76.1" height="57.07"/><rect class="cls-3" x="303.95" y="1140.12" width="76.1" height="56.75"/><rect class="cls-3" x="303.95" y="1083.05" width="76.1" height="57.07"/><rect class="cls-2" x="303.95" y="1025.98" width="76.1" height="57.07"/><rect class="cls-1" x="303.95" y="968.91" width="76.1" height="57.07"/><rect class="cls-1" x="303.95" y="740.95" width="76.1" height="57.07"/><rect class="cls-5" x="303.95" y="683.88" width="76.1" height="57.07"/><rect class="cls-2" x="303.95" y="627.13" width="76.1" height="56.75"/><rect class="cls-2" x="303.95" y="570.06" width="76.1" height="57.07"/><rect class="cls-2" x="303.95" y="512.99" width="76.1" height="57.07"/><rect class="cls-2" x="303.95" y="455.92" width="76.1" height="57.07"/><rect class="cls-5" x="303.95" y="398.85" width="76.1" height="57.07"/><rect class="cls-1" x="303.95" y="342.1" width="76.1" height="56.75"/><rect class="cls-1" x="227.86" y="1311.01" width="76.09" height="57.07"/><rect class="cls-1" x="227.86" y="1253.94" width="76.09" height="57.07"/><rect class="cls-1" x="227.86" y="1196.87" width="76.09" height="57.07"/><rect class="cls-2" x="227.86" y="1140.12" width="76.09" height="56.75"/><rect class="cls-2" x="227.86" y="1083.05" width="76.09" height="57.07"/><rect class="cls-1" x="227.86" y="1025.98" width="76.09" height="57.07"/><rect class="cls-1" x="227.86" y="968.91" width="76.09" height="57.07"/><rect class="cls-1" x="227.86" y="683.88" width="76.09" height="57.07"/><rect class="cls-1" x="227.86" y="627.13" width="76.09" height="56.75"/><rect class="cls-1" x="227.86" y="570.06" width="76.09" height="57.07"/><rect class="cls-2" x="227.86" y="512.99" width="76.09" height="57.07"/><rect class="cls-2" x="227.86" y="455.92" width="76.09" height="57.07"/><rect class="cls-1" x="227.86" y="398.85" width="76.09" height="57.07"/><rect class="cls-1" x="152.19" y="1140.12" width="75.67" height="56.75"/><rect class="cls-1" x="152.19" y="1083.05" width="75.67" height="57.07"/><rect class="cls-1" x="152.19" y="512.99" width="75.67" height="57.07"/><rect class="cls-5" x="152.19" y="455.92" width="75.67" height="57.07"/><rect class="cls-1" x="152.19" y="398.85" width="75.67" height="57.07"/><rect class="cls-1" x="76.09" y="512.99" width="76.09" height="57.07"/><rect class="cls-1" x="76.09" y="455.92" width="76.09" height="57.07"/><rect class="cls-2" x="76.09" y="398.85" width="76.09" height="57.07"/><rect class="cls-1" x="76.09" y="342.1" width="76.09" height="56.75"/><rect class="cls-1" y="455.92" width="76.09" height="57.07"/><rect class="cls-1" y="398.85" width="76.09" height="57.07"/><rect class="cls-1" y="342.1" width="76.09" height="56.75"/><rect class="cls-5" x="456.14" y="1025.98" width="76.09" height="57.07"/><rect class="cls-5" x="532.24" y="1025.98" width="75.67" height="57.07"/><rect class="cls-5" x="607.91" y="1025.98" width="76.09" height="57.07"/><rect class="cls-5" x="684" y="1025.98" width="76.1" height="57.07"/><rect class="cls-5" x="760.1" y="1025.98" width="76.1" height="57.07"/><rect class="cls-5" x="911.86" y="1025.98" width="76.1" height="57.07"/><rect class="cls-1" x="1368" y="399.17" width="76.09" height="56.75"/><rect class="cls-1" x="1368" y="342.1" width="76.09" height="57.07"/><rect class="cls-1" x="1368" y="285.03" width="76.09" height="57.07"/><rect class="cls-1" x="1444.09" y="455.92" width="76.09" height="57.07"/><rect class="cls-2" x="1444.09" y="399.17" width="76.09" height="56.75"/><rect class="cls-2" x="1444.09" y="342.1" width="76.09" height="57.07"/><rect class="cls-3" x="1444.09" y="285.03" width="76.09" height="57.07"/><rect class="cls-1" x="1444.09" y="227.96" width="76.09" height="57.07"/><rect class="cls-1" x="1444.09" y="171.21" width="76.09" height="56.75"/><rect class="cls-1" x="1520.19" y="512.99" width="75.67" height="57.07"/><rect class="cls-2" x="1520.19" y="455.92" width="75.67" height="57.07"/><rect class="cls-4" x="1520.19" y="399.17" width="75.67" height="56.75"/><rect class="cls-2" x="1520.19" y="342.1" width="75.67" height="57.07"/><rect class="cls-2" x="1520.19" y="285.03" width="75.67" height="57.07"/><rect class="cls-2" x="1520.19" y="227.96" width="75.67" height="57.07"/><rect class="cls-2" x="1520.19" y="171.21" width="75.67" height="56.75"/><rect class="cls-1" x="1520.19" y="114.14" width="75.67" height="57.07"/><rect class="cls-1" x="1595.86" y="1140.12" width="76.09" height="57.07"/><rect class="cls-1" x="1595.86" y="1083.05" width="76.09" height="57.07"/><rect class="cls-1" x="1595.86" y="512.99" width="76.09" height="57.07"/><rect class="cls-2" x="1595.86" y="455.92" width="76.09" height="57.07"/><rect class="cls-2" x="1595.86" y="399.17" width="76.09" height="56.75"/><rect class="cls-2" x="1595.86" y="342.1" width="76.09" height="57.07"/><rect class="cls-1" x="1595.86" y="285.03" width="76.09" height="57.07"/><rect class="cls-1" x="1595.86" y="227.96" width="76.09" height="57.07"/><rect class="cls-2" x="1595.86" y="171.21" width="76.09" height="56.75"/><rect class="cls-2" x="1595.86" y="114.14" width="76.09" height="57.07"/><rect class="cls-1" x="1595.86" y="57.07" width="76.09" height="57.07"/><rect class="cls-1" x="1671.95" y="1311.01" width="76.09" height="57.07"/><rect class="cls-1" x="1671.95" y="1253.94" width="76.09" height="57.07"/><rect class="cls-1" x="1671.95" y="1197.19" width="76.09" height="56.75"/><rect class="cls-2" x="1671.95" y="1140.12" width="76.09" height="57.07"/><rect class="cls-2" x="1671.95" y="1083.05" width="76.09" height="57.07"/><rect class="cls-1" x="1671.95" y="1025.98" width="76.09" height="57.07"/><rect class="cls-1" x="1671.95" y="968.91" width="76.09" height="57.07"/><rect class="cls-1" x="1671.95" y="627.13" width="76.09" height="57.07"/><rect class="cls-1" x="1671.95" y="570.06" width="76.09" height="57.07"/><rect class="cls-4" x="1671.95" y="512.99" width="76.09" height="57.07"/><rect class="cls-2" x="1671.95" y="455.92" width="76.09" height="57.07"/><rect class="cls-2" x="1671.95" y="399.17" width="76.09" height="56.75"/><rect class="cls-2" x="1671.95" y="342.1" width="76.09" height="57.07"/><rect class="cls-2" x="1671.95" y="285.03" width="76.09" height="57.07"/><rect class="cls-2" x="1671.95" y="227.96" width="76.09" height="57.07"/><rect class="cls-2" x="1671.95" y="171.21" width="76.09" height="56.75"/><rect class="cls-2" x="1671.95" y="114.14" width="76.09" height="57.07"/><rect class="cls-1" x="1671.95" y="57.07" width="76.09" height="57.07"/><rect class="cls-1" x="1748.05" y="1596.04" width="76.09" height="57.07"/><rect class="cls-1" x="1748.05" y="1538.97" width="76.09" height="57.07"/><rect class="cls-1" x="1748.05" y="1481.9" width="76.09" height="57.07"/><rect class="cls-1" x="1748.05" y="1425.15" width="76.09" height="56.75"/><rect class="cls-1" x="1748.05" y="1368.08" width="76.09" height="57.07"/><rect class="cls-2" x="1748.05" y="1311.01" width="76.09" height="57.07"/><rect class="cls-2" x="1748.05" y="1253.94" width="76.09" height="57.07"/><rect class="cls-2" x="1748.05" y="1197.19" width="76.09" height="56.75"/><rect class="cls-3" x="1748.05" y="1140.12" width="76.09" height="57.07"/><rect class="cls-3" x="1748.05" y="1083.05" width="76.09" height="57.07"/><rect class="cls-5" x="1748.05" y="1025.98" width="76.09" height="57.07"/><rect class="cls-1" x="1748.05" y="968.91" width="76.09" height="57.07"/><rect class="cls-1" x="1748.05" y="798.02" width="76.09" height="57.07"/><rect class="cls-1" x="1748.05" y="740.95" width="76.09" height="57.07"/><rect class="cls-1" x="1748.05" y="684.2" width="76.09" height="56.75"/><rect class="cls-2" x="1748.05" y="627.13" width="76.09" height="57.07"/><rect class="cls-2" x="1748.05" y="570.06" width="76.09" height="57.07"/><rect class="cls-5" x="1748.05" y="512.99" width="76.09" height="57.07"/><rect class="cls-2" x="1748.05" y="455.92" width="76.09" height="57.07"/><rect class="cls-2" x="1748.05" y="399.17" width="76.09" height="56.75"/><rect class="cls-2" x="1748.05" y="342.1" width="76.09" height="57.07"/><rect class="cls-2" x="1748.05" y="285.03" width="76.09" height="57.07"/><rect class="cls-2" x="1748.05" y="227.96" width="76.09" height="57.07"/><rect class="cls-3" x="1748.05" y="171.21" width="76.09" height="56.75"/><rect class="cls-3" x="1748.05" y="114.14" width="76.09" height="57.07"/><rect class="cls-1" x="1748.05" y="57.07" width="76.09" height="57.07"/><rect class="cls-1" x="1748.05" width="76.09" height="57.07"/><rect class="cls-1" x="1824.14" y="1710.18" width="76.09" height="56.75"/><rect class="cls-1" x="1824.14" y="1653.11" width="76.09" height="57.07"/><rect class="cls-7" x="1824.14" y="1596.04" width="76.09" height="57.07"/><rect class="cls-2" x="1824.14" y="1538.97" width="76.09" height="57.07"/><rect class="cls-2" x="1824.14" y="1481.9" width="76.09" height="57.07"/><rect class="cls-8" x="1824.14" y="1425.15" width="76.09" height="56.75"/><rect class="cls-2" x="1824.14" y="1368.08" width="76.09" height="57.07"/><rect class="cls-2" x="1824.14" y="1311.01" width="76.09" height="57.07"/><rect class="cls-2" x="1824.14" y="1253.94" width="76.09" height="57.07"/><rect class="cls-2" x="1824.14" y="1197.19" width="76.09" height="56.75"/><rect class="cls-2" x="1824.14" y="1140.12" width="76.09" height="57.07"/><rect class="cls-2" x="1824.14" y="1083.05" width="76.09" height="57.07"/><rect class="cls-3" x="1824.14" y="1025.98" width="76.09" height="57.07"/><rect class="cls-1" x="1824.14" y="968.91" width="76.09" height="57.07"/><rect class="cls-1" x="1824.14" y="798.02" width="76.09" height="57.07"/><rect class="cls-2" x="1824.14" y="740.95" width="76.09" height="57.07"/><rect class="cls-2" x="1824.14" y="684.2" width="76.09" height="56.75"/><rect class="cls-2" x="1824.14" y="627.13" width="76.09" height="57.07"/><rect class="cls-2" x="1824.14" y="570.06" width="76.09" height="57.07"/><rect class="cls-2" x="1824.14" y="512.99" width="76.09" height="57.07"/><rect class="cls-7" x="1824.14" y="455.92" width="76.09" height="57.07"/><rect class="cls-2" x="1824.14" y="399.17" width="76.09" height="56.75"/><rect class="cls-2" x="1824.14" y="342.1" width="76.09" height="57.07"/><rect class="cls-2" x="1824.14" y="285.03" width="76.09" height="57.07"/><rect class="cls-3" x="1824.14" y="227.96" width="76.09" height="57.07"/><rect class="cls-2" x="1824.14" y="171.21" width="76.09" height="56.75"/><rect class="cls-2" x="1824.14" y="114.14" width="76.09" height="57.07"/><rect class="cls-2" x="1824.14" y="57.07" width="76.09" height="57.07"/><rect class="cls-1" x="1824.14" width="76.09" height="57.07"/><rect class="cls-1" x="1900.24" y="1766.93" width="75.67" height="57.07"/><rect class="cls-7" x="1900.24" y="1710.18" width="75.67" height="56.75"/><rect class="cls-7" x="1900.24" y="1653.11" width="75.67" height="57.07"/><rect class="cls-5" x="1900.24" y="1596.04" width="75.67" height="57.07"/><rect class="cls-2" x="1900.24" y="1538.97" width="75.67" height="57.07"/><rect class="cls-2" x="1900.24" y="1481.9" width="75.67" height="57.07"/><rect class="cls-7" x="1900.24" y="1425.15" width="75.67" height="56.75"/><rect class="cls-2" x="1900.24" y="1368.08" width="75.67" height="57.07"/><rect class="cls-2" x="1900.24" y="1311.01" width="75.67" height="57.07"/><rect class="cls-1" x="1900.24" y="1253.94" width="75.67" height="57.07"/><rect class="cls-1" x="1900.24" y="1197.19" width="75.67" height="56.75"/><rect class="cls-2" x="1900.24" y="1140.12" width="75.67" height="57.07"/><rect class="cls-2" x="1900.24" y="1083.05" width="75.67" height="57.07"/><rect class="cls-5" x="1900.24" y="1025.98" width="75.67" height="57.07"/><rect class="cls-1" x="1900.24" y="968.91" width="75.67" height="57.07"/><rect class="cls-1" x="1900.24" y="740.95" width="75.67" height="57.07"/><rect class="cls-5" x="1900.24" y="684.2" width="75.67" height="56.75"/><rect class="cls-2" x="1900.24" y="627.13" width="75.67" height="57.07"/><rect class="cls-2" x="1900.24" y="570.06" width="75.67" height="57.07"/><rect class="cls-2" x="1900.24" y="512.99" width="75.67" height="57.07"/><rect class="cls-2" x="1900.24" y="455.92" width="75.67" height="57.07"/><rect class="cls-7" x="1900.24" y="399.17" width="75.67" height="56.75"/><rect class="cls-5" x="1900.24" y="342.1" width="75.67" height="57.07"/><rect class="cls-2" x="1900.24" y="285.03" width="75.67" height="57.07"/><rect class="cls-3" x="1900.24" y="227.96" width="75.67" height="57.07"/><rect class="cls-2" x="1900.24" y="171.21" width="75.67" height="56.75"/><rect class="cls-2" x="1900.24" y="114.14" width="75.67" height="57.07"/><rect class="cls-5" x="1900.24" y="57.07" width="75.67" height="57.07"/><rect class="cls-1" x="1900.24" width="75.67" height="57.07"/><rect class="cls-1" x="1975.91" y="1710.18" width="76.09" height="56.75"/><rect class="cls-1" x="1975.91" y="1653.11" width="76.09" height="57.07"/><rect class="cls-5" x="1975.91" y="1596.04" width="76.09" height="57.07"/><rect class="cls-2" x="1975.91" y="1538.97" width="76.09" height="57.07"/><rect class="cls-2" x="1975.91" y="1481.9" width="76.09" height="57.07"/><rect class="cls-7" x="1975.91" y="1425.15" width="76.09" height="56.75"/><rect class="cls-9" x="1975.91" y="1368.08" width="76.09" height="57.07"/><rect class="cls-2" x="1975.91" y="1311.01" width="76.09" height="57.07"/><rect class="cls-2" x="1975.91" y="1253.94" width="76.09" height="57.07"/><rect class="cls-2" x="1975.91" y="1197.19" width="76.09" height="56.75"/><rect class="cls-2" x="1975.91" y="1140.12" width="76.09" height="57.07"/><rect class="cls-2" x="1975.91" y="1083.05" width="76.09" height="57.07"/><rect class="cls-5" x="1975.91" y="1025.98" width="76.09" height="57.07"/><rect class="cls-1" x="1975.91" y="968.91" width="76.09" height="57.07"/><rect class="cls-1" x="1975.91" y="684.2" width="76.09" height="56.75"/><rect class="cls-5" x="1975.91" y="627.13" width="76.09" height="57.07"/><rect class="cls-2" x="1975.91" y="570.06" width="76.09" height="57.07"/><rect class="cls-2" x="1975.91" y="512.99" width="76.09" height="57.07"/><rect class="cls-2" x="1975.91" y="455.92" width="76.09" height="57.07"/><rect class="cls-2" x="1975.91" y="399.17" width="76.09" height="56.75"/><rect class="cls-2" x="1975.91" y="342.1" width="76.09" height="57.07"/><rect class="cls-2" x="1975.91" y="285.03" width="76.09" height="57.07"/><rect class="cls-7" x="1975.91" y="227.96" width="76.09" height="57.07"/><rect class="cls-3" x="1975.91" y="171.21" width="76.09" height="56.75"/><rect class="cls-1" x="1975.91" y="114.14" width="76.09" height="57.07"/><rect class="cls-1" x="1975.91" y="57.07" width="76.09" height="57.07"/><rect class="cls-1" x="2052" y="1653.11" width="76.09" height="57.07"/><rect class="cls-5" x="2052" y="1596.04" width="76.09" height="57.07"/><rect class="cls-2" x="2052" y="1538.97" width="76.09" height="57.07"/><rect class="cls-2" x="2052" y="1481.9" width="76.09" height="57.07"/><rect class="cls-7" x="2052" y="1425.15" width="76.09" height="56.75"/><rect class="cls-10" x="2052" y="1368.08" width="76.09" height="57.07"/><rect class="cls-9" x="2052" y="1311.01" width="76.09" height="57.07"/><rect class="cls-1" x="2052" y="1253.94" width="76.09" height="57.07"/><rect class="cls-2" x="2052" y="1197.19" width="76.09" height="56.75"/><rect class="cls-2" x="2052" y="1140.12" width="76.09" height="57.07"/><rect class="cls-2" x="2052" y="1083.05" width="76.09" height="57.07"/><rect class="cls-5" x="2052" y="1025.98" width="76.09" height="57.07"/><rect class="cls-1" x="2052" y="968.91" width="76.09" height="57.07"/><rect class="cls-1" x="2052" y="684.2" width="76.09" height="56.75"/><rect class="cls-7" x="2052" y="627.13" width="76.09" height="57.07"/><rect class="cls-2" x="2052" y="570.06" width="76.09" height="57.07"/><rect class="cls-2" x="2052" y="512.99" width="76.09" height="57.07"/><rect class="cls-2" x="2052" y="455.92" width="76.09" height="57.07"/><rect class="cls-2" x="2052" y="399.17" width="76.09" height="56.75"/><rect class="cls-2" x="2052" y="342.1" width="76.09" height="57.07"/><rect class="cls-2" x="2052" y="285.03" width="76.09" height="57.07"/><rect class="cls-1" x="2052" y="227.96" width="76.09" height="57.07"/><rect class="cls-1" x="2052" y="171.21" width="76.09" height="56.75"/><rect class="cls-1" x="2128.09" y="1710.18" width="76.09" height="56.75"/><rect class="cls-1" x="2128.09" y="1653.11" width="76.09" height="57.07"/><rect class="cls-5" x="2128.09" y="1596.04" width="76.09" height="57.07"/><rect class="cls-2" x="2128.09" y="1538.97" width="76.09" height="57.07"/><rect class="cls-2" x="2128.09" y="1481.9" width="76.09" height="57.07"/><rect class="cls-7" x="2128.09" y="1425.15" width="76.09" height="56.75"/><rect class="cls-9" x="2128.09" y="1368.08" width="76.09" height="57.07"/><rect class="cls-2" x="2128.09" y="1311.01" width="76.09" height="57.07"/><rect class="cls-2" x="2128.09" y="1253.94" width="76.09" height="57.07"/><rect class="cls-2" x="2128.09" y="1197.19" width="76.09" height="56.75"/><rect class="cls-2" x="2128.09" y="1140.12" width="76.09" height="57.07"/><rect class="cls-2" x="2128.09" y="1083.05" width="76.09" height="57.07"/><rect class="cls-5" x="2128.09" y="1025.98" width="76.09" height="57.07"/><rect class="cls-1" x="2128.09" y="968.91" width="76.09" height="57.07"/><rect class="cls-1" x="2128.09" y="684.2" width="76.09" height="56.75"/><rect class="cls-7" x="2128.09" y="627.13" width="76.09" height="57.07"/><rect class="cls-2" x="2128.09" y="570.06" width="76.09" height="57.07"/><rect class="cls-2" x="2128.09" y="512.99" width="76.09" height="57.07"/><rect class="cls-2" x="2128.09" y="455.92" width="76.09" height="57.07"/><rect class="cls-2" x="2128.09" y="399.17" width="76.09" height="56.75"/><rect class="cls-2" x="2128.09" y="342.1" width="76.09" height="57.07"/><rect class="cls-1" x="2128.09" y="285.03" width="76.09" height="57.07"/><rect class="cls-1" x="2204.19" y="1766.93" width="75.67" height="57.07"/><rect class="cls-2" x="2204.19" y="1710.18" width="75.67" height="56.75"/><rect class="cls-2" x="2204.19" y="1653.11" width="75.67" height="57.07"/><rect class="cls-5" x="2204.19" y="1596.04" width="75.67" height="57.07"/><rect class="cls-2" x="2204.19" y="1538.97" width="75.67" height="57.07"/><rect class="cls-2" x="2204.19" y="1481.9" width="75.67" height="57.07"/><rect class="cls-7" x="2204.19" y="1425.15" width="75.67" height="56.75"/><rect class="cls-2" x="2204.19" y="1368.08" width="75.67" height="57.07"/><rect class="cls-2" x="2204.19" y="1311.01" width="75.67" height="57.07"/><rect class="cls-1" x="2204.19" y="1253.94" width="75.67" height="57.07"/><rect class="cls-1" x="2204.19" y="1197.19" width="75.67" height="56.75"/><rect class="cls-2" x="2204.19" y="1140.12" width="75.67" height="57.07"/><rect class="cls-2" x="2204.19" y="1083.05" width="75.67" height="57.07"/><rect class="cls-5" x="2204.19" y="1025.98" width="75.67" height="57.07"/><rect class="cls-1" x="2204.19" y="968.91" width="75.67" height="57.07"/><rect class="cls-1" x="2204.19" y="798.02" width="75.67" height="57.07"/><rect class="cls-1" x="2204.19" y="740.95" width="75.67" height="57.07"/><rect class="cls-1" x="2204.19" y="684.2" width="75.67" height="56.75"/><rect class="cls-7" x="2204.19" y="627.13" width="75.67" height="57.07"/><rect class="cls-2" x="2204.19" y="570.06" width="75.67" height="57.07"/><rect class="cls-2" x="2204.19" y="512.99" width="75.67" height="57.07"/><rect class="cls-2" x="2204.19" y="455.92" width="75.67" height="57.07"/><rect class="cls-2" x="2204.19" y="399.17" width="75.67" height="56.75"/><rect class="cls-5" x="2204.19" y="342.1" width="75.67" height="57.07"/><rect class="cls-1" x="2204.19" y="285.03" width="75.67" height="57.07"/><rect class="cls-1" x="2279.86" y="1710.18" width="76.09" height="56.75"/><rect class="cls-1" x="2279.86" y="1653.11" width="76.09" height="57.07"/><rect class="cls-5" x="2279.86" y="1596.04" width="76.09" height="57.07"/><rect class="cls-2" x="2279.86" y="1538.97" width="76.09" height="57.07"/><rect class="cls-2" x="2279.86" y="1481.9" width="76.09" height="57.07"/><rect class="cls-8" x="2279.86" y="1425.15" width="76.09" height="56.75"/><rect class="cls-2" x="2279.86" y="1368.08" width="76.09" height="57.07"/><rect class="cls-2" x="2279.86" y="1311.01" width="76.09" height="57.07"/><rect class="cls-2" x="2279.86" y="1253.94" width="76.09" height="57.07"/><rect class="cls-2" x="2279.86" y="1197.19" width="76.09" height="56.75"/><rect class="cls-2" x="2279.86" y="1140.12" width="76.09" height="57.07"/><rect class="cls-2" x="2279.86" y="1083.05" width="76.09" height="57.07"/><rect class="cls-3" x="2279.86" y="1025.98" width="76.09" height="57.07"/><rect class="cls-1" x="2279.86" y="968.91" width="76.09" height="57.07"/><rect class="cls-1" x="2279.86" y="798.02" width="76.09" height="57.07"/><rect class="cls-5" x="2279.86" y="740.95" width="76.09" height="57.07"/><rect class="cls-2" x="2279.86" y="684.2" width="76.09" height="56.75"/><rect class="cls-2" x="2279.86" y="627.13" width="76.09" height="57.07"/><rect class="cls-2" x="2279.86" y="570.06" width="76.09" height="57.07"/><rect class="cls-2" x="2279.86" y="512.99" width="76.09" height="57.07"/><rect class="cls-2" x="2279.86" y="455.92" width="76.09" height="57.07"/><rect class="cls-2" x="2279.86" y="399.17" width="76.09" height="56.75"/><rect class="cls-5" x="2279.86" y="342.1" width="76.09" height="57.07"/><rect class="cls-1" x="2279.86" y="285.03" width="76.09" height="57.07"/><rect class="cls-1" x="2355.95" y="1596.04" width="76.09" height="57.07"/><rect class="cls-1" x="2355.95" y="1538.97" width="76.09" height="57.07"/><rect class="cls-1" x="2355.95" y="1481.9" width="76.09" height="57.07"/><rect class="cls-1" x="2355.95" y="1425.15" width="76.09" height="56.75"/><rect class="cls-1" x="2355.95" y="1368.08" width="76.09" height="57.07"/><rect class="cls-2" x="2355.95" y="1311.01" width="76.09" height="57.07"/><rect class="cls-2" x="2355.95" y="1253.94" width="76.09" height="57.07"/><rect class="cls-2" x="2355.95" y="1197.19" width="76.09" height="56.75"/><rect class="cls-3" x="2355.95" y="1140.12" width="76.09" height="57.07"/><rect class="cls-3" x="2355.95" y="1083.05" width="76.09" height="57.07"/><rect class="cls-2" x="2355.95" y="1025.98" width="76.09" height="57.07"/><rect class="cls-1" x="2355.95" y="968.91" width="76.09" height="57.07"/><rect class="cls-1" x="2355.95" y="740.95" width="76.09" height="57.07"/><rect class="cls-5" x="2355.95" y="684.2" width="76.09" height="56.75"/><rect class="cls-2" x="2355.95" y="627.13" width="76.09" height="57.07"/><rect class="cls-2" x="2355.95" y="570.06" width="76.09" height="57.07"/><rect class="cls-2" x="2355.95" y="512.99" width="76.09" height="57.07"/><rect class="cls-2" x="2355.95" y="455.92" width="76.09" height="57.07"/><rect class="cls-5" x="2355.95" y="399.17" width="76.09" height="56.75"/><rect class="cls-1" x="2355.95" y="342.1" width="76.09" height="57.07"/><rect class="cls-1" x="2432.05" y="1311.01" width="76.09" height="57.07"/><rect class="cls-1" x="2432.05" y="1253.94" width="76.09" height="57.07"/><rect class="cls-1" x="2432.05" y="1197.19" width="76.09" height="56.75"/><rect class="cls-2" x="2432.05" y="1140.12" width="76.09" height="57.07"/><rect class="cls-2" x="2432.05" y="1083.05" width="76.09" height="57.07"/><rect class="cls-1" x="2432.05" y="1025.98" width="76.09" height="57.07"/><rect class="cls-1" x="2432.05" y="968.91" width="76.09" height="57.07"/><rect class="cls-1" x="2432.05" y="684.2" width="76.09" height="56.75"/><rect class="cls-1" x="2432.05" y="627.13" width="76.09" height="57.07"/><rect class="cls-1" x="2432.05" y="570.06" width="76.09" height="57.07"/><rect class="cls-2" x="2432.05" y="512.99" width="76.09" height="57.07"/><rect class="cls-2" x="2432.05" y="455.92" width="76.09" height="57.07"/><rect class="cls-1" x="2432.05" y="399.17" width="76.09" height="56.75"/><rect class="cls-1" x="2508.14" y="1140.12" width="76.09" height="57.07"/><rect class="cls-1" x="2508.14" y="1083.05" width="76.09" height="57.07"/><rect class="cls-1" x="2508.14" y="512.99" width="76.09" height="57.07"/><rect class="cls-5" x="2508.14" y="455.92" width="76.09" height="57.07"/><rect class="cls-1" x="2508.14" y="399.17" width="76.09" height="56.75"/><rect class="cls-1" x="2584.24" y="512.99" width="75.67" height="57.07"/><rect class="cls-1" x="2584.24" y="455.92" width="75.67" height="57.07"/><rect class="cls-2" x="2584.24" y="399.17" width="75.67" height="56.75"/><rect class="cls-1" x="2584.24" y="342.1" width="75.67" height="57.07"/><rect class="cls-1" x="2659.91" y="455.92" width="76.09" height="57.07"/><rect class="cls-1" x="2659.91" y="399.17" width="76.09" height="56.75"/><rect class="cls-1" x="2659.91" y="342.1" width="76.09" height="57.07"/></svg>