<?xml version="1.0" encoding="utf-8"?>
<!-- Generator: Adobe Illustrator 25.2.3, SVG Export Plug-In . SVG Version: 6.00 Build 0)  -->
<svg version="1.1" id="Layer_1" xmlns="http://www.w3.org/2000/svg" xmlns:xlink="http://www.w3.org/1999/xlink" x="0px" y="0px"
	 viewBox="0 0 372 300" style="enable-background:new 0 0 372 300;" xml:space="preserve">
<style type="text/css">
	.st0{fill:#998A62;}
	.st1{fill:#CCB882;}
	.st2{fill:#FFE6A3;}
	.st3{fill:#665C41;}
	.st4{fill:#B3A172;}
	.st5{fill:#AD7846;}
	.st6{fill:#573C23;}
</style>
<path d="M343.4,42.9H372v21.4h-28.6V42.9z"/>
<path d="M343.4,21.4H372v21.4h-28.6V21.4z"/>
<path d="M314.8,150h28.6v21.4h-28.6V150z"/>
<path d="M314.8,128.6h28.6V150h-28.6V128.6z"/>
<path d="M314.8,107.1h28.6v21.4h-28.6V107.1z"/>
<path d="M314.8,85.7h28.6v21.4h-28.6V85.7z"/>
<path d="M314.8,64.3h28.6v21.4h-28.6V64.3z"/>
<path class="st0" d="M314.8,42.9h28.6v21.4h-28.6V42.9z"/>
<path class="st0" d="M314.8,21.4h28.6v21.4h-28.6V21.4z"/>
<path d="M314.8,0h28.6v21.4h-28.6V0z"/>
<path d="M286.2,235.7h28.6v21.4h-28.6V235.7z"/>
<path d="M286.2,214.3h28.6v21.4h-28.6V214.3z"/>
<path d="M286.2,192.9h28.6v21.4h-28.6V192.9z"/>
<path d="M286.2,171.4h28.6v21.4h-28.6V171.4z"/>
<path class="st1" d="M286.2,150h28.6v21.4h-28.6V150z"/>
<path class="st2" d="M286.2,128.6h28.6V150h-28.6V128.6z"/>
<path class="st2" d="M286.2,107.1h28.6v21.4h-28.6V107.1z"/>
<path class="st2" d="M286.2,85.7h28.6v21.4h-28.6V85.7z"/>
<path class="st2" d="M286.2,64.3h28.6v21.4h-28.6V64.3z"/>
<path class="st3" d="M286.2,42.9h28.6v21.4h-28.6V42.9z"/>
<path class="st0" d="M286.2,21.4h28.6v21.4h-28.6V21.4z"/>
<path d="M286.2,0h28.6v21.4h-28.6V0z"/>
<path d="M257.5,257.1h28.6v21.4h-28.6V257.1z"/>
<path class="st1" d="M257.5,235.7h28.6v21.4h-28.6V235.7z"/>
<path class="st2" d="M257.5,214.3h28.6v21.4h-28.6V214.3z"/>
<path class="st2" d="M257.5,192.9h28.6v21.4h-28.6V192.9z"/>
<path class="st4" d="M257.5,171.4h28.6v21.4h-28.6V171.4z"/>
<path class="st2" d="M257.5,150h28.6v21.4h-28.6V150z"/>
<path class="st2" d="M257.5,128.6h28.6V150h-28.6V128.6z"/>
<path class="st2" d="M257.5,107.1h28.6v21.4h-28.6V107.1z"/>
<path class="st2" d="M257.5,85.7h28.6v21.4h-28.6V85.7z"/>
<path class="st2" d="M257.5,64.3h28.6v21.4h-28.6V64.3z"/>
<path class="st2" d="M257.5,42.9h28.6v21.4h-28.6V42.9z"/>
<path class="st3" d="M257.5,21.4h28.6v21.4h-28.6V21.4z"/>
<path d="M228.9,278.6h28.6V300h-28.6V278.6z"/>
<path class="st1" d="M228.9,257.1h28.6v21.4h-28.6V257.1z"/>
<path class="st1" d="M228.9,235.7h28.6v21.4h-28.6V235.7z"/>
<path class="st2" d="M228.9,214.3h28.6v21.4h-28.6V214.3z"/>
<path class="st2" d="M228.9,192.9h28.6v21.4h-28.6V192.9z"/>
<path class="st1" d="M228.9,171.4h28.6v21.4h-28.6V171.4z"/>
<path class="st2" d="M228.9,150h28.6v21.4h-28.6V150z"/>
<path class="st5" d="M228.9,128.6h28.6V150h-28.6V128.6z"/>
<path d="M228.9,107.1h28.6v21.4h-28.6V107.1z"/>
<path d="M228.9,85.7h28.6v21.4h-28.6V85.7z"/>
<path class="st2" d="M228.9,64.3h28.6v21.4h-28.6V64.3z"/>
<path class="st2" d="M228.9,42.9h28.6v21.4h-28.6V42.9z"/>
<path class="st1" d="M228.9,21.4h28.6v21.4h-28.6V21.4z"/>
<path d="M228.9,0h28.6v21.4h-28.6V0z"/>
<path d="M200.3,257.1h28.6v21.4h-28.6V257.1z"/>
<path class="st1" d="M200.3,235.7h28.6v21.4h-28.6V235.7z"/>
<path class="st2" d="M200.3,214.3h28.6v21.4h-28.6V214.3z"/>
<path class="st2" d="M200.3,192.9h28.6v21.4h-28.6V192.9z"/>
<path class="st1" d="M200.3,171.4h28.6v21.4h-28.6V171.4z"/>
<path class="st5" d="M200.3,150h28.6v21.4h-28.6V150z"/>
<path class="st6" d="M200.3,128.6h28.6V150h-28.6V128.6z"/>
<path class="st5" d="M200.3,107.1h28.6v21.4h-28.6V107.1z"/>
<path class="st2" d="M200.3,85.7h28.6v21.4h-28.6V85.7z"/>
<path class="st2" d="M200.3,64.3h28.6v21.4h-28.6V64.3z"/>
<path class="st2" d="M200.3,42.9h28.6v21.4h-28.6V42.9z"/>
<path class="st1" d="M200.3,21.4h28.6v21.4h-28.6V21.4z"/>
<path d="M200.3,0h28.6v21.4h-28.6V0z"/>
<path d="M171.7,257.1h28.6v21.4h-28.6V257.1z"/>
<path class="st1" d="M171.7,235.7h28.6v21.4h-28.6V235.7z"/>
<path class="st2" d="M171.7,214.3h28.6v21.4h-28.6V214.3z"/>
<path class="st2" d="M171.7,192.9h28.6v21.4h-28.6V192.9z"/>
<path class="st1" d="M171.7,171.4h28.6v21.4h-28.6V171.4z"/>
<path class="st5" d="M171.7,150h28.6v21.4h-28.6V150z"/>
<path class="st5" d="M171.7,128.6h28.6V150h-28.6V128.6z"/>
<path class="st6" d="M171.7,107.1h28.6v21.4h-28.6V107.1z"/>
<path class="st2" d="M171.7,85.7h28.6v21.4h-28.6V85.7z"/>
<path class="st2" d="M171.7,64.3h28.6v21.4h-28.6V64.3z"/>
<path class="st2" d="M171.7,42.9h28.6v21.4h-28.6V42.9z"/>
<path class="st1" d="M171.7,21.4h28.6v21.4h-28.6V21.4z"/>
<path d="M171.7,0h28.6v21.4h-28.6V0z"/>
<path d="M143.1,257.1h28.6v21.4h-28.6V257.1z"/>
<path class="st1" d="M143.1,235.7h28.6v21.4h-28.6V235.7z"/>
<path class="st2" d="M143.1,214.3h28.6v21.4h-28.6V214.3z"/>
<path class="st2" d="M143.1,192.9h28.6v21.4h-28.6V192.9z"/>
<path class="st1" d="M143.1,171.4h28.6v21.4h-28.6V171.4z"/>
<path class="st5" d="M143.1,150h28.6v21.4h-28.6V150z"/>
<path class="st6" d="M143.1,128.6h28.6V150h-28.6V128.6z"/>
<path class="st5" d="M143.1,107.1h28.6v21.4h-28.6V107.1z"/>
<path class="st2" d="M143.1,85.7h28.6v21.4h-28.6V85.7z"/>
<path class="st2" d="M143.1,64.3h28.6v21.4h-28.6V64.3z"/>
<path class="st2" d="M143.1,42.9h28.6v21.4h-28.6V42.9z"/>
<path class="st1" d="M143.1,21.4h28.6v21.4h-28.6V21.4z"/>
<path d="M143.1,0h28.6v21.4h-28.6V0z"/>
<path d="M114.5,278.6h28.6V300h-28.6V278.6z"/>
<path class="st1" d="M114.5,257.1h28.6v21.4h-28.6V257.1z"/>
<path class="st1" d="M114.5,235.7h28.6v21.4h-28.6V235.7z"/>
<path class="st2" d="M114.5,214.3h28.6v21.4h-28.6V214.3z"/>
<path class="st2" d="M114.5,192.9h28.6v21.4h-28.6V192.9z"/>
<path class="st1" d="M114.5,171.4h28.6v21.4h-28.6V171.4z"/>
<path class="st2" d="M114.5,150h28.6v21.4h-28.6V150z"/>
<path class="st5" d="M114.5,128.6h28.6V150h-28.6V128.6z"/>
<path d="M114.5,107.1h28.6v21.4h-28.6V107.1z"/>
<path d="M114.5,85.7h28.6v21.4h-28.6V85.7z"/>
<path class="st2" d="M114.5,64.3h28.6v21.4h-28.6V64.3z"/>
<path class="st2" d="M114.5,42.9h28.6v21.4h-28.6V42.9z"/>
<path class="st1" d="M114.5,21.4h28.6v21.4h-28.6V21.4z"/>
<path d="M114.5,0h28.6v21.4h-28.6V0z"/>
<path d="M85.8,257.1h28.6v21.4H85.8V257.1z"/>
<path class="st1" d="M85.8,235.7h28.6v21.4H85.8V235.7z"/>
<path class="st2" d="M85.8,214.3h28.6v21.4H85.8V214.3z"/>
<path class="st2" d="M85.8,192.9h28.6v21.4H85.8V192.9z"/>
<path class="st4" d="M85.8,171.4h28.6v21.4H85.8V171.4z"/>
<path class="st2" d="M85.8,150h28.6v21.4H85.8V150z"/>
<path class="st2" d="M85.8,128.6h28.6V150H85.8V128.6z"/>
<path class="st2" d="M85.8,107.1h28.6v21.4H85.8V107.1z"/>
<path class="st2" d="M85.8,85.7h28.6v21.4H85.8V85.7z"/>
<path class="st2" d="M85.8,64.3h28.6v21.4H85.8V64.3z"/>
<path class="st2" d="M85.8,42.9h28.6v21.4H85.8V42.9z"/>
<path class="st3" d="M85.8,21.4h28.6v21.4H85.8V21.4z"/>
<path d="M57.2,235.7h28.6v21.4H57.2V235.7z"/>
<path d="M57.2,214.3h28.6v21.4H57.2V214.3z"/>
<path d="M57.2,192.9h28.6v21.4H57.2V192.9z"/>
<path d="M57.2,171.4h28.6v21.4H57.2V171.4z"/>
<path class="st1" d="M57.2,150h28.6v21.4H57.2V150z"/>
<path class="st2" d="M57.2,128.6h28.6V150H57.2V128.6z"/>
<path class="st2" d="M57.2,107.1h28.6v21.4H57.2V107.1z"/>
<path class="st2" d="M57.2,85.7h28.6v21.4H57.2V85.7z"/>
<path class="st2" d="M57.2,64.3h28.6v21.4H57.2V64.3z"/>
<path class="st3" d="M57.2,42.9h28.6v21.4H57.2V42.9z"/>
<path class="st0" d="M57.2,21.4h28.6v21.4H57.2V21.4z"/>
<path d="M57.2,0h28.6v21.4H57.2V0z"/>
<path d="M28.6,150h28.6v21.4H28.6V150z"/>
<path d="M28.6,128.6h28.6V150H28.6V128.6z"/>
<path d="M28.6,107.1h28.6v21.4H28.6V107.1z"/>
<path d="M28.6,85.7h28.6v21.4H28.6V85.7z"/>
<path d="M28.6,64.3h28.6v21.4H28.6V64.3z"/>
<path class="st0" d="M28.6,42.9h28.6v21.4H28.6V42.9z"/>
<path class="st0" d="M28.6,21.4h28.6v21.4H28.6V21.4z"/>
<path d="M28.6,0h28.6v21.4H28.6V0z"/>
<path d="M0,42.9h28.6v21.4H0V42.9z"/>
<path d="M0,21.4h28.6v21.4H0V21.4z"/>
</svg>
